<svg xmlns="http://www.w3.org/2000/svg" width="10" height="30" viewBox="0 0 13.298 36.597">
  <path id="Icon_awesome-bone" data-name="Icon awesome-bone" d="M34.888,12.924A3.091,3.091,0,0,0,36.6,10.159V9.841a3.091,3.091,0,0,0-6.024-.978c-.319.957-.482,1.876-1.584,1.876H7.607C6.47,10.74,6.3,9.678,6.024,8.864A3.091,3.091,0,0,0,0,9.841v.317a3.091,3.091,0,0,0,1.709,2.765.531.531,0,0,1,0,.951A3.091,3.091,0,0,0,0,16.639v.317a3.091,3.091,0,0,0,6.024.978c.319-.957.482-1.876,1.584-1.876H28.989c1.138,0,1.312,1.061,1.584,1.876a3.091,3.091,0,0,0,6.024-.978v-.317a3.091,3.091,0,0,0-1.709-2.765A.532.532,0,0,1,34.888,12.924Z" transform="translate(20.048) rotate(90)" fill="#dc9722"/>
</svg>
