<svg xmlns="http://www.w3.org/2000/svg" width="41.51" height="23.5" viewBox="0 0 41.51 23.5">
  <g id="Icon_awesome-fish" data-name="Icon awesome-fish" transform="translate(0.5 0.5)">
    <path id="Icon_awesome-fish-2" data-name="Icon awesome-fish" d="M23,6.75c-6.326,0-11.85,3.851-14.925,7.146L1.934,9.252A1.169,1.169,0,0,0,.025,10.282L1.725,18l-1.7,7.718a1.17,1.17,0,0,0,1.908,1.031L8.073,22.1C11.148,25.4,16.673,29.25,23,29.25c9.665,0,17.5-9,17.5-11.25S32.664,6.75,23,6.75Zm6.147,12.938A1.688,1.688,0,1,1,30.834,18,1.688,1.688,0,0,1,29.147,19.688Z" transform="translate(40.5 29.25) rotate(180)" fill="#efab39" stroke="#efab39" stroke-width="1"/>
  </g>
</svg>
