<svg xmlns="http://www.w3.org/2000/svg" xmlns:xlink="http://www.w3.org/1999/xlink" width="1134.09" height="542.252" viewBox="0 0 1134.09 542.252">
  <defs>
    <clipPath id="clip-path">
      <path id="Path_3728" data-name="Path 3728" d="M210.6,207s2,73.3,2,75.8,4.7,17.5,4.7,17.5h11.1s-6.8-50.2-3.9-60.1c2.9-10,4.5-35.8.2-36.4C220.4,203.3,213.5,197.6,210.6,207Z" transform="translate(-210.6 -201.633)"/>
    </clipPath>
    <clipPath id="clip-path-2">
      <path id="Path_3782" data-name="Path 3782" d="M364.553,205.3s-16.8,17.8-56.5,40.7l-23.7,42.1a17.244,17.244,0,0,1,7.9,12.2h-15.6s-.3-24.2,2.1-28.9c2.3-4.7,22.5-36.8,22.5-36.8s40.3-31.6,42-33.5S370.353,196.8,364.553,205.3Z" transform="translate(-276.641 -199.27)"/>
    </clipPath>
    <clipPath id="clip-path-3">
      <path id="Path_3845" data-name="Path 3845" d="M164.458,145a37.644,37.644,0,0,1,.7-10.1,61.451,61.451,0,0,1-10.4,2.9C151.158,138.3,159.758,144.5,164.458,145Z" transform="translate(-153.9 -134.9)"/>
    </clipPath>
    <clipPath id="clip-path-4">
      <path id="Path_3619" data-name="Path 3619" d="M266.241,146.8c-24.524,4.274-8.744-1.841-8.744-1.841a18.035,18.035,0,0,0,6.575-3.156S264.992,143.9,266.241,146.8Z" transform="translate(-252.5 -141.8)"/>
    </clipPath>
    <clipPath id="clip-path-5">
      <path id="Path_3672" data-name="Path 3672" d="M287.6,213.763l-6.18,4.208c-2.5-1.709-7.035-3.419-12.952-.066a10.436,10.436,0,0,0-3.09,2.827l-4.274-5.654c.855-2.433,3.945-4.076,8.942-7.232,6.246-3.879,7.1-11.046,7.1-11.046S282.863,205.281,287.6,213.763Z" transform="translate(-261.1 -196.8)"/>
    </clipPath>
  </defs>
  <g id="Group_949" data-name="Group 949" transform="translate(-116 -53)">
    <g id="Group_837" data-name="Group 837" transform="translate(-40 1)">
      <circle id="Ellipse_15" data-name="Ellipse 15" cx="61" cy="61" r="61" transform="translate(347 230)" fill="#f9e489"/>
      <circle id="Ellipse_16" data-name="Ellipse 16" cx="40.5" cy="40.5" r="40.5" transform="translate(194 411)" fill="#d9d9d9"/>
      <path id="Path_3224" data-name="Path 3224" d="M61,0A61,61,0,1,1,0,61,61,61,0,0,1,61,0Z" transform="translate(1290.09 353.127) rotate(103)" fill="#d8c59d"/>
      <circle id="Ellipse_20" data-name="Ellipse 20" cx="40.5" cy="40.5" r="40.5" transform="translate(1107.145 189.787) rotate(103)" fill="#f8e17c"/>
      <path id="Path_3846" data-name="Path 3846" d="M20.5,0A20.5,20.5,0,1,1,0,20.5,20.5,20.5,0,0,1,20.5,0Z" transform="translate(156 192)" fill="#d8c59d"/>
      <circle id="Ellipse_22" data-name="Ellipse 22" cx="21.5" cy="21.5" r="21.5" transform="translate(1217 199)" fill="#f9e489"/>
      <g id="Icon_material-pets" data-name="Icon material-pets" transform="translate(1226 206.5)">
        <path id="Path_3218" data-name="Path 3218" d="M7.8,12.9a2.4,2.4,0,1,1-2.4-2.4,2.4,2.4,0,0,1,2.4,2.4Z" transform="translate(0 -2.159)" fill="#fff"/>
        <path id="Path_3219" data-name="Path 3219" d="M14.552,6.9a2.4,2.4,0,1,1-2.4-2.4,2.4,2.4,0,0,1,2.4,2.4Z" transform="translate(-2.428)" fill="#fff"/>
        <path id="Path_3220" data-name="Path 3220" d="M23.552,6.9a2.4,2.4,0,1,1-2.4-2.4,2.4,2.4,0,0,1,2.4,2.4Z" transform="translate(-5.666)" fill="#fff"/>
        <path id="Path_3221" data-name="Path 3221" d="M30.3,12.9a2.4,2.4,0,1,1-2.4-2.4,2.4,2.4,0,0,1,2.4,2.4Z" transform="translate(-8.094 -2.159)" fill="#fff"/>
        <path id="Path_3222" data-name="Path 3222" d="M18.808,19.937c-.836-.98-1.537-1.815-2.382-2.795a4.074,4.074,0,0,0-1.681-1.268,1.944,1.944,0,0,0-.317-.086,4.833,4.833,0,0,0-.749-.038,4.029,4.029,0,0,0-.759.048,1.944,1.944,0,0,0-.317.086,4.137,4.137,0,0,0-1.681,1.268c-.836.98-1.537,1.815-2.382,2.795-1.258,1.258-2.8,2.651-2.516,4.6a3.015,3.015,0,0,0,2.238,2.228c.7.144,2.939-.423,5.32-.423h.173c2.382,0,4.619.557,5.32.423a3.03,3.03,0,0,0,2.238-2.228c.3-1.959-1.248-3.352-2.507-4.61Z" transform="translate(-1.076 -4.047)" fill="#fff"/>
      </g>
      <g id="Icon_material-pets-2" data-name="Icon material-pets" transform="translate(164 198.5)">
        <path id="Path_3218-2" data-name="Path 3218" d="M7.8,12.9a2.4,2.4,0,1,1-2.4-2.4,2.4,2.4,0,0,1,2.4,2.4Z" transform="translate(0 -2.159)" fill="#fff"/>
        <path id="Path_3219-2" data-name="Path 3219" d="M14.552,6.9a2.4,2.4,0,1,1-2.4-2.4,2.4,2.4,0,0,1,2.4,2.4Z" transform="translate(-2.428)" fill="#fff"/>
        <path id="Path_3220-2" data-name="Path 3220" d="M23.552,6.9a2.4,2.4,0,1,1-2.4-2.4,2.4,2.4,0,0,1,2.4,2.4Z" transform="translate(-5.666)" fill="#fff"/>
        <path id="Path_3221-2" data-name="Path 3221" d="M30.3,12.9a2.4,2.4,0,1,1-2.4-2.4,2.4,2.4,0,0,1,2.4,2.4Z" transform="translate(-8.094 -2.159)" fill="#fff"/>
        <path id="Path_3222-2" data-name="Path 3222" d="M18.808,19.937c-.836-.98-1.537-1.815-2.382-2.795a4.074,4.074,0,0,0-1.681-1.268,1.944,1.944,0,0,0-.317-.086,4.833,4.833,0,0,0-.749-.038,4.029,4.029,0,0,0-.759.048,1.944,1.944,0,0,0-.317.086,4.137,4.137,0,0,0-1.681,1.268c-.836.98-1.537,1.815-2.382,2.795-1.258,1.258-2.8,2.651-2.516,4.6a3.015,3.015,0,0,0,2.238,2.228c.7.144,2.939-.423,5.32-.423h.173c2.382,0,4.619.557,5.32.423a3.03,3.03,0,0,0,2.238-2.228c.3-1.959-1.248-3.352-2.507-4.61Z" transform="translate(-1.076 -4.047)" fill="#fff"/>
      </g>
      <path id="Icon_awesome-bone" data-name="Icon awesome-bone" d="M34.888,12.924A3.091,3.091,0,0,0,36.6,10.159V9.841a3.091,3.091,0,0,0-6.024-.978c-.319.957-.482,1.876-1.584,1.876H7.607C6.47,10.74,6.3,9.678,6.024,8.864A3.091,3.091,0,0,0,0,9.841v.317a3.091,3.091,0,0,0,1.709,2.765.531.531,0,0,1,0,.951A3.091,3.091,0,0,0,0,16.639v.317a3.091,3.091,0,0,0,6.024.978c.319-.957.482-1.876,1.584-1.876H28.989c1.138,0,1.312,1.061,1.584,1.876a3.091,3.091,0,0,0,6.024-.978v-.317a3.091,3.091,0,0,0-1.709-2.765A.532.532,0,0,1,34.888,12.924Z" transform="translate(256.702 446.867) rotate(132)" fill="#fff"/>
      <path id="Icon_awesome-fish" data-name="Icon awesome-fish" d="M23,6.75c-6.326,0-11.85,3.851-14.925,7.146L1.934,9.252A1.169,1.169,0,0,0,.025,10.282L1.725,18l-1.7,7.718a1.17,1.17,0,0,0,1.908,1.031L8.073,22.1C11.148,25.4,16.673,29.25,23,29.25c9.665,0,17.5-9,17.5-11.25S32.664,6.75,23,6.75Zm6.147,12.938A1.688,1.688,0,1,1,30.834,18,1.688,1.688,0,0,1,29.147,19.688Z" transform="translate(1085.619 217.659) rotate(135)" fill="#fff"/>
      <path id="Icon_awesome-fish-2" data-name="Icon awesome-fish" d="M35.435,6.75c-9.746,0-18.258,5.933-23,11.01L2.979,10.6C1.665,9.61-.3,10.669.039,12.192l2.619,11.89L.038,35.974C-.3,37.5,1.664,38.556,2.978,37.562l9.46-7.155c4.737,5.075,13.25,11.008,23,11.008,14.891,0,26.963-13.866,26.963-17.333S50.326,6.75,35.435,6.75Zm9.471,19.933a2.6,2.6,0,1,1,2.6-2.6A2.6,2.6,0,0,1,44.906,26.683Z" transform="matrix(-0.777, -0.629, 0.629, -0.777, 417.091, 329.35)" fill="#fff"/>
      <path id="Icon_awesome-bone-2" data-name="Icon awesome-bone" d="M78.473,20.637a6.953,6.953,0,0,0,3.844-6.219V13.7a6.954,6.954,0,0,0-13.55-2.2c-.718,2.153-1.084,4.219-3.562,4.219H17.111c-2.559,0-2.952-2.387-3.562-4.219A6.953,6.953,0,0,0,0,13.7v.714a6.953,6.953,0,0,0,3.844,6.219,1.2,1.2,0,0,1,0,2.139A6.953,6.953,0,0,0,0,28.994v.714a6.953,6.953,0,0,0,13.549,2.2c.718-2.153,1.084-4.219,3.562-4.219H65.2c2.559,0,2.952,2.387,3.562,4.219a6.953,6.953,0,0,0,13.549-2.2v-.714a6.952,6.952,0,0,0-3.844-6.219A1.2,1.2,0,0,1,78.473,20.637Z" transform="matrix(-0.978, -0.208, 0.208, -0.978, 1252.677, 428.63)" fill="#fff"/>
    </g>
    <g id="DrawKit_Vector_Illustration_Animal_Pets_8_" data-name="DrawKit Vector Illustration Animal &amp; Pets (8)" transform="translate(161.377 368.749)">
      <g id="Illustration" transform="translate(0 0)">
        <g id="Group_948" data-name="Group 948">
          <path id="Path_3674" data-name="Path 3674" d="M139.025,298.8c-2.4-1.3,238.4-3.6,252.4,0,10.1,2.6-26.5,5.2-69.6,5.1-45.8,0-99-2.8-113.9-1.3C178.825,305.4,147.125,303.2,139.025,298.8Z" transform="translate(-139.007 -77.4)" fill="#f8e17c"/>
          <g id="Group_947" data-name="Group 947" transform="translate(4.518)">
            <path id="Path_3675" data-name="Path 3675" d="M210.6,207s2,73.3,2,75.8,4.7,17.5,4.7,17.5h11.1s-6.8-50.2-3.9-60.1c2.9-10,4.5-35.8.2-36.4C220.4,203.3,213.5,197.6,210.6,207Z" transform="translate(-50.4 -77.4)" fill="#fff0dd"/>
            <g id="Group_936" data-name="Group 936" transform="translate(160.2 124.233)">
              <g id="Group_935" data-name="Group 935" transform="translate(0)" opacity="0.88" clip-path="url(#clip-path)">
                <g id="Group_934" data-name="Group 934" transform="translate(-19.4 9.428)">
                  <g id="Group_933" data-name="Group 933" transform="translate(0)">
                    <g id="Group_932" data-name="Group 932" transform="translate(0)">
                      <path id="Path_3676" data-name="Path 3676" d="M218.7,219l-.3.3S218.4,219.2,218.7,219Z" transform="translate(-189.3 -211.061)" fill="#322015"/>
                      <path id="Path_3677" data-name="Path 3677" d="M228.6,212.4h0v0Z" transform="translate(-209.4 -211.061)" fill="#322015"/>
                      <path id="Path_3678" data-name="Path 3678" d="M228.485,212.2v-.5A.33.33,0,0,1,228.485,212.2Z" transform="translate(-209.285 -211.061)" fill="#322015"/>
                      <path id="Path_3679" data-name="Path 3679" d="M221.3,221.4c-.1.1-.2.3-.4.5Z" transform="translate(-194.4 -211.061)" fill="#322015"/>
                      <path id="Path_3680" data-name="Path 3680" d="M223.4,221.5a.349.349,0,0,0-.2.1A.31.31,0,0,1,223.4,221.5Z" transform="translate(-198.8 -211.061)" fill="#322015"/>
                      <path id="Path_3681" data-name="Path 3681" d="M214.3,229.3c.1,0,.1,0,.2-.1A.349.349,0,0,1,214.3,229.3Z" transform="translate(-181 -211.061)" fill="#322015"/>
                      <path id="Path_3682" data-name="Path 3682" d="M215.386,230.1v.2h-.1C215.086,230.3,215.286,230.2,215.386,230.1Z" transform="translate(-182.786 -211.061)" fill="#322015"/>
                      <path id="Path_3683" data-name="Path 3683" d="M215.944,229.8v.2C215.844,229.9,215.944,229.9,215.944,229.8Z" transform="translate(-184.044 -211.061)" fill="#322015"/>
                      <path id="Path_3684" data-name="Path 3684" d="M222.2,234.6h0Z" transform="translate(-196.1 -211.061)" fill="#322015"/>
                      <path id="Path_3685" data-name="Path 3685" d="M214.3,229c-.1.1-.3.1-.4.2A.52.52,0,0,1,214.3,229Z" transform="translate(-180.4 -211.061)" fill="#322015"/>
                      <path id="Path_3686" data-name="Path 3686" d="M218.5,218.9c-.1.1-.1.1-.2.1A.31.31,0,0,1,218.5,218.9Z" transform="translate(-189 -211.061)" fill="#322015"/>
                      <path id="Path_3687" data-name="Path 3687" d="M220.556,222h0C220.556,221.9,220.656,221.9,220.556,222Z" transform="translate(-193.356 -211.061)" fill="#322015"/>
                      <path id="Path_3688" data-name="Path 3688" d="M233.063,211.3c-.1-.1-.2-.1-.3-.2C233.063,211,233.163,211.1,233.063,211.3Z" transform="translate(-218.063 -211.061)" fill="#322015"/>
                      <path id="Path_3689" data-name="Path 3689" d="M232.5,226.4c-1.5.1,0,.4-1.4.6.3-.2.5-.4-.3-.4-.8.3.1.4-1.1.7l.4-.4c-.6-.1-1.6.3-1.5.1,1.6-.5-.7-.7-.6-1l-.1.1-.9-.2h-.1a.367.367,0,0,0,.3-.1c-.9,0-1.5-.1-1.4-.5.5-.2.5-.4.5-.7,0-.2-.1-.5.3-.7-.2.2-.2.3.1.4l1.1-.3c-.1-.3-1,.3-.5-.2,1.5-.4.2.4.4.6a6.815,6.815,0,0,0,.7-.5c.2.4.8.8-.7,1.4a2.431,2.431,0,0,0,1.1-.3c-.8.5.9,0,.2.5,1.4-.4.6-.9,1.3-1.4-1.2-.2-.3-1-.3-1.6a15.313,15.313,0,0,1-2.4.9c-.8-.2.4-.6.9-1.1-.5-.2-1.7.6-1.9.2l-.5.5c-1.5.3.5-.5.1-.5.4-.1.8-.2.8,0,.5-.2.7-.4.7-.6h.1c.6-.4,1.4-.7.9-.9-.7.6-.7,0-1.1.1l-.1.2c.2-.3-.1-.5,0-.7l-.2.1c.2-.3,1.2-.9.8-1.1-.4.3-1.3,1.1-1.3.8-.6.4-.4.6-.1.8-.3-.1-1.3.3-1.3.6-.8.3.2-.4-.2-.3.2-.1.5-.3.7-.4-1,.6-.4-.4.3-.9l-.4.6c.8-.4,1.1-1.1,1.6-1.3-1.3.7.1-1.2-1-.6l.7-.3c-.8-.3.2-1.8-.2-2.7-.1.5-1.3,1.6-.6,1.6-.7-.3-1.3.9-2,1.3-.7.1.9-1.2,1.2-1.7v.5c.5-.8.2-1-.2-1.1s-.9-.1-.8-.8c-.3.4-.1.3-.1.5-.8.6-.1-.3-.1-.8-.4-.1-.9.1-1.4,1.1-.4.1.4-.6.5-1l-.2.2c.1-.4.3-.9.4-1.3a3.969,3.969,0,0,0-1.8,1.4c-.5-.5,1-2.5.6-3.1-.5.4-.3.8-.5,1.3l-.4-.3c-.4,1.3.2.8-.4,2.2.3-1.6-.3-.6-.4-1.7l.1-.1c.1-1-.6-.6-.9-.9-.1.6.2.8.4,1.1-.5.3-1.1-.3-1.1-1.7a1.175,1.175,0,0,0-.7,1.2c-.7.1.1-1.9-.6-1.7l-.2,1c-.9,1.3-1.1-1.5-1.9-.3l.1-1.2c-.2.5-.5.7-.6,1.2l.3.5c-.4,1-.2-1-.6-.3,0-.4.4-1.2.4-1.6a3.019,3.019,0,0,0,2.1.2,1.867,1.867,0,0,1,2,.8.764.764,0,0,0-.2.5c.2-.2.4.1.6-.5v-.1c.3.4,1.1-1,1.3-.9-.1.9.9,0,.2,1.3l.6-.8c-.1.5-.4,1.2-.4,1.5.3,0,.5-.5.5-1a3.3,3.3,0,0,1,3,1.8l.2-.7c.4-.1.1,1.6,1,.1,0,.5.4.6.7.8.2.2.3.5-.3,1.2.7-.5,1.1-.4,1.4-.1s.3.9.4,1.3c-1.3.9,0,.8-.4,1.3,1.1-.6.6-1.2,1.2-1.7-.5.9.1,1.1.5,1.5.4.3.7.7-.6,1.6.2,0,.3,0,.4-.1a1.949,1.949,0,0,0,.8.1c-.4.3-.8.1-.8.5.2.2.9-.3,1.3-.4-.4.8-.3,1.7-1.5,2.2.4,0,1.1-.1,1.2-.3-.7,1.1.4.7.1,1.7,0-.3,1.2-.5.6-.8.9-.1.9.2.9.6-.1.4-.3.9.2,1.1l-1,.5c-.1.4,1,.2,1.3-.1.8.5.2,1.1.3,1.6.1,0,.4,0,.3-.1l.1.7a3.706,3.706,0,0,1-1.5.5C232.7,227,233,226.8,232.5,226.4Z" transform="translate(-200.6 -211.061)" fill="#322015"/>
                      <path id="Path_3690" data-name="Path 3690" d="M216.5,227.1h0Z" transform="translate(-185.1 -211.061)" fill="#322015"/>
                      <path id="Path_3691" data-name="Path 3691" d="M222,222.6a1.338,1.338,0,0,1,.5-.1A1.087,1.087,0,0,1,222,222.6Z" transform="translate(-196.7 -211.061)" fill="#322015"/>
                      <path id="Path_3692" data-name="Path 3692" d="M218.2,233.7c-1.7-.1.3-.4-.2-.7-.3.3-1.3.2-1.8.1,2.2-.3-.4-.4,0-1-.7,0-.8.3-1.6.3a4.124,4.124,0,0,1,2.1-.9c0-.6-.4-1-.3-1.3-.5.4-1.2.1-2.3.5a29.314,29.314,0,0,0,4.8-2.3,11.416,11.416,0,0,0-2.7.2c-1-.6,1.2-.3.7-.9l.3.3c.4-.4,1.6-.5,2.5-.8l-.1.9c.9-.1.7-.6.9-.8,1.1-.4.9.4,1.7.2-.7.2-.4.5-.7.8h.5c.5.4-.7.7-.6,1.1h.3c-.6.2-1.2.3-1.4.6v-.2c-1.2.4-1.9,1.1-3.2.7.1.3.3.5.4.8,1.3-.1,3.3-.3,3.4-.8l.5-.1c.8.4-1,1.1-2.1.9-3.1.4-.1,1.3-1.4,1.8.9.1,1.2-.3,1.8-.4.1-.2.1-.3-.6-.3.5-.8,2.7.2,2.4-.7-.4-.4-1.4.6-1.5-.1l2.4-.5a4.13,4.13,0,0,1-.7,1.1,2.454,2.454,0,0,0-.7,2.2,2.507,2.507,0,0,0,.4.9l-.3,2c-.1.6-.3,1.3-.4,1.9l-.4,1.9-.5,1.9c-.5.7-.4,1-2.8.9-.4-.2-.2-.7-1-.7.9.1,1.4-.1,1.4-.6-.8-.2-.5.3-.7.2v-.1c-.4,0-.7,0-.8.1-1.2-.7-.8-1.4.9-1.5-.8-.5-1.4,0-2.1.1a8.312,8.312,0,0,1-.1-3.5,5.793,5.793,0,0,0,2-.1l-.5-.2c.3.1,1.3,0,1.6.3-1.1-.9,2.1-.7,2.8-1.2h-.8c.2-.4.2-.6.6-.9-1.4-.8-.3.6-2.2.3l.3-.2a18.646,18.646,0,0,0-2.6.3c1.3-.6-.4-1,.6-1.6a2.22,2.22,0,0,0-1.7.8c-.1-.2.6-.6-.2-.7h1.1c.2-.4-1,0-1.7-.2C214.2,233.5,217.5,234.5,218.2,233.7Z" transform="translate(-188.5 -211.061)" fill="#322015"/>
                      <path id="Path_3693" data-name="Path 3693" d="M219.769,223.5a.187.187,0,0,1,0,.3S219.669,223.7,219.769,223.5Z" transform="translate(-191.769 -211.061)" fill="#322015"/>
                      <path id="Path_3694" data-name="Path 3694" d="M221.8,225.9c-.1,0-.3.1-.4.1C221.6,226,221.7,225.9,221.8,225.9Z" transform="translate(-195.4 -211.061)" fill="#322015"/>
                      <path id="Path_3695" data-name="Path 3695" d="M221.7,226.4a7.6,7.6,0,0,0,1.1-.4C222.5,226.2,222.5,226.5,221.7,226.4Z" transform="translate(-196.7 -211.061)" fill="#322015"/>
                      <path id="Path_3696" data-name="Path 3696" d="M247.1,214c.1-.3,0-1,.4-1a5.389,5.389,0,0,0,.3,1Z" transform="translate(-247.1 -211.061)" fill="#322015"/>
                      <path id="Path_3697" data-name="Path 3697" d="M245,214.3a1.483,1.483,0,0,0,.7-.1,7.719,7.719,0,0,0-.2,1.5c-.3-.1-.3-.4-.3-.7C245.3,214.7,245.3,214.5,245,214.3Z" transform="translate(-242.9 -211.061)" fill="#322015"/>
                      <path id="Path_3698" data-name="Path 3698" d="M243.925,214.1v-.4C244.025,213.9,244.025,214,243.925,214.1Z" transform="translate(-240.125 -211.061)" fill="#322015"/>
                      <path id="Path_3699" data-name="Path 3699" d="M244.6,214.7c0,.4-.1.7-.1,1.1a9.293,9.293,0,0,1-.5-1c.1,0,.2-.1.3-.1a1.007,1.007,0,0,1,.4-.6v.8C244.7,214.8,244.7,214.6,244.6,214.7Z" transform="translate(-240.9 -211.061)" fill="#322015"/>
                      <path id="Path_3700" data-name="Path 3700" d="M243.7,214.9c0,.1-.1.2-.1.3C243.6,215.1,243.7,215,243.7,214.9Z" transform="translate(-239.5 -211.061)" fill="#322015"/>
                      <path id="Path_3701" data-name="Path 3701" d="M243.5,213.1a6.552,6.552,0,0,0,0,1.4c-.5.4-.3-1.2-.7-.8.4.9-.3.6-.6,1.2.3-.9.6-1.6,1.1-1.8v.7A1.232,1.232,0,0,1,243.5,213.1Z" transform="translate(-237.9 -211.061)" fill="#322015"/>
                      <path id="Path_3702" data-name="Path 3702" d="M241.747,214.8l-.3-1c-.1.5-.6.5-.6,1.5-.2-.2-.2-.6-.3-.9-.2.5-.3.9-.4.2.8-.6.6-.9,1.2-1.2,0-.2-.1-.2-.2-.2l.4-.5C241.647,214,242.147,214.1,241.747,214.8Z" transform="translate(-234.247 -211.061)" fill="#322015"/>
                      <path id="Path_3703" data-name="Path 3703" d="M239.681,214.1c-.3-.1-.5-1-.3-1.7l.7.8C239.881,213.2,239.581,213.1,239.681,214.1Z" transform="translate(-231.581 -211.061)" fill="#322015"/>
                      <path id="Path_3704" data-name="Path 3704" d="M238.6,214.1c.1-.5.4-1.7.6-.6C238.8,213.3,239,214.8,238.6,214.1Z" transform="translate(-230 -211.061)" fill="#322015"/>
                      <path id="Path_3705" data-name="Path 3705" d="M238.4,213.1l-.7.7c-.1,1.3.3.4.5,1-.5.3-.4-.2-.8-1-.2.1-.4-.6-.6-1C237.7,213.9,237.8,210.7,238.4,213.1Z" transform="translate(-227.4 -211.061)" fill="#322015"/>
                      <path id="Path_3706" data-name="Path 3706" d="M238,214.5l-.1-.6.3.4Z" transform="translate(-228.3 -211.061)" fill="#322015"/>
                      <path id="Path_3707" data-name="Path 3707" d="M235.1,211.7c.5-1.6.7.9,1.2.3a.756.756,0,0,0-.1-.4l.4.2v-.4c-.1.9.3,1.3.4,2.1-.5,1-.1-1.2-.5-.1a6.149,6.149,0,0,0,.1,1.4,9.006,9.006,0,0,1-.3-1.6c-.2-.1-.2.4-.3.8-.2-.6-.2-1.9-.6-1.6-.3.8.1,1.3-.4.9.3-1.5-.5.2-.6-.7a2.523,2.523,0,0,0-.6,1.7,4.432,4.432,0,0,0-.5-2.5l.6,1,.2-1.4c.5.7.7.6,1,.3Z" transform="translate(-222.5 -211.061)" fill="#322015"/>
                      <path id="Path_3708" data-name="Path 3708" d="M233.6,214.8c0,.1.1.2.1.3A.438.438,0,0,1,233.6,214.8Z" transform="translate(-219.5 -211.061)" fill="#322015"/>
                      <path id="Path_3709" data-name="Path 3709" d="M236.3,214.7l.1.3-.1.4Z" transform="translate(-224.9 -211.061)" fill="#322015"/>
                      <path id="Path_3710" data-name="Path 3710" d="M233.575,215.8c-.1,0-.1-.4,0-.4v.4Z" transform="translate(-219.275 -211.061)" fill="#322015"/>
                      <path id="Path_3711" data-name="Path 3711" d="M232.8,215l.3-.8v.7Z" transform="translate(-218.1 -211.061)" fill="#322015"/>
                      <path id="Path_3712" data-name="Path 3712" d="M225.389,216.5c-.5.3.1-.5.4-1.1C226.189,215.4,225.289,216.1,225.389,216.5Z" transform="translate(-203.289 -211.061)" fill="#322015"/>
                      <path id="Path_3713" data-name="Path 3713" d="M223.37,220.4c-.6.1,0-.5-.2-.7C223.67,219.6,223.67,220,223.37,220.4Z" transform="translate(-198.87 -211.061)" fill="#322015"/>
                      <path id="Path_3714" data-name="Path 3714" d="M223.248,223.4a.914.914,0,0,1,.5-.3c.5-.3.9-.6,1.4-.9C225.848,222.3,223.948,223.1,223.248,223.4Z" transform="translate(-200.748 -211.061)" fill="#322015"/>
                      <path id="Path_3715" data-name="Path 3715" d="M222.9,225l.5-.5.1.1c.6-.3.9-.4,1.4-.7C224.7,224.3,224.1,224.7,222.9,225Z" transform="translate(-200 -211.061)" fill="#322015"/>
                      <path id="Path_3716" data-name="Path 3716" d="M222.981,223.6a.1.1,0,0,1-.1.1C222.781,223.8,222.481,223.8,222.981,223.6Z" transform="translate(-197.881 -211.061)" fill="#322015"/>
                      <path id="Path_3717" data-name="Path 3717" d="M222.791,223.9c-.1,0-.1.1-.2.1a.31.31,0,0,0,.1-.2C222.891,223.7,222.991,223.7,222.791,223.9Z" transform="translate(-197.691 -211.061)" fill="#322015"/>
                      <path id="Path_3718" data-name="Path 3718" d="M224.4,225v.6l-.4-.1C225,225.1,223.4,225.4,224.4,225Z" transform="translate(-200.6 -211.061)" fill="#322015"/>
                      <path id="Path_3719" data-name="Path 3719" d="M222.07,227.7l1-.1c.3.4-1.8,1.1-.2,1.1-.6-.1-1.1.4-1.4,0C222.27,228.5,222.27,228,222.07,227.7Z" transform="translate(-196.77 -211.061)" fill="#322015"/>
                      <path id="Path_3720" data-name="Path 3720" d="M220.271,229a2.152,2.152,0,0,1,.8,0c.1.1-.3.3-.7.3C221.571,229.1,219.471,229.2,220.271,229Z" transform="translate(-193.372 -211.061)" fill="#322015"/>
                      <path id="Path_3721" data-name="Path 3721" d="M222.133,230.9c0-.1.1-.3.4-.1,0,.4-1.2.3-1.9.5C220.033,231,221.633,230.7,222.133,230.9Z" transform="translate(-195.233 -211.061)" fill="#322015"/>
                      <path id="Path_3722" data-name="Path 3722" d="M214.153,234c-.9-.1-.7-.4-.4-.5C213.553,233.6,213.753,233.8,214.153,234Z" transform="translate(-179.853 -211.061)" fill="#322015"/>
                      <path id="Path_3723" data-name="Path 3723" d="M219.7,233.8l-.2-.1,1.4-.1Z" transform="translate(-192.6 -211.061)" fill="#322015"/>
                      <path id="Path_3724" data-name="Path 3724" d="M222.4,235.9l-.9.2.2-.4Z" transform="translate(-196.1 -211.061)" fill="#322015"/>
                      <path id="Path_3725" data-name="Path 3725" d="M221.775,236.3l-.1.4-.3-.2C221.075,236.3,221.775,236.5,221.775,236.3Z" transform="translate(-195.275 -211.061)" fill="#322015"/>
                      <path id="Path_3726" data-name="Path 3726" d="M221.4,237.4c.1,0,0-.1-.2-.1l.6-.3Z" transform="translate(-195.2 -211.061)" fill="#322015"/>
                      <path id="Path_3727" data-name="Path 3727" d="M216.945,244.1c.9.1.3.3.4.5C217.145,244.6,216.045,244.2,216.945,244.1Z" transform="translate(-186.245 -211.061)" fill="#322015"/>
                    </g>
                  </g>
                </g>
              </g>
            </g>
            <path id="Path_3729" data-name="Path 3729" d="M364.553,205.3s-16.8,17.8-56.5,40.7l-23.7,42.1a17.244,17.244,0,0,1,7.9,12.2h-15.6s-.3-24.2,2.1-28.9c2.3-4.7,22.5-36.8,22.5-36.8s40.3-31.6,42-33.5S370.353,196.8,364.553,205.3Z" transform="translate(-253.453 -77.4)" fill="#fff0dd"/>
            <g id="Group_941" data-name="Group 941" transform="translate(23.188 121.87)">
              <g id="Group_940" data-name="Group 940" transform="translate(0)" opacity="0.88" clip-path="url(#clip-path-2)">
                <g id="Group_939" data-name="Group 939" transform="translate(50.412 3.424)">
                  <g id="Group_938" data-name="Group 938" transform="translate(0)">
                    <g id="Group_937" data-name="Group 937" transform="translate(0)">
                      <path id="Path_3730" data-name="Path 3730" d="M297.325,206.5v.3Q297.475,206.8,297.325,206.5Z" transform="translate(-279.725 -202.694)" fill="#322015"/>
                      <path id="Path_3731" data-name="Path 3731" d="M286.5,204.1h0v0Z" transform="translate(-258 -202.694)" fill="#322015"/>
                      <path id="Path_3732" data-name="Path 3732" d="M286.466,204l.1-.4C286.366,203.8,286.366,203.9,286.466,204Z" transform="translate(-257.966 -202.694)" fill="#322015"/>
                      <path id="Path_3733" data-name="Path 3733" d="M297,209.2v0Z" transform="translate(-279 -202.694)" fill="#322015"/>
                      <path id="Path_3734" data-name="Path 3734" d="M295.2,210.1a.1.1,0,0,0,.1.1Z" transform="translate(-275.5 -202.694)" fill="#322015"/>
                      <path id="Path_3735" data-name="Path 3735" d="M306.1,212a.1.1,0,0,0-.1-.1Z" transform="translate(-297.1 -202.694)" fill="#322015"/>
                      <path id="Path_3736" data-name="Path 3736" d="M306.156,213a.1.1,0,0,0-.1.1l.1.1C306.256,213.3,306.156,213.1,306.156,213Z" transform="translate(-297.256 -202.694)" fill="#322015"/>
                      <path id="Path_3737" data-name="Path 3737" d="M305.6,213.1l-.1.1C305.6,213.2,305.6,213.2,305.6,213.1Z" transform="translate(-296.1 -202.694)" fill="#322015"/>
                      <path id="Path_3738" data-name="Path 3738" d="M305.1,219.7l.3.3Q305.25,219.7,305.1,219.7Z" transform="translate(-295.5 -202.694)" fill="#322015"/>
                      <path id="Path_3739" data-name="Path 3739" d="M306.075,211.6c0,.1.1.2.1.3C306.175,211.8,306.275,211.7,306.075,211.6Z" transform="translate(-297.275 -202.694)" fill="#322015"/>
                      <path id="Path_3740" data-name="Path 3740" d="M297.3,206.4c0,.1,0,.1.1.2A.31.31,0,0,1,297.3,206.4Z" transform="translate(-279.7 -202.694)" fill="#322015"/>
                      <path id="Path_3741" data-name="Path 3741" d="M297.556,209.5h0C297.656,209.4,297.556,209.4,297.556,209.5Z" transform="translate(-280.156 -202.694)" fill="#322015"/>
                      <path id="Path_3742" data-name="Path 3742" d="M282.1,203.8c.1,0,.2-.1.3-.1C282.2,203.6,282.1,203.7,282.1,203.8Z" transform="translate(-249.5 -202.694)" fill="#322015"/>
                      <path id="Path_3743" data-name="Path 3743" d="M283.3,210.7c.8.8-.3.3.5,1.1,0-.3,0-.6.4-.2.3.6-.3.2.2,1v-.5c.5.2.8.9.8.8-.7-1.1,1-.2,1-.5v.2l.7.2v.1c0-.1-.1-.1-.1-.2.5.4,1,.6,1.2.2-.4-.7.7-.8.4-1.4a.265.265,0,0,1-.3.3l-.5-.7c.3-.2.5.6.4,0-.8-.9-.4.3-.6.3-.1-.3-.2-.5-.1-.7-.4.2-1,.2-.5,1.3a.868.868,0,0,1-.5-.7c.2.8-.6-.4-.4.3-.6-.9.2-.9,0-1.6.9.4.8-.6,1.2-1,.5.7.6,1.4,1.1,1.7.7.2.1-.6.1-1.2.4.1.8,1.1,1.2.9v.6c.9.8,0-.5.3-.5-.2-.2-.4-.5-.6-.3a.5.5,0,0,1-.1-.7H289c-.2-.5-.5-1.1-.1-1,.2.7.5.3.7.5v.2c.1-.3.4-.4.4-.5l.1.2c0-.3-.3-1.1,0-1.1.1.3.3,1.3.5,1,.2.5,0,.7-.4.6.3,0,.8.7.6.9.4.5.1-.4.4-.2l-.3-.6c.4.8.6-.2.3-.8v.6c-.4-.6-.2-1.2-.5-1.5.6.9.5-.9,1.1-.1l-.3-.5c.7,0,.8-1.4,1.3-1.9-.1.4.3,1.6-.2,1.3.7,0,.6,1.1,1,1.5.6.2-.2-1.2-.2-1.6l-.2.3c-.1-1.5,1.3-.1,1.7-1.2.2.3-.1.2-.1.4.5.6.2-.2.3-.6.4,0,.8.3.8,1.2.4.1-.2-.5-.1-.8l.1.2.1-1.1a2.371,2.371,0,0,1,1.1,1.4c.6-.3-.2-2,.3-2.4.4.4.1.7.1,1l.4-.2c0,1-.4.6-.2,1.7.2-1.2.4-.4.8-1.3V205c.1-.8.7-.3,1-.5-.1.5-.4.6-.6.8.4.4,1.2-.1,1.4-1.2.2.2.7.6.4,1,.7.1.2-1.5.8-1.2v.8c.7,1.1,1.3-1,1.9,0l.1-1c.1.4.4.6.4,1l-.3.3c.2.8.3-.8.6-.2,0-.3-.2-.9-.2-1.3-.7.3-1.3,0-2-.1a2.356,2.356,0,0,0-2,.3c.1.1.1.2.1.4-.2-.2-.4.1-.4-.5v-.1c-.3.3-.8-.9-1-.8-.1.7-.8-.2-.5.9l-.3-.7a4.744,4.744,0,0,1,0,1.2c-.3,0-.3-.5-.2-.8a4.3,4.3,0,0,0-1.6,0,6.109,6.109,0,0,0-1.4.7l.1-.6c-.3-.2-.6,1.1-.8-.2-.3.7-1.4.1-1,1.4-.8-1.2-1.3-.1-1.9.3.6,1-.4.5-.3,1.1-.5-.8.1-1.1-.1-1.7,0,.8-.6.8-1,.8-.5.1-.8.3-.4,1.4a.215.215,0,0,1-.2-.2c-.1.1-.5-.2-.6-.2.1.4.5.4.3.7-.3,0-.5-.6-.7-.8-.2.7-.7,1.3-.2,2.2-.3-.1-.7-.5-.7-.7-.2,1-.7.3-1,1.1.2-.2-.5-.9.1-.8-1-.9-.8.9-1.7.7l.3.8c-.2.3-.7-.3-.7-.7-.8,0-.8.6-1.1,1-.1-.1-.2-.2-.1-.2a1.205,1.205,0,0,0-.5.5,3.043,3.043,0,0,0,.6,1.1C282.9,211,282.8,210.7,283.3,210.7Z" transform="translate(-271.7 -202.694)" fill="#322015"/>
                      <path id="Path_3744" data-name="Path 3744" d="M303.5,211.4Z" transform="translate(-292 -202.694)" fill="#322015"/>
                      <path id="Path_3745" data-name="Path 3745" d="M296.9,210.7a1.237,1.237,0,0,1-.3-.2C296.7,210.6,296.8,210.7,296.9,210.7Z" transform="translate(-278.5 -202.694)" fill="#322015"/>
                      <path id="Path_3746" data-name="Path 3746" d="M308.907,217.1c1,.8.1-.4.6-.4,0,.3.6.8.9,1-1.1-1.4.5-.1.7-.8.4.4.3.6.7,1.1-.1-.5.1-1.1-.6-1.7.4-.4.9-.5,1-.9,0,.6.6.7,1,1.5-.5-1-.8-2.6-1.3-4a7.107,7.107,0,0,1,1.5,1.5c1,0-.5-.8.2-1.1l-.3.1a4.413,4.413,0,0,0-1-1.7l-.5.7c-.5-.5,0-.8-.1-1-.4-.8-.7-.1-1.1-.7.3.5-.1.6,0,.9l-.3-.2c-.6,0,0,.8-.3,1.1-.1-.1-.2-.1-.2-.2a3.445,3.445,0,0,1,.5,1.1l.1-.1c.5.8.4,1.7,1.4,2.1l-.7.4c-.7-.7-1.7-1.9-1.4-2.3l-.3-.3c-.7-.1-.1,1.3.7,1.7,1.6,1.9-.8,1-.4,2.1-.5-.4-.5-.8-.8-1.2.1-.2.1-.3.6.1.2-.8-1.7-1.3-.9-1.8.5-.1.4,1.1.9.7l-1-1.6a2.375,2.375,0,0,0-.3,1.2,2.592,2.592,0,0,1-1.8,2.4,68.177,68.177,0,0,1-4.3,5.6c-.3.6-.5.7.3,2.3.3.2.6-.2.9.4-.3-.6-.4-1,0-1.2.5.5-.1.5.1.5h.1c.2.3.3.5.2.6,1,.5,1.6-.3.9-1.5.7.2.5.9.7,1.4a8.059,8.059,0,0,0,2.8-2.3c-.9-.8-.5-.6-.9-1.2l.4.2c-.2-.1-.7-.7-1-.7,1.2,0-.6-1.7-.6-2.4l.4.4a1.689,1.689,0,0,0,.3-1c1.3.2-.2.6,1,1.4l-.1-.3a8.347,8.347,0,0,1,1.2,1.6c-.3-1.1.9-.5.8-1.5a1.981,1.981,0,0,1,.4,1.5c.2-.1.1-.8.6-.4l-.6-.6c.2-.4.6.5,1.1.8C311.207,219,308.707,218,308.907,217.1Z" transform="translate(-300.607 -202.694)" fill="#322015"/>
                      <path id="Path_3747" data-name="Path 3747" d="M299.3,210.4a.215.215,0,0,0-.2.2C299.2,210.5,299.3,210.5,299.3,210.4Z" transform="translate(-283.4 -202.694)" fill="#322015"/>
                      <path id="Path_3748" data-name="Path 3748" d="M299.4,212.8c.1.1.1.2.2.3C299.5,213,299.5,212.9,299.4,212.8Z" transform="translate(-284 -202.694)" fill="#322015"/>
                      <path id="Path_3749" data-name="Path 3749" d="M299.432,213.8c-.3-.3-.2-.3-.4-.8C299.032,213.3,298.832,213.5,299.432,213.8Z" transform="translate(-283.432 -202.694)" fill="#322015"/>
                      <path id="Path_3750" data-name="Path 3750" d="M270.6,210.3c.1-.2.5-.4.5-.6l-.4.2Z" transform="translate(-226.7 -202.694)" fill="#322015"/>
                      <path id="Path_3751" data-name="Path 3751" d="M272.4,209.2l-.3-.4-.6,1C271.9,209.9,272,209.1,272.4,209.2Z" transform="translate(-228.9 -202.694)" fill="#322015"/>
                      <path id="Path_3752" data-name="Path 3752" d="M272.1,208.3l.2-.2C272.1,208.1,272.1,208.2,272.1,208.3Z" transform="translate(-229.4 -202.694)" fill="#322015"/>
                      <path id="Path_3753" data-name="Path 3753" d="M272.7,208.7l-.4.7.6-.4-.1-.2c.1-.3,0-.4,0-.6l-.3.5C272.6,208.8,272.7,208.6,272.7,208.7Z" transform="translate(-230.2 -202.694)" fill="#322015"/>
                      <path id="Path_3754" data-name="Path 3754" d="M272.9,208.7v0Z" transform="translate(-230.8 -202.694)" fill="#322015"/>
                      <path id="Path_3755" data-name="Path 3755" d="M273.24,206.9c0,.3-.3.7-.4,1,.3.4.6-.8.8-.3-.7.5,0,.5.1,1,.1-.8.1-1.3-.2-1.6l-.2.5C273.14,207.5,273.34,207.2,273.24,206.9Z" transform="translate(-231.64 -202.694)" fill="#322015"/>
                      <path id="Path_3756" data-name="Path 3756" d="M274.182,207.7l.5-.7c0,.4.4.5.2,1.3.2-.1.3-.4.5-.6,0,.4,0,.7.3.2-.6-.7-.3-.8-.9-1.2.1-.2.1-.1.2-.1l-.3-.5C274.483,207.1,273.883,207,274.182,207.7Z" transform="translate(-234.783 -202.694)" fill="#322015"/>
                      <path id="Path_3757" data-name="Path 3757" d="M275.684,207c.3,0,.7-.7.6-1.2l-.8.5C275.684,206.3,275.984,206.3,275.684,207Z" transform="translate(-236.784 -202.694)" fill="#322015"/>
                      <path id="Path_3758" data-name="Path 3758" d="M277,206.9c0-.4-.1-1.3-.5-.6C276.9,206.3,276.5,207.4,277,206.9Z" transform="translate(-238.5 -202.694)" fill="#322015"/>
                      <path id="Path_3759" data-name="Path 3759" d="M277.1,205.8l.6.6c0,1-.4.3-.6.7.5.3.4-.1.9-.6.1.1.5-.4.7-.6C277.7,206.4,278,204,277.1,205.8Z" transform="translate(-240.8 -202.694)" fill="#322015"/>
                      <path id="Path_3760" data-name="Path 3760" d="M277.7,207l.1-.4-.3.2Z" transform="translate(-240.3 -202.694)" fill="#322015"/>
                      <path id="Path_3761" data-name="Path 3761" d="M280.7,204.4c-.3-1.2-.8.6-1.2.1.1-.1,0-.2.1-.3l-.4.1V204c0,.7-.4,1-.6,1.5.3.8.2-.9.5,0-.1.3-.2.8-.3,1.1.2-.3.3-.8.5-1.2.3-.1.1.3.1.6.3-.4.4-1.4.8-1.2.2.7-.3,1,.2.8-.1-1.2.5.2.7-.5a1.436,1.436,0,0,1,.3,1.4,2.74,2.74,0,0,1,.8-1.8l-.7.7-.1-1.1c-.2.5-.4.4-.7.1Z" transform="translate(-245.8 -202.694)" fill="#322015"/>
                      <path id="Path_3762" data-name="Path 3762" d="M282.1,206.6c0,.1-.1.1-.1.2A.349.349,0,0,0,282.1,206.6Z" transform="translate(-249.1 -202.694)" fill="#322015"/>
                      <path id="Path_3763" data-name="Path 3763" d="M279.4,206.9l-.2.2.1.3Z" transform="translate(-243.6 -202.694)" fill="#322015"/>
                      <path id="Path_3764" data-name="Path 3764" d="M282.325,207.3c.1,0,.1-.3,0-.3l-.1.5Z" transform="translate(-249.625 -202.694)" fill="#322015"/>
                      <path id="Path_3765" data-name="Path 3765" d="M282.9,206.6l-.2-.6-.1.5Z" transform="translate(-250.5 -202.694)" fill="#322015"/>
                      <path id="Path_3766" data-name="Path 3766" d="M290.239,206.8c.3.3.1-.4.1-.9C289.839,205.8,290.439,206.5,290.239,206.8Z" transform="translate(-265.539 -202.694)" fill="#322015"/>
                      <path id="Path_3767" data-name="Path 3767" d="M293.9,209.3c.4.3.4-.4.6-.5C294.2,208.5,293.9,208.8,293.9,209.3Z" transform="translate(-273.4 -202.694)" fill="#322015"/>
                      <path id="Path_3768" data-name="Path 3768" d="M295.8,212.3c-.1-.2-.1-.4-.2-.4l-.4-1.2C294.6,210.5,295.5,211.8,295.8,212.3Z" transform="translate(-275.802 -202.694)" fill="#322015"/>
                      <path id="Path_3769" data-name="Path 3769" d="M297.234,213.6V213l-.2.1a7.6,7.6,0,0,1-.4-1.1C296.534,212.3,296.634,212.8,297.234,213.6Z" transform="translate(-278.834 -202.694)" fill="#322015"/>
                      <path id="Path_3770" data-name="Path 3770" d="M297.114,211.5a.1.1,0,0,1-.1.1C297.114,211.8,297.314,211.9,297.114,211.5Z" transform="translate(-279.215 -202.694)" fill="#322015"/>
                      <path id="Path_3771" data-name="Path 3771" d="M297.241,211.8v.1c0-.1,0-.2.1-.2C297.241,211.6,297.141,211.5,297.241,211.8Z" transform="translate(-279.541 -202.694)" fill="#322015"/>
                      <path id="Path_3772" data-name="Path 3772" d="M297.495,213.2c-.1.2-.3.3-.4.5l.3.1C296.995,213.1,297.9,213.9,297.495,213.2Z" transform="translate(-279.695 -202.694)" fill="#322015"/>
                      <path id="Path_3773" data-name="Path 3773" d="M301.4,214.7l-.6-.5c-.4.2.4,1.7-.7,1,.5.2.4.9.9.7A.822.822,0,0,1,301.4,214.7Z" transform="translate(-286.5 -202.694)" fill="#322015"/>
                      <path id="Path_3774" data-name="Path 3774" d="M302.5,215c-.1-.2-.3-.2-.5-.4-.2,0,0,.4.3.6C301.7,214.4,302.9,215.5,302.5,215Z" transform="translate(-289.497 -202.694)" fill="#322015"/>
                      <path id="Path_3775" data-name="Path 3775" d="M302.6,216.4c.1-.1.1-.3-.1-.3-.2.3.5.8.7,1.3C303.8,217.5,303.1,216.5,302.6,216.4Z" transform="translate(-290.904 -202.694)" fill="#322015"/>
                      <path id="Path_3776" data-name="Path 3776" d="M308.923,214.9c.5.4.7.1.5-.1C309.523,214.9,309.223,214.9,308.923,214.9Z" transform="translate(-303.423 -202.694)" fill="#322015"/>
                      <path id="Path_3777" data-name="Path 3777" d="M305.7,218.5h.2l-.7-.7Z" transform="translate(-296.1 -202.694)" fill="#322015"/>
                      <path id="Path_3778" data-name="Path 3778" d="M305.9,220.5l.3.7.2-.4Z" transform="translate(-297.3 -202.694)" fill="#322015"/>
                      <path id="Path_3779" data-name="Path 3779" d="M306.843,220.8l-.2.3.3.1C307.143,221.1,306.743,220.9,306.843,220.8Z" transform="translate(-298.643 -202.694)" fill="#322015"/>
                      <path id="Path_3780" data-name="Path 3780" d="M307.2,221.7c0-.1.1,0,.2,0l-.1-.5Z" transform="translate(-299.6 -202.694)" fill="#322015"/>
                      <path id="Path_3781" data-name="Path 3781" d="M314.918,222.9c-.3-.6-.3-.1-.5-.1C314.618,222.9,315.218,223.5,314.918,222.9Z" transform="translate(-314.418 -202.694)" fill="#322015"/>
                    </g>
                  </g>
                </g>
              </g>
            </g>
            <path id="Path_3783" data-name="Path 3783" d="M334.286,95.2s.7-17.8-1.6-17.8-11.1,18.2-14.5,23.2-12.2,16.3-19.3,25c-7,8.7-20.7,24.7-40.5,28s-61.8,4.5-78,10.2-31.5,20.3-37.1,35.2c-5.7,14.9-13.1,34.8-28,44.4,0,0,21.3,4.9,37.5-12.4,0,0-1.2,6.9-1.4,8.5-.3,1.6-9.3,14.2-9.9,15.4-.7,1.2-7.7,30.1-7.9,31.5-.3,1.4,2.1,14.1,2.1,14.1h13.2c.7,0-1.8-9.3-7-12.1,0,0,9.4-24,10.4-25.4s16.5-16,17.6-16.8c1-.8,27.5-14,39.4-40.8,0,0,7.6-2.2,25.8,1.6,18.2,3.7,43.6,8.2,48.9,8.2,0,0-2.2,64.7-1.8,66.7s7.8,18.7,7.8,18.7h14.6c1.3,0-1.5-8.5-10.6-15.8,0,0,8.2-39.7,9.4-44.6s10-27.6,10-27.6,21.9-5.1,32.1-26.2,1.6-36.9,4.7-51.4c0,0,22.6-8.7,27.3-11.1,4.7-2.3,15.1-8.5,9.5-19,0,0-22.8,2.5-24.5,2.2s-5.9-6.3-11.1-8.3C345.986,96.5,334.286,95.2,334.286,95.2Z" transform="translate(-115.286 -77.4)" fill="#fff0dd"/>
            <path id="Path_3784" data-name="Path 3784" d="M301.6,300.3c.7,0-1.8-9.3-7-12.1,0,0,9.4-24,10.4-25.4s16.5-16,17.6-16.8c1-.8,27.5-14,39.4-40.8" transform="translate(-268 -77.4)" fill="none" stroke="#1b1c1e" stroke-linecap="round" stroke-linejoin="round" stroke-miterlimit="10" stroke-width="1.26"/>
            <path id="Path_3785" data-name="Path 3785" d="M215.849,215s-2.2,64.7-1.8,66.7,7.8,18.7,7.8,18.7" transform="translate(-47.249 -77.4)" fill="none" stroke="#1b1c1e" stroke-linecap="round" stroke-linejoin="round" stroke-miterlimit="10" stroke-width="1.26"/>
            <path id="Path_3786" data-name="Path 3786" d="M183.3,212.2c-.7,7.7-1.8,18.7-1.8,18.7s-.3,1.6-.6,3.4c19.5,3.5,30.3-16.5,35.6-24.7s14.1-25.2,34.4-23.1c20.3,2.2,35.8,19.9,61.6,14.5,25.8-5.5,35.1-25.3,35.1-25.3.5,3.1-.5,8.5-.5,8.5,27-20.7,20.2-47.7,18.9-53.8s-2-13.8.7-15c2.7-1.3,5.1-1.5,6.4-3.9,1.2-2.3-1-9,2.3-10.8a9.533,9.533,0,0,1,6.8-.7,11.879,11.879,0,0,0-2.5-1.3c-5.2-2.1-16.9-3.4-16.9-3.4s.7-17.8-1.6-17.8c-2.4,0-11.1,18.2-14.5,23.2s-12.2,16.3-19.3,25c-7,8.7-20.7,24.7-40.5,28-19.7,3.3-61.8,4.5-78,10.2s-31.5,20.3-37.1,35.2c-4.8,12.5-10.8,28.6-21.5,39.1C171.3,235.4,180.3,219.1,183.3,212.2Z" transform="translate(-143.9 -77.4)" fill="#5f6c72"/>
            <path id="Path_3787" data-name="Path 3787" d="M205.4,300.3a13.335,13.335,0,0,0-1.8-4.2" transform="translate(-20.4 -77.4)" fill="none" stroke="#1b1c1e" stroke-linecap="round" stroke-linejoin="round" stroke-miterlimit="10" stroke-width="1.26"/>
            <path id="Path_3788" data-name="Path 3788" d="M360.4,300.3a13.335,13.335,0,0,0-1.8-4.2" transform="translate(-330.4 -77.4)" fill="none" stroke="#1b1c1e" stroke-linecap="round" stroke-linejoin="round" stroke-miterlimit="10" stroke-width="1.26"/>
            <line id="Line_3" data-name="Line 3" y1="10.4" x2="0.4" transform="translate(168.6 127.2)" fill="none" stroke="#1b1c1e" stroke-linecap="round" stroke-linejoin="round" stroke-miterlimit="10" stroke-width="1.26"/>
            <path id="Path_3789" data-name="Path 3789" d="M123.055,107.6a3.53,3.53,0,0,1-2.7,3.9,2.462,2.462,0,0,1-1.2.1c-3.2-.2-4.3-4.8-3.9-6.5.1-.6,5.9-1,6.3-1C121.855,104.1,122.755,105.5,123.055,107.6Z" transform="translate(150.344 -77.4)" fill="#1b1c1e" stroke="#1b1c1e" stroke-linecap="round" stroke-linejoin="round" stroke-miterlimit="10" stroke-width="1.533"/>
            <path id="Path_3790" data-name="Path 3790" d="M139.9,117.9s-2.3,2-8.5,3.8-9.3,2.2-10.4,2.7a10.233,10.233,0,0,0-2.5,2.1" transform="translate(130.2 -77.4)" fill="none" stroke="#1b1c1e" stroke-linecap="round" stroke-linejoin="round" stroke-miterlimit="10" stroke-width="1.26"/>
            <path id="Path_3791" data-name="Path 3791" d="M348.8,230.9S350.6,213,351,207" transform="translate(-311.2 -77.4)" fill="none" stroke="#1b1c1e" stroke-linecap="round" stroke-linejoin="round" stroke-miterlimit="10" stroke-width="1.26"/>
            <path id="Path_3792" data-name="Path 3792" d="M291.9,205.2a43.466,43.466,0,0,0,2.8-10.8" transform="translate(-198 -77.4)" fill="none" stroke="#1b1c1e" stroke-linecap="round" stroke-linejoin="round" stroke-miterlimit="10" stroke-width="1.26"/>
            <ellipse id="Ellipse_43" data-name="Ellipse 43" cx="2" cy="1.6" rx="2" ry="1.6" transform="translate(237.551 33.822) rotate(-115.658)" fill="#1b1c1e"/>
            <g id="Group_946" data-name="Group 946" transform="translate(223.442 57.5)">
              <g id="Group_945" data-name="Group 945" transform="translate(0)" opacity="0.88" clip-path="url(#clip-path-3)">
                <g id="Group_944" data-name="Group 944" transform="translate(-7.342 -0.9)">
                  <g id="Group_943" data-name="Group 943" transform="translate(0)">
                    <g id="Group_942" data-name="Group 942" transform="translate(0)">
                      <path id="Path_3793" data-name="Path 3793" d="M160.3,136.3l.1.1Z" transform="translate(-148.2 -134)" fill="#322015"/>
                      <path id="Path_3794" data-name="Path 3794" d="M164.9,137.5Z" transform="translate(-157.3 -134)" fill="#322015"/>
                      <path id="Path_3795" data-name="Path 3795" d="M165,137.5l-.1-.2C165,137.4,165,137.4,165,137.5Z" transform="translate(-157.4 -134)" fill="#322015"/>
                      <path id="Path_3796" data-name="Path 3796" d="M159.5,137.3c.1,0,.1.1.2.2Z" transform="translate(-146.7 -134)" fill="#322015"/>
                      <path id="Path_3797" data-name="Path 3797" d="M160.056,138c.1.1,0,.1,0,0Z" transform="translate(-147.656 -134)" fill="#322015"/>
                      <path id="Path_3798" data-name="Path 3798" d="M156.244,135Z" transform="translate(-139.944 -134)" fill="#322015"/>
                      <path id="Path_3799" data-name="Path 3799" d="M155.825,135.2h0C155.925,135.3,155.925,135.2,155.825,135.2Z" transform="translate(-139.225 -134)" fill="#322015"/>
                      <path id="Path_3800" data-name="Path 3800" d="M155.925,135.4Z" transform="translate(-139.425 -134)" fill="#322015"/>
                      <path id="Path_3801" data-name="Path 3801" d="M153.4,136.8v0Z" transform="translate(-134.3 -134)" fill="#322015"/>
                      <path id="Path_3802" data-name="Path 3802" d="M156.3,134.8l.1.1A.1.1,0,0,1,156.3,134.8Z" transform="translate(-140.2 -134)" fill="#322015"/>
                      <path id="Path_3803" data-name="Path 3803" d="M160.4,136.2Z" transform="translate(-148.3 -134)" fill="#322015"/>
                      <path id="Path_3804" data-name="Path 3804" d="M159.444,137.2Z" transform="translate(-146.344 -134)" fill="#322015"/>
                      <path id="Path_3805" data-name="Path 3805" d="M166.8,137.7h-.1C166.8,137.6,166.8,137.6,166.8,137.7Z" transform="translate(-161 -134)" fill="#322015"/>
                      <path id="Path_3806" data-name="Path 3806" d="M165.6,135.6c.1.5.2,0,.3.4-.1-.1-.2-.1-.2.1.1.2.2-.1.3.3l-.2-.1a2.034,2.034,0,0,0,.1.5c-.2-.5-.3.3-.5.2h.1l-.1.3h0v-.1c0,.3-.1.5-.3.5-.1-.3-.5,0-.6-.2.1.1.1.1.2,0l-.1-.4c-.1,0,.1.3-.1.2-.1-.5.2,0,.3-.1-.1-.1-.1-.2-.2-.2.2-.1.4-.3.6.2a.6.6,0,0,0-.1-.4c.2.3,0-.3.2-.1-.1-.5-.4-.2-.5-.4-.1.4-.4.1-.7.1.1.3.3.6.2.8-.2.3-.2-.1-.4-.3-.1.2.1.6-.1.6l.2.2c0,.5-.2-.2-.3,0,0-.1,0-.3.1-.3,0-.2-.1-.2-.2-.2h0c-.1-.2-.2-.5-.3-.3.2.3-.1.2-.1.4l.1.1c-.1-.1-.2,0-.3,0v.1c-.1-.1-.2-.4-.3-.3,0,.1.3.5.1.5.1.2.2.2.3.1-.1.1-.1.5.1.5,0,.3-.2-.1-.2.1a.367.367,0,0,0-.1-.3c.1.4-.3.1-.3-.2l.2.2c0-.3-.3-.5-.2-.6,0,.5-.4-.2-.4.3v-.3c-.3.2-.6-.3-.9-.3.1.1.2.6.4.4-.3.2,0,.5,0,.8-.2.2-.2-.5-.3-.6l.2.1c-.3-.6-.5.2-.9-.1,0,.2.1.1.1.1-.1.3-.1,0-.2-.1-.1.1-.3.2-.1.6-.1.1,0-.2-.1-.3v.1l-.2-.4a1.165,1.165,0,0,0-.2.7c-.3,0-.3-.8-.5-.9-.1.2.1.3.1.4h-.2c.1.4.3.2.3.7-.3-.5-.3-.1-.5-.4h0c-.2-.3-.4,0-.5-.1.1.2.2.2.3.2-.1.2-.5.1-.7-.3-.1.1-.2.3-.1.4-.3.1-.2-.6-.5-.4l.1.3c-.2.5-.6-.3-.8.1l-.1-.4c0,.2-.1.3-.1.4l.2.1c-.1.4-.2-.3-.3,0,0-.1.1-.4,0-.5.6.2,1.1-.5,1.7-.2v.2c0-.1.2,0,.1-.2h0c.2.1.2-.4.3-.5.1.3.3-.2.3.3v-.3c.1.2.1.4.2.5a.187.187,0,0,0,0-.3,1.481,1.481,0,0,1,1.3-.2l-.1-.2c.1-.1.4.3.2-.2.2.2.5-.3.6.3,0-.6.4-.3.7-.3,0,.5.3.1.4.3,0-.4-.3-.3-.4-.6.4.5.7-.6,1,.4V137c.1,0,.1-.2.1-.2.1.2,0,.3.1.3.1-.1,0-.3,0-.5.2.2.6.2.7.6,0-.1.1-.4,0-.4.4.2.3-.1.7,0-.1,0-.1-.4-.3-.2,0-.6.5,0,.7-.3l.2.3c.2,0,.1-.3,0-.4.2-.3.4-.1.6-.1a.1.1,0,0,0-.1-.1l.3-.1c0,.1.2.2.2.5C165.8,135.6,165.7,135.5,165.6,135.6Z" transform="translate(-150.4 -134)" fill="#322015"/>
                      <path id="Path_3807" data-name="Path 3807" d="M157,135.8h0Z" transform="translate(-141.6 -134)" fill="#322015"/>
                      <path id="Path_3808" data-name="Path 3808" d="M159.4,137.9v0Z" transform="translate(-146.3 -134)" fill="#322015"/>
                      <path id="Path_3809" data-name="Path 3809" d="M152.87,135.8c.1.6-.2-.1-.3.1a1.056,1.056,0,0,1,.2.5c-.3-.7-.2.2-.5.1,0,.2.2.2.3.5a1.134,1.134,0,0,1-.6-.6c-.3,0-.4.2-.6.2.2.1.1.4.3.7-.3-.4-.8-.9-1.2-1.4.1.4.1.5.2.9-.3.4-.2-.4-.4-.2l.1-.1c-.2-.1-.3-.5-.4-.8h.4c-.1-.3-.3-.2-.4-.3-.2-.3.1-.3,0-.6.1.2.2.1.3.2v-.2c.1-.2.3.2.4.1v-.1c.1.2.2.4.3.4h-.1c.2.4.6.5.4,1l.3-.2c-.1-.4-.3-1-.5-1l-.1-.2c.1-.3.5.2.5.6.4,1,.5-.1.9.3a.623.623,0,0,0-.3-.5c-.1,0-.1,0-.1.2-.4-.1-.1-.9-.5-.7-.2.2.3.4.1.5l-.4-.7a4.331,4.331,0,0,1,.5.1,1.148,1.148,0,0,0,1.3-.2c1.1-.1,2.3-.3,3.4-.4.4,0,.5,0,.8.7,0,.2-.3.1-.2.4-.1-.3-.2-.4-.4-.3,0,.3.2.1.2.2h0a.215.215,0,0,0,.2.2c-.1.5-.5.4-.8-.1-.1.3.2.4.3.6a3.805,3.805,0,0,1-1.5.5c-.1-.5-.1-.3-.3-.6v.2c0-.1-.1-.4,0-.5-.3.4-.5-.6-.8-.7l.2.4a.9.9,0,0,1-.5-.1c-.2.5.3,0,.3.6l-.1-.1a2.994,2.994,0,0,0,.4.8c-.4-.3-.4.2-.8,0a.6.6,0,0,0,.5.4c-.1,0-.3-.1-.3.1l-.1-.3c-.2,0,.1.3.1.6C153.17,137.1,153.37,135.9,152.87,135.8Z" transform="translate(-134.57 -134)" fill="#322015"/>
                      <path id="Path_3810" data-name="Path 3810" d="M158.6,137h0Z" transform="translate(-144.8 -134)" fill="#322015"/>
                      <path id="Path_3811" data-name="Path 3811" d="M157.6,137.4v0Z" transform="translate(-142.7 -134)" fill="#322015"/>
                      <path id="Path_3812" data-name="Path 3812" d="M157.5,137.9c0-.2-.1-.2-.1-.3C157.4,137.7,157.5,137.6,157.5,137.9Z" transform="translate(-142.4 -134)" fill="#322015"/>
                      <path id="Path_3813" data-name="Path 3813" d="M172.4,139.8c0-.1-.1-.2-.1-.3l.2.1Z" transform="translate(-172.3 -134)" fill="#322015"/>
                      <path id="Path_3814" data-name="Path 3814" d="M171.7,139.4l.2-.1.1.5C171.8,139.8,171.9,139.5,171.7,139.4Z" transform="translate(-171.2 -134)" fill="#322015"/>
                      <path id="Path_3815" data-name="Path 3815" d="M171.4,139.2v0Z" transform="translate(-170.3 -134)" fill="#322015"/>
                      <path id="Path_3816" data-name="Path 3816" d="M171.4,139.4l.1.4-.2-.3.1-.1c-.1-.1,0-.1,0-.2v.2Z" transform="translate(-170.3 -134)" fill="#322015"/>
                      <path id="Path_3817" data-name="Path 3817" d="M171.275,139.4v.1C171.175,139.5,171.175,139.4,171.275,139.4Z" transform="translate(-169.975 -134)" fill="#322015"/>
                      <path id="Path_3818" data-name="Path 3818" d="M171.1,138.8a4.331,4.331,0,0,1,.1.5c-.2.1-.2-.4-.3-.2.2.3-.1.2-.2.4.1-.3.1-.6.3-.7v.2C171.1,139,171,138.9,171.1,138.8Z" transform="translate(-169.4 -134)" fill="#322015"/>
                      <path id="Path_3819" data-name="Path 3819" d="M170.617,139.3l-.2-.3c0,.2-.2.2-.2.5-.1,0-.1-.2-.2-.3-.1.2-.1.3-.2.1.3-.2.2-.3.5-.4,0-.1,0-.1-.1,0l.2-.2C170.617,139,170.817,139,170.617,139.3Z" transform="translate(-168.017 -134)" fill="#322015"/>
                      <path id="Path_3820" data-name="Path 3820" d="M169.739,139c-.2,0-.3-.3-.2-.5l.3.2S169.639,138.7,169.739,139Z" transform="translate(-166.839 -134)" fill="#322015"/>
                      <path id="Path_3821" data-name="Path 3821" d="M169.2,139c0-.2.1-.6.2-.2C169.3,138.7,169.4,139.2,169.2,139Z" transform="translate(-166.1 -134)" fill="#322015"/>
                      <path id="Path_3822" data-name="Path 3822" d="M169,138.6l-.3.2c0,.4.2.1.3.3-.2.1-.2,0-.4-.3-.1,0-.2-.2-.3-.3C168.7,138.9,168.6,137.8,169,138.6Z" transform="translate(-164.8 -134)" fill="#322015"/>
                      <path id="Path_3823" data-name="Path 3823" d="M168.8,139.1v-.2l.1.1Z" transform="translate(-165.2 -134)" fill="#322015"/>
                      <path id="Path_3824" data-name="Path 3824" d="M167.5,138c.1-.5.4.2.5,0a.1.1,0,0,0-.1-.1h.2v-.1c0,.3.2.4.3.6-.1.3-.1-.4-.2,0,.1.1.1.3.2.4a.764.764,0,0,1-.2-.5c-.1,0-.1.2-.1.3-.1-.2-.2-.6-.4-.5-.1.3.1.4-.1.3,0-.5-.2.1-.3-.2a1.072,1.072,0,0,0-.2.6,1.207,1.207,0,0,0-.3-.8l.3.3v-.5c.2.4.3.3.4.2Z" transform="translate(-162.7 -134)" fill="#322015"/>
                      <path id="Path_3825" data-name="Path 3825" d="M166.8,138.9Z" transform="translate(-161.1 -134)" fill="#322015"/>
                      <path id="Path_3826" data-name="Path 3826" d="M168,139l.1.1-.1.2Z" transform="translate(-163.6 -134)" fill="#322015"/>
                      <path id="Path_3827" data-name="Path 3827" d="M166.644,139.2s-.1-.1,0-.1v.1Z" transform="translate(-160.744 -134)" fill="#322015"/>
                      <path id="Path_3828" data-name="Path 3828" d="M166.4,138.9l.1-.3v.2Z" transform="translate(-160.4 -134)" fill="#322015"/>
                      <path id="Path_3829" data-name="Path 3829" d="M163.1,138c-.1.2-.1-.1-.2-.3C163,137.6,162.9,138,163.1,138Z" transform="translate(-153.5 -134)" fill="#322015"/>
                      <path id="Path_3830" data-name="Path 3830" d="M161,138c-.1.2-.3,0-.4,0C160.7,137.8,160.8,137.9,161,138Z" transform="translate(-149.1 -134)" fill="#322015"/>
                      <path id="Path_3831" data-name="Path 3831" d="M159.7,138.8c-.1-.1-.1-.1,0-.2l-.2-.5C159.6,137.9,159.7,138.6,159.7,138.8Z" transform="translate(-146.7 -134)" fill="#322015"/>
                      <path id="Path_3832" data-name="Path 3832" d="M158.7,138.7l-.2-.2h.1c-.1-.2-.1-.3-.2-.5A.914.914,0,0,1,158.7,138.7Z" transform="translate(-144.6 -134)" fill="#322015"/>
                      <path id="Path_3833" data-name="Path 3833" d="M158.825,137.9h0C158.925,138,158.925,138.1,158.825,137.9Z" transform="translate(-145.225 -134)" fill="#322015"/>
                      <path id="Path_3834" data-name="Path 3834" d="M158.756,137.9c0,.1.1.1,0,0Z" transform="translate(-145.056 -134)" fill="#322015"/>
                      <path id="Path_3835" data-name="Path 3835" d="M158,138.4h.3l-.1.1C158.1,138.2,158.1,138.7,158,138.4Z" transform="translate(-143.8 -134)" fill="#322015"/>
                      <path id="Path_3836" data-name="Path 3836" d="M156.011,137.8v-.3c.2-.1.6.5.6,0,0,.2.2.3,0,.5C156.411,137.6,156.111,137.6,156.011,137.8Z" transform="translate(-140.211 -134)" fill="#322015"/>
                      <path id="Path_3837" data-name="Path 3837" d="M155.944,137.1c-.1-.1,0-.2,0-.3.1-.1.2.1.2.2C155.944,136.7,156.044,137.4,155.944,137.1Z" transform="translate(-139.544 -134)" fill="#322015"/>
                      <path id="Path_3838" data-name="Path 3838" d="M155.1,137c-.1,0-.1,0-.1-.1.2,0,.2.4.3.5C155.2,137.6,155,137.2,155.1,137Z" transform="translate(-137.8 -134)" fill="#322015"/>
                      <path id="Path_3839" data-name="Path 3839" d="M154.6,134.4c0,.3-.1.3-.2.2A.215.215,0,0,0,154.6,134.4Z" transform="translate(-136.5 -134)" fill="#322015"/>
                      <path id="Path_3840" data-name="Path 3840" d="M154.1,136.6v.1l-.2-.4Z" transform="translate(-135.5 -134)" fill="#322015"/>
                      <path id="Path_3841" data-name="Path 3841" d="M152.8,136.6l.1.3h-.2Z" transform="translate(-133.1 -134)" fill="#322015"/>
                      <path id="Path_3842" data-name="Path 3842" d="M152.5,136.5h.2v.1C152.6,136.7,152.6,136.5,152.5,136.5Z" transform="translate(-132.7 -134)" fill="#322015"/>
                      <path id="Path_3843" data-name="Path 3843" d="M152.4,136.5h0l-.2-.1Z" transform="translate(-132.1 -134)" fill="#322015"/>
                      <path id="Path_3844" data-name="Path 3844" d="M149.687,134.2c-.1-.3.1-.1.1-.2C149.887,134.1,149.787,134.5,149.687,134.2Z" transform="translate(-126.987 -134)" fill="#322015"/>
                    </g>
                  </g>
                </g>
              </g>
            </g>
            <line id="Line_4" data-name="Line 4" y1="5" x2="2.1" transform="translate(197.9 130)" fill="none" stroke="#1b1c1e" stroke-linecap="round" stroke-linejoin="round" stroke-miterlimit="10" stroke-width="1.26"/>
          </g>
        </g>
      </g>
    </g>
    <g id="Illustration-2" data-name="Illustration" transform="translate(1331.833 278.944) rotate(180)">
      <g id="Group_931" data-name="Group 931" transform="translate(188.245 64.487)">
        <path id="Path_3539" data-name="Path 3539" d="M188.939,304.669s-3.879,1.709,6.706,2.235,66.6.789,72.388,0,16.963-.329,2.1-2.235-30.178-.789-45.169-1.907S191.174,302.7,188.939,304.669Z" transform="translate(-188.245 -145.945)" fill="#f8e17c"/>
        <g id="Group_930" data-name="Group 930" transform="translate(4.925)">
          <path id="Path_3540" data-name="Path 3540" d="M307.057,212.975s5.917-2.7,6.9-16.5-5.063-24.918-5.654-42.407,9.27-27.351,16.9-21.7-3.813,16.7-1.709,39.514c2.1,22.749,2.7,45.76-15.385,51.678A12.876,12.876,0,0,1,307.057,212.975Z" transform="translate(-233.64 -87.191)" fill="#513f3b"/>
          <path id="Path_3541" data-name="Path 3541" d="M221.691,300.44H197.5c-1.381,0-3.09-10.388,9.007-10.585s19.4,0,19.4,0Z" transform="translate(-196.007 -141.65)" fill="#513f3b"/>
          <path id="Path_3542" data-name="Path 3542" d="M202.841,303.774a4.659,4.659,0,0,1,1.183-4.274" transform="translate(-198.13 -144.984)" fill="none" stroke="#1b1c1e" stroke-miterlimit="10" stroke-width="1"/>
          <path id="Path_3543" data-name="Path 3543" d="M209.5,304.459a5.007,5.007,0,0,1,.92-2.959" transform="translate(-200.45 -145.669)" fill="none" stroke="#1b1c1e" stroke-miterlimit="10" stroke-width="1"/>
          <path id="Path_3544" data-name="Path 3544" d="M213.333,75.278s-8.021-11.835-13.215-10.717-5.917,25.51-1.381,27.022C203.207,93.161,213.333,75.278,213.333,75.278Z" transform="translate(-195.735 -64.487)" fill="#513f3b"/>
          <path id="Path_3545" data-name="Path 3545" d="M258.3,78.456s10.585-7.627,17.029-7.167c6.509.394-.132,19.593-4.931,24.524S258.3,78.456,258.3,78.456Z" transform="translate(-217.165 -66.81)" fill="#513f3b"/>
          <path id="Path_3546" data-name="Path 3546" d="M208.051,120.951a23.253,23.253,0,0,1-9.862-16.042C196.809,94.06,201.74,76.9,225.409,76.9s28.14,19.79,26.431,29.981c-1.578,9.665-6.443,12.689-6.443,12.689s5.26,11.9,7.89,18.87a35.266,35.266,0,0,1,2.235,17.357,243.5,243.5,0,0,1,12.821,21.434c4.734,9.336,8.679,32.742,4.405,48.588a2.388,2.388,0,0,1-2.3,1.775H208.183c-5.523,0-11.966-9.073-6.9-45.037,0,0-2.63-6.18-.329-19S208.051,120.951,208.051,120.951Z" transform="translate(-196.503 -68.739)" fill="#ffe6bd"/>
          <path id="Path_3547" data-name="Path 3547" d="M278.443,299.732H244.255c-3.353-8.744,6.838-12.032,12.032-12.032H269.5s4.931.2,7.035,3.616A12.823,12.823,0,0,1,278.443,299.732Z" transform="translate(-212.127 -140.942)" fill="#513f3b"/>
          <path id="Path_3548" data-name="Path 3548" d="M216.1,229.527a27.7,27.7,0,0,1-6.246,3.287,4.506,4.506,0,0,1-4.865-1.183,17.019,17.019,0,0,1-2.761-4.339s-1.709-4.011-1.183-12.229c0,0,.2-5.391,7.692-7.035,5.589-1.249,8.613,1.446,8.613,1.446-.131,1.052-.329,2.1-.526,3.287-.657,3.945.132,10.783.526,13.939A3.049,3.049,0,0,1,216.1,229.527Z" transform="translate(-197.52 -113.54)" fill="#513f3b"/>
          <path id="Path_3549" data-name="Path 3549" d="M213.3,143.9a8.4,8.4,0,0,0,1.381.723" transform="translate(-201.752 -91.688)" fill="none" stroke="#1b1c1e" stroke-miterlimit="10" stroke-width="1"/>
          <path id="Path_3550" data-name="Path 3550" d="M202.9,225.029a17.019,17.019,0,0,0,2.761,4.339,4.481,4.481,0,0,0,4.865,1.118,27.7,27.7,0,0,0,6.246-3.287,2.817,2.817,0,0,0,1.183-2.827c-.395-3.156-1.118-9.994-.526-13.939.855-5.26,1.381-9.533,1.381-9.533" transform="translate(-198.189 -111.211)" fill="none" stroke="#1b1c1e" stroke-miterlimit="10" stroke-width="1"/>
          <path id="Path_3551" data-name="Path 3551" d="M213.459,242.62a8.667,8.667,0,0,1-2.959-5.72" transform="translate(-200.793 -123.542)" fill="none" stroke="#1b1c1e" stroke-miterlimit="10" stroke-width="1"/>
          <path id="Path_3552" data-name="Path 3552" d="M220.17,239.963A7.99,7.99,0,0,1,218,234.9" transform="translate(-203.361 -122.857)" fill="none" stroke="#1b1c1e" stroke-miterlimit="10" stroke-width="1"/>
          <path id="Path_3553" data-name="Path 3553" d="M259.56,210.351c-4.6,2.827-6.969,4.471-6.706,7.627.329,3.682-2.5,4.011-3.748,4.339a25.731,25.731,0,0,1-8.021.46c-1.183-.132-3.485-2.3-3.485-7.167,0-4.471,3.616-12.1,10.585-15.977,0,0,5.72-1.118,9.533,3.287C260.217,205.88,259.56,210.351,259.56,210.351Z" transform="translate(-210.075 -110.734)" fill="#513f3b"/>
          <path id="Path_3554" data-name="Path 3554" d="M269.059,196.9a16.5,16.5,0,0,1-7.1,11.046c-6.246,3.945-9.533,5.523-9.2,9.2s-2.5,4.011-3.748,4.339a25.731,25.731,0,0,1-8.021.46c-1.183-.131-3.485-2.3-3.485-7.167,0-4.471,3.616-12.1,10.585-15.977" transform="translate(-210.041 -109.841)" fill="none" stroke="#1b1c1e" stroke-miterlimit="10" stroke-width="1"/>
          <path id="Path_3555" data-name="Path 3555" d="M247.42,232.054s-3.222-.723-3.024-5.654" transform="translate(-212.4 -119.946)" fill="none" stroke="#1b1c1e" stroke-miterlimit="10" stroke-width="1"/>
          <path id="Path_3556" data-name="Path 3556" d="M254.129,231.528s-2.1-1.446-1.841-5.128" transform="translate(-215.098 -119.946)" fill="none" stroke="#1b1c1e" stroke-miterlimit="10" stroke-width="1"/>
          <path id="Path_3557" data-name="Path 3557" d="M283.528,229.846s-5.917-7.3-15.188-2.038c-8.547,4.865-10.651,27.285-3.353,38.66" transform="translate(-217.935 -119.775)" fill="none" stroke="#1b1c1e" stroke-miterlimit="10" stroke-width="1"/>
          <path id="Path_3558" data-name="Path 3558" d="M244.354,299.732C241,290.987,251.192,287.7,256.386,287.7H269.6" transform="translate(-212.161 -140.942)" fill="none" stroke="#1b1c1e" stroke-miterlimit="10" stroke-width="1"/>
          <path id="Path_3559" data-name="Path 3559" d="M251.419,303.774s-1.644-2.564,0-4.274" transform="translate(-214.558 -144.984)" fill="none" stroke="#1b1c1e" stroke-miterlimit="10" stroke-width="1"/>
          <path id="Path_3560" data-name="Path 3560" d="M257.465,303.979s-.395-2.893.723-3.879" transform="translate(-216.856 -145.189)" fill="none" stroke="#1b1c1e" stroke-miterlimit="10" stroke-width="1"/>
          <path id="Path_3561" data-name="Path 3561" d="M228.654,122.264s-11.7-2.564-16.9-9.731-2.235-17.423-.986-19.133c1.249-1.644,2.564-7.627,19.593-6.838,13.347.657,18.212,7.824,19,12.624.723,4.339-.394,12.426-5.326,16.371A34.783,34.783,0,0,1,228.654,122.264Z" transform="translate(-200.208 -72.024)" fill="#513f3b"/>
          <g id="Group_917" data-name="Group 917" transform="translate(13.718 23.212)">
            <path id="Path_3562" data-name="Path 3562" d="M225.279,103.939a.9.9,0,0,0,0-.986c-.657-.986-2.235-3.287-4.339-3.156a5.235,5.235,0,0,0-4.339,3.682c0,1.118,1.709,3.616,4.274,3.879C222.846,107.49,224.621,104.991,225.279,103.939Z" transform="translate(-216.6 -99.792)" fill="#9bbedc"/>
            <ellipse id="Ellipse_41" data-name="Ellipse 41" cx="2.104" cy="2.827" rx="2.104" ry="2.827" transform="translate(2.17 0.794)" fill="#1b1c1e"/>
          </g>
          <g id="Group_918" data-name="Group 918" transform="translate(19.888 27.61)">
            <path id="Path_3563" data-name="Path 3563" d="M232.767,110.294s-3.485-.263-5.457,1.775-1.644,5.391.329,6.641c1.775,1.183,2.7-1.644,5.128-1.775s2.17-1.907,2.3-3.682C235.134,111.543,232.767,110.294,232.767,110.294Z" transform="translate(-225.984 -107.783)" fill="none" stroke="#1b1c1e" stroke-miterlimit="10" stroke-width="1"/>
            <path id="Path_3564" data-name="Path 3564" d="M239.5,115.658a1.818,1.818,0,0,0,1.183,1.775c1.315.657,2.433.46,3.813,2.038,1.381,1.512,4.076-.263,4.076-3.156,0-3.287-2.17-5.589-6.115-5.72s-2.63,1.315-2.63,1.315Z" transform="translate(-230.612 -107.887)" fill="none" stroke="#1b1c1e" stroke-miterlimit="10" stroke-width="1"/>
            <path id="Path_3565" data-name="Path 3565" d="M231.7,122.8a6.714,6.714,0,0,0,4.405,2.564c2.564.263,4.865-1.315,5.26-2.1" transform="translate(-227.942 -112.071)" fill="none" stroke="#1b1c1e" stroke-miterlimit="10" stroke-width="1"/>
            <path id="Path_3566" data-name="Path 3566" d="M238.073,112.016s-2.827-1.775-3.222-3.287c-.395-1.446.394-2.367,3.682-2.235,2.7.131,3.879,1.183,2.827,2.893A10.285,10.285,0,0,1,238.073,112.016Z" transform="translate(-228.99 -106.481)" fill="#1b1c1e" stroke="#1b1c1e" stroke-miterlimit="10" stroke-width="1"/>
          </g>
          <g id="Group_923" data-name="Group 923" transform="translate(37.322 50.832)">
            <g id="Group_922" data-name="Group 922" opacity="0.88" clip-path="url(#clip-path-4)">
              <g id="Group_921" data-name="Group 921" transform="translate(2.616 -9.665)">
                <g id="Group_920" data-name="Group 920">
                  <g id="Group_919" data-name="Group 919">
                    <path id="Path_3567" data-name="Path 3567" d="M274.4,139.5l.2.2Z" transform="translate(-262.618 -131.347)" fill="#443730"/>
                    <path id="Path_3568" data-name="Path 3568" d="M268.366,143.766h0l-.066-.066Z" transform="translate(-260.528 -132.786)" fill="#443730"/>
                    <path id="Path_3569" data-name="Path 3569" d="M268.331,143.429l-.132-.329C268.266,143.232,268.266,143.363,268.331,143.429Z" transform="translate(-260.494 -132.58)" fill="#443730"/>
                    <path id="Path_3570" data-name="Path 3570" d="M277,142c.066.066.2.132.329.263Z" transform="translate(-263.508 -132.204)" fill="#443730"/>
                    <path id="Path_3571" data-name="Path 3571" d="M277.5,144.2a.23.23,0,0,0,.066.131A.23.23,0,0,1,277.5,144.2Z" transform="translate(-263.68 -132.957)" fill="#443730"/>
                    <path id="Path_3572" data-name="Path 3572" d="M278.431,134.366c-.066,0-.066-.066-.132-.066C278.366,134.3,278.366,134.3,278.431,134.366Z" transform="translate(-263.954 -129.566)" fill="#443730"/>
                    <path id="Path_3573" data-name="Path 3573" d="M279.5,134.574h.132C279.632,134.64,279.5,134.574,279.5,134.574Z" transform="translate(-264.365 -129.643)" fill="#443730"/>
                    <path id="Path_3574" data-name="Path 3574" d="M279.8,135.2h0Z" transform="translate(-264.467 -129.874)" fill="#443730"/>
                    <path id="Path_3575" data-name="Path 3575" d="M286.8,136.5l.263.2C287,136.632,286.866,136.566,286.8,136.5Z" transform="translate(-266.865 -130.32)" fill="#443730"/>
                    <path id="Path_3576" data-name="Path 3576" d="M278,134a.908.908,0,0,0,.263.2C278.132,134.132,278.066,134.132,278,134Z" transform="translate(-263.851 -129.463)" fill="#443730"/>
                    <path id="Path_3577" data-name="Path 3577" d="M274.3,139.3c.066.066.066.066.066.132C274.366,139.366,274.3,139.366,274.3,139.3Z" transform="translate(-262.583 -131.279)" fill="#443730"/>
                    <path id="Path_3578" data-name="Path 3578" d="M277.3,141.6Z" transform="translate(-263.611 -132.067)" fill="#443730"/>
                    <path id="Path_3579" data-name="Path 3579" d="M265.632,144.3a.23.23,0,0,1-.132-.066C265.5,144.041,265.566,144.106,265.632,144.3Z" transform="translate(-259.569 -132.929)" fill="#443730"/>
                    <path id="Path_3580" data-name="Path 3580" d="M273.855,136.229c.658.789.132-.066.789.657-.2-.066-.394-.2-.066.263.46.395.131-.2.723.46l-.329-.132c.2.395.789.789.657.789-.855-.789,0,.657-.263.592l.132.066.2.592.066.066-.132-.131c.329.526.46.92.2.92-.46-.46-.592.2-1.052-.2.132.066.2.066.2-.132l-.526-.592c-.131.131.46.592,0,.329-.657-.855.2-.131.2-.329a.959.959,0,0,0-.526-.329c.2-.2.066-.592.92.131a2.387,2.387,0,0,0-.526-.592c.526.394-.329-.526.2-.2-.657-.723-.592-.2-1.052-.526.329.723-.329.329-.592.329a15.194,15.194,0,0,1,1.183,1.381c.132.526-.46-.2-.789-.46,0,.329.723.986.526,1.183l.395.263c.46.92-.395-.263-.329,0-.132-.263-.263-.46-.132-.526-.2-.329-.394-.394-.46-.394v-.066c-.329-.394-.657-.789-.657-.526.46.46.2.46.329.723l.132.066c-.2-.066-.263.066-.395,0l.066.131c-.2-.131-.657-.789-.723-.592.2.263.789.855.592.855.263.394.46.329.46.132,0,.2.329.855.526.855.263.526-.263-.132-.2.131a2,2,0,0,0-.329-.46c.46.657-.263.263-.526-.263l.395.263c-.329-.526-.723-.789-.855-1.118.46.92-.592-.2-.263.592l-.2-.46c-.132.46-.92-.395-1.315-.46.263.2.789,1.183.789.723-.132.329.46.986.657,1.512,0,.526-.592-.855-.855-1.118a.4.4,0,0,0,.263.066c-.789-.986-.46.526-1.118,0,.131.329.131.132.263.263.2.657-.2-.066-.395-.263-.066.132-.132.526.329,1.183-.066.263-.2-.46-.394-.657l.066.2-.526-.723a3.956,3.956,0,0,0,.263,1.512c-.394,0-.855-1.644-1.183-1.775a2.072,2.072,0,0,0,.394.855h-.263c.395.789.395.329.789,1.315-.592-.92-.395-.2-.855-.723v-.066c-.394-.657-.394-.066-.592-.131a.777.777,0,0,0,.526.46c0,.394-.526.2-.986-.592a.98.98,0,0,0,.132.92c-.263.263-.526-1.249-.723-.855l.2.657c0,1.052-.855-.723-.855.263l-.263-.855c.066.394-.066.592,0,.92l.2.263c.066.723-.329-.657-.329-.132-.066-.263-.066-.855-.132-1.118.329.2.592-.066.855-.263s.46-.394.92-.132a.977.977,0,0,0,.066.395c0-.2.2-.066,0-.46l-.066-.066c.2.131,0-.92.066-.92.263.526.2-.329.526.592l-.131-.657c.2.329.329.789.46.92.066-.132-.066-.46-.263-.657a.985.985,0,0,1,1.183-.526l-.329-.394c0-.263.723.592.066-.46.395.329.329-.526.92.592-.46-1.118.132-.723.526-.723.526.92.329.131.657.526-.394-.723-.657-.592-.92-1.052.92.92.132-1.183,1.446.526,0-.066-.066-.132-.132-.2.066-.066-.066-.394-.132-.46.263.263.263.526.394.526.066-.131-.329-.592-.46-.855a3.566,3.566,0,0,1,1.381.92,1.958,1.958,0,0,0-.46-.723c.658.329.2-.263.723-.131-.132.066-.592-.657-.526-.329-.657-1.052.526-.131.329-.789l.592.526c.2,0-.263-.592-.526-.723-.132-.526.329-.263.46-.395l-.131-.131.2-.2a3.522,3.522,0,0,1,.789.723C273.987,136.1,273.79,135.9,273.855,136.229Z" transform="translate(-259.706 -130.114)" fill="#443730"/>
                    <path id="Path_3581" data-name="Path 3581" d="M278.7,136.6l.066.066h0Z" transform="translate(-264.091 -130.354)" fill="#443730"/>
                    <path id="Path_3582" data-name="Path 3582" d="M278.431,143.329c-.066-.2-.132-.263-.132-.329C278.366,143.066,278.366,143.2,278.431,143.329Z" transform="translate(-263.954 -132.546)" fill="#443730"/>
                    <path id="Path_3583" data-name="Path 3583" d="M281.345,132.384c.855.789-.263,0-.132.329.2,0,.723.46.986.723-1.249-.855.066.329-.329.394.395.329.526.263.986.592a2.843,2.843,0,0,1-1.381-.592c-.2.2-.132.592-.395.592.395.066.657.592,1.315.92-.92-.526-2.1-.986-3.156-1.644a13.364,13.364,0,0,0,1.315,1.381c.2.723-.657-.526-.723-.132v-.2a6.64,6.64,0,0,1-1.381-1.183c.132-.066.263-.066.329-.131-.46-.46-.526-.263-.723-.329-.592-.526-.263-.526-.657-.92.395.329.395.132.592.2l-.2-.263c-.132-.395.526.2.592.066-.066-.066-.132-.132-.132-.2.329.263.658.526.855.526h-.066c.657.46,1.315.592,1.775,1.381l.066-.46c-.723-.592-1.775-1.446-1.972-1.381l-.263-.263c-.263-.46.789.2,1.315.789,1.709,1.315.46-.394,1.315,0a5.186,5.186,0,0,0-1.052-.657c-.132,0-.132.066.2.394-.46.066-1.381-1.315-1.446-.855.132.329.855.46.723.723l-1.315-.986a2.191,2.191,0,0,1,.657,0c.657.066.92-.132.986-.395a.894.894,0,0,0,0-.46,19.858,19.858,0,0,0,2.3-2.433c.395-.2.329-.329,1.907.263.263.2,0,.329.526.526-.526-.263-.92-.263-.986-.066.526.329.329,0,.46.066v.066c.263.132.46.2.526.132.657.657.263.986-.789.526.395.46.855.394,1.315.526.066.855-.329,1.183-.658,1.841a4.625,4.625,0,0,0-1.249-.657l.263.263c-.132-.131-.789-.46-.855-.723.46.789-1.381-.46-1.907-.526l.46.329c-.2.132-.263.132-.592.132.592.855.329-.132,1.315.723l-.263-.066a13.807,13.807,0,0,0,1.578.92c-.92-.263,0,.592-.789.46a2.233,2.233,0,0,0,1.183.329c-.066.131-.526.066-.066.394l-.592-.46c-.2.132.592.395.92.789C283.449,134.159,281.937,132.318,281.345,132.384Z" transform="translate(-263.645 -127.322)" fill="#443730"/>
                    <path id="Path_3584" data-name="Path 3584" d="M278.3,140.666c0-.066.066-.066.132-.066A.229.229,0,0,1,278.3,140.666Z" transform="translate(-263.954 -131.724)" fill="#443730"/>
                    <path id="Path_3585" data-name="Path 3585" d="M280.9,141.3l.2.2Q281,141.5,280.9,141.3Z" transform="translate(-264.844 -131.964)" fill="#443730"/>
                    <path id="Path_3586" data-name="Path 3586" d="M281.792,142.126a2.388,2.388,0,0,0-.592-.526C281.4,141.731,281.529,141.666,281.792,142.126Z" transform="translate(-264.947 -132.067)" fill="#443730"/>
                    <path id="Path_3587" data-name="Path 3587" d="M256.625,150.757c0-.2-.2-.46-.132-.657l.2.263Z" transform="translate(-256.48 -134.978)" fill="#443730"/>
                    <path id="Path_3588" data-name="Path 3588" d="M257.3,149.729l.2-.329.132,1.052C257.431,150.452,257.563,149.729,257.3,149.729Z" transform="translate(-256.761 -134.738)" fill="#443730"/>
                    <path id="Path_3589" data-name="Path 3589" d="M258.166,148.863l-.066-.263A.5.5,0,0,1,258.166,148.863Z" transform="translate(-257.035 -134.464)" fill="#443730"/>
                    <path id="Path_3590" data-name="Path 3590" d="M258.1,149.395l.066.723-.263-.526.132-.131a2.332,2.332,0,0,1,.066-.46l.132.526C258.163,149.46,258.1,149.329,258.1,149.395Z" transform="translate(-256.966 -134.601)" fill="#443730"/>
                    <path id="Path_3591" data-name="Path 3591" d="M258.574,149.7v.2A.123.123,0,0,1,258.574,149.7Z" transform="translate(-257.18 -134.841)" fill="#443730"/>
                    <path id="Path_3592" data-name="Path 3592" d="M258.995,147.6a2.724,2.724,0,0,0,.132.986c-.2.263-.263-.789-.395-.46.263.592-.066.46-.132.855a2.568,2.568,0,0,1,.329-1.381l.066.46A.978.978,0,0,1,258.995,147.6Z" transform="translate(-257.206 -134.122)" fill="#443730"/>
                    <path id="Path_3593" data-name="Path 3593" d="M260.489,148.481l-.2-.657c0,.329-.263.329-.2,1.052a3.055,3.055,0,0,1-.2-.592c-.066.394-.066.657-.2.131.329-.526.2-.657.526-.855,0-.132-.066-.132-.066-.066l.2-.394C260.357,147.889,260.686,147.955,260.489,148.481Z" transform="translate(-257.583 -133.95)" fill="#443730"/>
                    <path id="Path_3594" data-name="Path 3594" d="M261.154,147.818c-.2,0-.329-.657-.263-1.118l.395.526C261.154,147.16,261.023,147.094,261.154,147.818Z" transform="translate(-257.985 -133.813)" fill="#443730"/>
                    <path id="Path_3595" data-name="Path 3595" d="M261.7,147.907c0-.394.066-1.183.263-.46C261.7,147.315,261.963,148.367,261.7,147.907Z" transform="translate(-258.268 -133.968)" fill="#443730"/>
                    <path id="Path_3596" data-name="Path 3596" d="M262.989,146.693l-.263.526c.066.92.2.263.395.657-.263.2-.2-.066-.526-.592-.066.066-.263-.395-.394-.657C262.726,147.285,262.4,145.116,262.989,146.693Z" transform="translate(-258.439 -133.61)" fill="#443730"/>
                    <path id="Path_3597" data-name="Path 3597" d="M262.531,148.395,262.4,148l.2.263Z" transform="translate(-258.507 -134.259)" fill="#443730"/>
                    <path id="Path_3598" data-name="Path 3598" d="M263.755,145.16c-.066-1.118.46.526.592,0-.066-.066-.066-.131-.132-.263l.2.066-.066-.263a4.914,4.914,0,0,0,.592,1.315c0,.723-.263-.789-.263,0a7.977,7.977,0,0,1,.329.92,4.534,4.534,0,0,1-.46-.986c-.131-.066,0,.329,0,.526-.2-.329-.46-1.249-.592-.986,0,.592.263.855,0,.657-.066-1.052-.2.2-.395-.394a2.524,2.524,0,0,0-.066,1.249,3.729,3.729,0,0,0-.592-1.644l.394.592-.066-.92c.329.394.46.329.526.131Z" transform="translate(-258.679 -133.128)" fill="#443730"/>
                    <path id="Path_3599" data-name="Path 3599" d="M266.1,148.1c.066.066.066.132.132.132C266.232,148.3,266.166,148.232,266.1,148.1Z" transform="translate(-259.775 -134.293)" fill="#443730"/>
                    <path id="Path_3600" data-name="Path 3600" d="M263.9,148.6l.132.2v.263Z" transform="translate(-259.021 -134.464)" fill="#443730"/>
                    <path id="Path_3601" data-name="Path 3601" d="M266.552,148.829c-.066.066-.132-.263-.066-.329l.2.394Z" transform="translate(-259.898 -134.43)" fill="#443730"/>
                    <path id="Path_3602" data-name="Path 3602" d="M266.666,147.792l-.066-.592.2.46Z" transform="translate(-259.946 -133.985)" fill="#443730"/>
                    <path id="Path_3603" data-name="Path 3603" d="M272.06,144.84c0,.329-.263-.263-.46-.657C271.731,143.985,271.863,144.708,272.06,144.84Z" transform="translate(-261.659 -132.939)" fill="#443730"/>
                    <path id="Path_3604" data-name="Path 3604" d="M276.155,144.214c.066.46-.329,0-.46.066C275.629,143.951,275.892,144.017,276.155,144.214Z" transform="translate(-263.058 -132.906)" fill="#443730"/>
                    <path id="Path_3605" data-name="Path 3605" d="M279.252,145.442c-.132-.132-.263-.2-.263-.329l-.789-.855C278.2,143.864,278.989,145.048,279.252,145.442Z" transform="translate(-263.919 -132.95)" fill="#443730"/>
                    <path id="Path_3606" data-name="Path 3606" d="M280.983,144.486l-.46-.2.066-.066a7.88,7.88,0,0,0-.789-.723A2.1,2.1,0,0,1,280.983,144.486Z" transform="translate(-264.467 -132.717)" fill="#443730"/>
                    <path id="Path_3607" data-name="Path 3607" d="M279.4,143.4h.132C279.6,143.531,279.663,143.663,279.4,143.4Z" transform="translate(-264.33 -132.683)" fill="#443730"/>
                    <path id="Path_3608" data-name="Path 3608" d="M279.643,143.346c.066.066.066.066.132.066-.066,0-.132-.066-.2-.066C279.512,143.28,279.512,143.148,279.643,143.346Z" transform="translate(-264.376 -132.629)" fill="#443730"/>
                    <path id="Path_3609" data-name="Path 3609" d="M281.3,144.132l.394-.132v.263C281.234,143.737,281.826,144.723,281.3,144.132Z" transform="translate(-264.981 -132.889)" fill="#443730"/>
                    <path id="Path_3610" data-name="Path 3610" d="M282.76,141.089l-.46-.526c.066-.263,1.315.592.657-.263.2.394.657.394.592.789C283.089,140.694,282.76,140.892,282.76,141.089Z" transform="translate(-265.324 -131.621)" fill="#443730"/>
                    <path id="Path_3611" data-name="Path 3611" d="M282.729,139.272c-.2-.132-.2-.263-.329-.395,0-.131.263.066.46.263C282.137,138.549,283.189,139.6,282.729,139.272Z" transform="translate(-265.358 -131.12)" fill="#443730"/>
                    <path id="Path_3612" data-name="Path 3612" d="M283.963,138.322c-.066.066-.2.066-.263-.131.2-.132.723.46,1.118.723C285.015,139.308,284.16,138.65,283.963,138.322Z" transform="translate(-265.803 -130.892)" fill="#443730"/>
                    <path id="Path_3613" data-name="Path 3613" d="M279.7,131.7c.46.394.263.46.132.329C279.963,132.029,279.831,131.831,279.7,131.7Z" transform="translate(-264.433 -128.676)" fill="#443730"/>
                    <path id="Path_3614" data-name="Path 3614" d="M285.157,136.194l.066.132-.723-.526Z" transform="translate(-266.077 -130.08)" fill="#443730"/>
                    <path id="Path_3615" data-name="Path 3615" d="M287.2,135.4l.592.2-.2.132Z" transform="translate(-267.002 -129.943)" fill="#443730"/>
                    <path id="Path_3616" data-name="Path 3616" d="M287.3,134.932l.132-.132.132.2C287.694,135.129,287.366,134.866,287.3,134.932Z" transform="translate(-267.036 -129.737)" fill="#443730"/>
                    <path id="Path_3617" data-name="Path 3617" d="M287.829,134.3c-.066,0,0,.066.066.131l-.394-.066Z" transform="translate(-267.105 -129.566)" fill="#443730"/>
                    <path id="Path_3618" data-name="Path 3618" d="M285.353,127.363c-.526-.263-.132-.2-.263-.263C285.221,127.166,285.879,127.56,285.353,127.363Z" transform="translate(-266.272 -127.1)" fill="#443730"/>
                  </g>
                </g>
              </g>
            </g>
          </g>
          <g id="Group_928" data-name="Group 928" transform="translate(42.976 86.993)">
            <g id="Group_927" data-name="Group 927" opacity="0.88" clip-path="url(#clip-path-5)">
              <g id="Group_926" data-name="Group 926" transform="translate(0.442 -0.675)">
                <g id="Group_925" data-name="Group 925">
                  <g id="Group_924" data-name="Group 924">
                    <path id="Path_3620" data-name="Path 3620" d="M279.2,210.7c.066,0,.066,0,.132.066A.2.2,0,0,1,279.2,210.7Z" transform="translate(-267.742 -200.886)" fill="#443730"/>
                    <path id="Path_3621" data-name="Path 3621" d="M273.4,215.3Z" transform="translate(-265.755 -202.461)" fill="#443730"/>
                    <path id="Path_3622" data-name="Path 3622" d="M273.331,215.132,273.2,215C273.331,215.066,273.331,215.132,273.331,215.132Z" transform="translate(-265.687 -202.359)" fill="#443730"/>
                    <path id="Path_3623" data-name="Path 3623" d="M280.8,211.3h0Z" transform="translate(-268.29 -201.091)" fill="#443730"/>
                    <path id="Path_3624" data-name="Path 3624" d="M280.9,212.5v0Z" transform="translate(-268.324 -201.502)" fill="#443730"/>
                    <path id="Path_3625" data-name="Path 3625" d="M282.774,205.174Z" transform="translate(-268.949 -198.976)" fill="#443730"/>
                    <path id="Path_3626" data-name="Path 3626" d="M283.3,204.866a.064.064,0,0,1,.066-.066l-.066.066C283.431,204.8,283.366,204.866,283.3,204.866Z" transform="translate(-269.146 -198.865)" fill="#443730"/>
                    <path id="Path_3627" data-name="Path 3627" d="M283.5,205.2Z" transform="translate(-269.215 -199.002)" fill="#443730"/>
                    <path id="Path_3628" data-name="Path 3628" d="M287.4,203l.132.066C287.466,203.066,287.4,203.066,287.4,203Z" transform="translate(-270.551 -198.248)" fill="#443730"/>
                    <path id="Path_3629" data-name="Path 3629" d="M282.5,205.1h.132C282.566,205.1,282.5,205.166,282.5,205.1Z" transform="translate(-268.872 -198.968)" fill="#443730"/>
                    <path id="Path_3630" data-name="Path 3630" d="M279.1,210.6Z" transform="translate(-267.708 -200.851)" fill="#443730"/>
                    <path id="Path_3631" data-name="Path 3631" d="M281.1,210.9Z" transform="translate(-268.393 -200.954)" fill="#443730"/>
                    <path id="Path_3632" data-name="Path 3632" d="M270.632,216.185H270.5A.091.091,0,0,1,270.632,216.185Z" transform="translate(-264.762 -202.754)" fill="#443730"/>
                    <path id="Path_3633" data-name="Path 3633" d="M278.227,206.927c.329.263.132-.132.46.131-.132,0-.2.066-.066.2.263.066.066-.2.394,0l-.2.066c.132.2.395.263.329.263-.46-.2-.066.46-.2.526h.066l.066.329h0a.064.064,0,0,1-.066-.066c.132.2.2.46.066.592-.263-.132-.46.394-.658.263.132,0,.132-.066.132-.2l-.263-.2c-.132.132.263.2,0,.2-.329-.329.132-.2.2-.329a.3.3,0,0,0-.329,0c.132-.2.132-.46.592-.263a.352.352,0,0,0-.263-.2c.329.066-.132-.263.132-.2-.395-.2-.395.132-.657.066.132.394-.263.394-.46.526.263.2.526.263.657.46,0,.329-.263.066-.526.066,0,.2.394.395.263.592h.263c.263.46-.263,0-.263.131-.066-.131-.132-.2-.066-.263a.232.232,0,0,0-.263-.066v-.066c-.2-.132-.395-.263-.395-.066.263.131.066.263.132.329h.066c-.132,0-.2.132-.329.132l.066.066c-.132,0-.395-.263-.46-.066.132.066.46.263.329.329.132.131.263.066.329-.132-.066.132.132.46.263.329.132.2-.2,0-.2.2l-.2-.2c.263.263-.2.263-.395.066h.263c-.2-.2-.46-.2-.526-.395.263.395-.46.132-.263.46l-.132-.2c-.132.329-.657.066-.986.2.2.066.46.394.526.2-.2.263.2.46.263.657-.066.263-.394-.263-.526-.329h.2c-.526-.329-.46.46-.92.394.066.132.132,0,.2.066.066.329-.132.066-.263,0a.425.425,0,0,0,.066.592c-.066.2-.132-.2-.263-.263v.066a.656.656,0,0,1-.329-.263.906.906,0,0,0,0,.723c-.329.132-.526-.657-.789-.657,0,.2.132.2.263.329l-.2.066c.263.329.329.066.526.46-.394-.329-.263,0-.657-.132v-.066c-.263-.2-.395.066-.526.132.132.131.263.066.395.066-.066.2-.526.263-.789,0-.066.132-.2.329,0,.394-.263.2-.394-.46-.592-.263l.132.263c-.132.526-.723-.131-.855.329l-.132-.329c0,.2-.066.263-.066.46l.2.066c0,.329-.263-.263-.329.066-.066-.131,0-.394-.066-.526.657,0,1.052-.723,1.709-.657a.242.242,0,0,0,.066.2c0-.132.2-.066.066-.263h0c.2,0,.132-.46.2-.526.2.2.263-.263.395.2l-.066-.263a4.025,4.025,0,0,1,.263.394.178.178,0,0,0-.132-.263,2.324,2.324,0,0,1,1.183-.657l-.2-.132c0-.131.526.066.132-.329.263.066.395-.46.723,0-.2-.526.263-.46.526-.592.263.394.263-.066.46.066-.2-.329-.394-.132-.592-.329.592.2.329-.855,1.052-.263,0-.066,0-.066-.066-.066.066-.066,0-.2,0-.263.132.066.132.263.263.2.066-.132-.2-.263-.2-.329.329,0,.592-.2.92.066-.066-.132-.132-.329-.263-.329.46-.066.132-.263.526-.395-.066.066-.329-.2-.329,0-.329-.46.395-.329.329-.723l.329.131c.132-.066-.132-.329-.263-.263,0-.329.2-.329.329-.526,0-.066-.066-.066-.066,0l.132-.263a.81.81,0,0,1,.46.132C278.358,206.73,278.227,206.73,278.227,206.927Z" transform="translate(-264.796 -199.545)" fill="#443730"/>
                    <path id="Path_3634" data-name="Path 3634" d="M282.7,206.8Z" transform="translate(-268.941 -199.55)" fill="#443730"/>
                    <path id="Path_3635" data-name="Path 3635" d="M281.666,211.632a.2.2,0,0,1-.066-.132C281.666,211.5,281.666,211.566,281.666,211.632Z" transform="translate(-268.564 -201.16)" fill="#443730"/>
                    <path id="Path_3636" data-name="Path 3636" d="M284.267,200.8c.46.263-.132.131-.066.329.132-.066.395.066.526.131-.657-.131.066.263-.2.46.2.066.263,0,.526.066-.2.066-.394.329-.789.2-.132.263-.132.526-.263.657.263-.131.329.132.723.132-.46,0-1.183.2-1.775.2a2.715,2.715,0,0,0,.723.46c.066.46-.394-.131-.46.2v-.2c-.2.066-.526-.131-.789-.263l.263-.263c-.263-.131-.329.066-.46.066-.329-.066-.066-.263-.329-.394.2.066.263-.066.395-.132l-.132-.066c-.066-.2.329-.131.394-.263l-.066-.066a1.481,1.481,0,0,0,.46.066l-.066.066c.395.066.723-.131.986.263l.066-.394c-.394-.132-.92-.329-1.118-.2l-.132-.066c-.132-.263.46-.263.723,0,.92.263.263-.526.723-.592-.2-.132-.394,0-.592,0-.066.066-.066.131.132.2-.263.263-.723-.395-.789,0,0,.2.46,0,.395.263l-.723-.132c.066-.131.263-.2.395-.329a1.443,1.443,0,0,0,.592-.789.694.694,0,0,0,0-.395,19.141,19.141,0,0,0,1.052-3.287c.132-.329.132-.46.855-.526.132.066.066.329.329.263-.263,0-.395.132-.395.329.263.066.132-.132.2-.132v.066c.132,0,.2,0,.263-.066.329.263.2.723-.329.789.2.2.394-.066.657-.132a5.462,5.462,0,0,1-.2,1.775c-.46-.131-.329,0-.592,0l.132.132c-.066-.066-.394-.066-.46-.2.263.46-.723.263-.986.394l.263.066c-.132.2-.132.263-.329.329.329.46.132-.263.657,0l-.132.066a3.168,3.168,0,0,0,.789,0c-.46.2,0,.526-.395.723.263.066.526-.2.592-.263,0,.132-.263.263-.066.395l-.329-.066c-.132.2.329.066.46.2C285.45,201.263,284.661,200.539,284.267,200.8Z" transform="translate(-268.667 -195.919)" fill="#443730"/>
                    <path id="Path_3637" data-name="Path 3637" d="M281.9,209.831c0-.066.066-.066.132-.131Z" transform="translate(-268.667 -200.543)" fill="#443730"/>
                    <path id="Path_3638" data-name="Path 3638" d="M283.6,209.3c.066,0,.066.066.132.066C283.666,209.3,283.666,209.3,283.6,209.3Z" transform="translate(-269.249 -200.406)" fill="#443730"/>
                    <path id="Path_3639" data-name="Path 3639" d="M284.129,209.426c-.132-.132-.132-.066-.329-.132C283.931,209.361,284,209.163,284.129,209.426Z" transform="translate(-269.318 -200.401)" fill="#443730"/>
                    <path id="Path_3640" data-name="Path 3640" d="M261.922,220.463c-.066-.066-.2-.2-.132-.263l.2.066Z" transform="translate(-261.773 -204.14)" fill="#443730"/>
                    <path id="Path_3641" data-name="Path 3641" d="M262.6,219.931l.2-.132.2.46C262.732,220.194,262.8,219.866,262.6,219.931Z" transform="translate(-262.056 -204.003)" fill="#443730"/>
                    <path id="Path_3642" data-name="Path 3642" d="M263.366,219.432l-.066-.132C263.3,219.366,263.366,219.366,263.366,219.432Z" transform="translate(-262.296 -203.831)" fill="#443730"/>
                    <path id="Path_3643" data-name="Path 3643" d="M263.331,219.731l.132.329-.263-.2.066-.066a.288.288,0,0,1,.066-.2l.132.2C263.4,219.731,263.331,219.666,263.331,219.731Z" transform="translate(-262.262 -203.934)" fill="#443730"/>
                    <path id="Path_3644" data-name="Path 3644" d="M263.7,219.8v0Z" transform="translate(-262.433 -204.003)" fill="#443730"/>
                    <path id="Path_3645" data-name="Path 3645" d="M264.094,218.7a.934.934,0,0,0,.132.394c-.2.132-.263-.329-.395-.131.263.2-.066.2-.132.394a.692.692,0,0,1,.263-.657l.066.2C264.094,218.963,264.029,218.831,264.094,218.7Z" transform="translate(-262.433 -203.626)" fill="#443730"/>
                    <path id="Path_3646" data-name="Path 3646" d="M265.489,218.957l-.2-.263c0,.132-.263.2-.2.46-.066,0-.132-.2-.2-.263-.066.2-.066.263-.2.066.329-.263.2-.329.526-.46,0-.066-.066-.066-.066,0l.2-.2C265.423,218.694,265.686,218.694,265.489,218.957Z" transform="translate(-262.775 -203.489)" fill="#443730"/>
                    <path id="Path_3647" data-name="Path 3647" d="M266.156,218.66a.4.4,0,0,1-.263-.46l.395.2C266.222,218.4,266.09,218.4,266.156,218.66Z" transform="translate(-263.18 -203.455)" fill="#443730"/>
                    <path id="Path_3648" data-name="Path 3648" d="M266.7,218.612c0-.2.066-.526.263-.263C266.766,218.349,266.9,218.809,266.7,218.612Z" transform="translate(-263.46 -203.472)" fill="#443730"/>
                    <path id="Path_3649" data-name="Path 3649" d="M267.923,217.8l-.263.263c.066.395.2.066.329.263-.263.132-.2,0-.46-.2-.066.066-.263-.132-.329-.2C267.66,218.124,267.463,217.2,267.923,217.8Z" transform="translate(-263.632 -203.247)" fill="#443730"/>
                    <path id="Path_3650" data-name="Path 3650" d="M267.466,218.7l-.066-.2.2.132Z" transform="translate(-263.7 -203.557)" fill="#443730"/>
                    <path id="Path_3651" data-name="Path 3651" d="M268.957,216.829c.066-.526.46.2.592-.066a.2.2,0,0,0-.066-.131h.2V216.5c.066.263.263.329.46.46-.066.329-.2-.329-.263.066.066.132.2.263.263.395a.967.967,0,0,1-.329-.395c-.132,0-.066.132,0,.263-.2-.132-.329-.526-.46-.395-.066.263.2.329-.066.329,0-.46-.2.132-.395-.131a.631.631,0,0,0-.131.592,1.061,1.061,0,0,0-.46-.657l.329.2v-.394c.066.2.2.132.329,0Z" transform="translate(-264.008 -202.872)" fill="#443730"/>
                    <path id="Path_3652" data-name="Path 3652" d="M270.9,218l.066.066Z" transform="translate(-264.899 -203.386)" fill="#443730"/>
                    <path id="Path_3653" data-name="Path 3653" d="M268.8,218.6l.066.066v.066Z" transform="translate(-264.18 -203.592)" fill="#443730"/>
                    <path id="Path_3654" data-name="Path 3654" d="M271.166,218.232c-.066,0-.066-.066-.066-.132l.066.132Z" transform="translate(-264.968 -203.42)" fill="#443730"/>
                    <path id="Path_3655" data-name="Path 3655" d="M271.3,217.663l.066-.263.066.2Z" transform="translate(-265.036 -203.181)" fill="#443730"/>
                    <path id="Path_3656" data-name="Path 3656" d="M276.529,214.768c0,.2-.2-.066-.329-.2C276.332,214.374,276.332,214.768,276.529,214.768Z" transform="translate(-266.714 -202.193)" fill="#443730"/>
                    <path id="Path_3657" data-name="Path 3657" d="M279.894,213c0,.263-.263.132-.394.2C279.5,213,279.7,213,279.894,213Z" transform="translate(-267.845 -201.673)" fill="#443730"/>
                    <path id="Path_3658" data-name="Path 3658" d="M281.992,212.653c-.066-.066-.132-.066-.132-.132l-.46-.263C281.466,212,281.86,212.456,281.992,212.653Z" transform="translate(-268.495 -201.392)" fill="#443730"/>
                    <path id="Path_3659" data-name="Path 3659" d="M283.357,211.378l-.263.066.066-.066c-.2-.066-.263-.132-.46-.2A.574.574,0,0,1,283.357,211.378Z" transform="translate(-268.941 -201.038)" fill="#443730"/>
                    <path id="Path_3660" data-name="Path 3660" d="M282.4,211.166a.064.064,0,0,0,.066-.066C282.531,211.231,282.531,211.3,282.4,211.166Z" transform="translate(-268.838 -201.023)" fill="#443730"/>
                    <path id="Path_3661" data-name="Path 3661" d="M282.574,211.1Z" transform="translate(-268.881 -201.023)" fill="#443730"/>
                    <path id="Path_3662" data-name="Path 3662" d="M283.6,210.863l.263-.263v.2C283.6,210.666,283.863,211.06,283.6,210.863Z" transform="translate(-269.249 -200.851)" fill="#443730"/>
                    <path id="Path_3663" data-name="Path 3663" d="M284.863,208.157l-.263-.2c.066-.2.789-.132.46-.46.132.2.395,0,.329.263A.427.427,0,0,0,284.863,208.157Z" transform="translate(-269.592 -199.79)" fill="#443730"/>
                    <path id="Path_3664" data-name="Path 3664" d="M285,207c-.066,0-.132-.066-.2-.132,0-.066.2-.066.263,0C284.669,206.674,285.194,207.068,285,207Z" transform="translate(-269.66 -199.555)" fill="#443730"/>
                    <path id="Path_3665" data-name="Path 3665" d="M285.731,205.676c-.066.066-.132.132-.132,0,.132-.132.395.066.592.066C286.323,205.939,285.863,205.874,285.731,205.676Z" transform="translate(-269.934 -199.15)" fill="#443730"/>
                    <path id="Path_3666" data-name="Path 3666" d="M283.6,202.4c.263.132.132.2.066.2C283.732,202.6,283.666,202.466,283.6,202.4Z" transform="translate(-269.249 -198.043)" fill="#443730"/>
                    <path id="Path_3667" data-name="Path 3667" d="M286.529,203.5v.066l-.329-.066Z" transform="translate(-270.14 -198.42)" fill="#443730"/>
                    <path id="Path_3668" data-name="Path 3668" d="M287.6,201.966l.263-.066-.066.2Z" transform="translate(-270.619 -197.871)" fill="#443730"/>
                    <path id="Path_3669" data-name="Path 3669" d="M287.6,201.5l.066-.2.066.066C287.8,201.563,287.6,201.431,287.6,201.5Z" transform="translate(-270.619 -197.666)" fill="#443730"/>
                    <path id="Path_3670" data-name="Path 3670" d="M287.831,200.8a.064.064,0,0,0,.066.066l-.2.132Z" transform="translate(-270.653 -197.495)" fill="#443730"/>
                    <path id="Path_3671" data-name="Path 3671" d="M286.226,195.922c-.263,0-.066-.132-.132-.132C286.161,195.725,286.489,195.856,286.226,195.922Z" transform="translate(-270.1 -195.773)" fill="#443730"/>
                  </g>
                </g>
              </g>
            </g>
          </g>
          <g id="Group_929" data-name="Group 929" transform="translate(35.92 23.906)">
            <path id="Path_3673" data-name="Path 3673" d="M250.455,104.564a.9.9,0,0,1,.132-.986c.723-.92,2.564-3.024,4.668-2.7a5.407,5.407,0,0,1,3.945,4.076,4.893,4.893,0,0,1-4.668,3.353C252.427,108.377,250.981,105.682,250.455,104.564Z" transform="translate(-250.369 -100.847)" fill="#9bbedc"/>
            <ellipse id="Ellipse_42" data-name="Ellipse 42" cx="2.827" cy="2.104" rx="2.827" ry="2.104" transform="translate(2.062 6.248) rotate(-83.858)" fill="#1b1c1e"/>
          </g>
        </g>
      </g>
    </g>
  </g>
</svg>
