<svg xmlns="http://www.w3.org/2000/svg" width="1134.09" height="320.434" viewBox="0 0 1134.09 320.434">
  <g id="Group_837" data-name="Group 837" transform="translate(-156 -171.566)">
    <circle id="Ellipse_15" data-name="Ellipse 15" cx="61" cy="61" r="61" transform="translate(347 230)" fill="#f9e489"/>
    <circle id="Ellipse_16" data-name="Ellipse 16" cx="40.5" cy="40.5" r="40.5" transform="translate(194 411)" fill="#d9d9d9"/>
    <path id="Path_3224" data-name="Path 3224" d="M61,0A61,61,0,1,1,0,61,61,61,0,0,1,61,0Z" transform="translate(1290.09 353.127) rotate(103)" fill="#d8c59d"/>
    <circle id="Ellipse_20" data-name="Ellipse 20" cx="40.5" cy="40.5" r="40.5" transform="translate(1107.145 189.787) rotate(103)" fill="#f8e17c"/>
    <path id="Path_3846" data-name="Path 3846" d="M20.5,0A20.5,20.5,0,1,1,0,20.5,20.5,20.5,0,0,1,20.5,0Z" transform="translate(156 192)" fill="#d8c59d"/>
    <circle id="Ellipse_22" data-name="Ellipse 22" cx="21.5" cy="21.5" r="21.5" transform="translate(1217 199)" fill="#f9e489"/>
    <g id="Icon_material-pets" data-name="Icon material-pets" transform="translate(1226 206.5)">
      <path id="Path_3218" data-name="Path 3218" d="M7.8,12.9a2.4,2.4,0,1,1-2.4-2.4,2.4,2.4,0,0,1,2.4,2.4Z" transform="translate(0 -2.159)" fill="#fff"/>
      <path id="Path_3219" data-name="Path 3219" d="M14.552,6.9a2.4,2.4,0,1,1-2.4-2.4,2.4,2.4,0,0,1,2.4,2.4Z" transform="translate(-2.428)" fill="#fff"/>
      <path id="Path_3220" data-name="Path 3220" d="M23.552,6.9a2.4,2.4,0,1,1-2.4-2.4,2.4,2.4,0,0,1,2.4,2.4Z" transform="translate(-5.666)" fill="#fff"/>
      <path id="Path_3221" data-name="Path 3221" d="M30.3,12.9a2.4,2.4,0,1,1-2.4-2.4,2.4,2.4,0,0,1,2.4,2.4Z" transform="translate(-8.094 -2.159)" fill="#fff"/>
      <path id="Path_3222" data-name="Path 3222" d="M18.808,19.937c-.836-.98-1.537-1.815-2.382-2.795a4.074,4.074,0,0,0-1.681-1.268,1.944,1.944,0,0,0-.317-.086,4.833,4.833,0,0,0-.749-.038,4.029,4.029,0,0,0-.759.048,1.944,1.944,0,0,0-.317.086,4.137,4.137,0,0,0-1.681,1.268c-.836.98-1.537,1.815-2.382,2.795-1.258,1.258-2.8,2.651-2.516,4.6a3.015,3.015,0,0,0,2.238,2.228c.7.144,2.939-.423,5.32-.423h.173c2.382,0,4.619.557,5.32.423a3.03,3.03,0,0,0,2.238-2.228c.3-1.959-1.248-3.352-2.507-4.61Z" transform="translate(-1.076 -4.047)" fill="#fff"/>
    </g>
    <g id="Icon_material-pets-2" data-name="Icon material-pets" transform="translate(164 198.5)">
      <path id="Path_3218-2" data-name="Path 3218" d="M7.8,12.9a2.4,2.4,0,1,1-2.4-2.4,2.4,2.4,0,0,1,2.4,2.4Z" transform="translate(0 -2.159)" fill="#fff"/>
      <path id="Path_3219-2" data-name="Path 3219" d="M14.552,6.9a2.4,2.4,0,1,1-2.4-2.4,2.4,2.4,0,0,1,2.4,2.4Z" transform="translate(-2.428)" fill="#fff"/>
      <path id="Path_3220-2" data-name="Path 3220" d="M23.552,6.9a2.4,2.4,0,1,1-2.4-2.4,2.4,2.4,0,0,1,2.4,2.4Z" transform="translate(-5.666)" fill="#fff"/>
      <path id="Path_3221-2" data-name="Path 3221" d="M30.3,12.9a2.4,2.4,0,1,1-2.4-2.4,2.4,2.4,0,0,1,2.4,2.4Z" transform="translate(-8.094 -2.159)" fill="#fff"/>
      <path id="Path_3222-2" data-name="Path 3222" d="M18.808,19.937c-.836-.98-1.537-1.815-2.382-2.795a4.074,4.074,0,0,0-1.681-1.268,1.944,1.944,0,0,0-.317-.086,4.833,4.833,0,0,0-.749-.038,4.029,4.029,0,0,0-.759.048,1.944,1.944,0,0,0-.317.086,4.137,4.137,0,0,0-1.681,1.268c-.836.98-1.537,1.815-2.382,2.795-1.258,1.258-2.8,2.651-2.516,4.6a3.015,3.015,0,0,0,2.238,2.228c.7.144,2.939-.423,5.32-.423h.173c2.382,0,4.619.557,5.32.423a3.03,3.03,0,0,0,2.238-2.228c.3-1.959-1.248-3.352-2.507-4.61Z" transform="translate(-1.076 -4.047)" fill="#fff"/>
    </g>
    <path id="Icon_awesome-bone" data-name="Icon awesome-bone" d="M34.888,12.924A3.091,3.091,0,0,0,36.6,10.159V9.841a3.091,3.091,0,0,0-6.024-.978c-.319.957-.482,1.876-1.584,1.876H7.607C6.47,10.74,6.3,9.678,6.024,8.864A3.091,3.091,0,0,0,0,9.841v.317a3.091,3.091,0,0,0,1.709,2.765.531.531,0,0,1,0,.951A3.091,3.091,0,0,0,0,16.639v.317a3.091,3.091,0,0,0,6.024.978c.319-.957.482-1.876,1.584-1.876H28.989c1.138,0,1.312,1.061,1.584,1.876a3.091,3.091,0,0,0,6.024-.978v-.317a3.091,3.091,0,0,0-1.709-2.765A.532.532,0,0,1,34.888,12.924Z" transform="translate(256.702 446.867) rotate(132)" fill="#fff"/>
    <path id="Icon_awesome-fish" data-name="Icon awesome-fish" d="M23,6.75c-6.326,0-11.85,3.851-14.925,7.146L1.934,9.252A1.169,1.169,0,0,0,.025,10.282L1.725,18l-1.7,7.718a1.17,1.17,0,0,0,1.908,1.031L8.073,22.1C11.148,25.4,16.673,29.25,23,29.25c9.665,0,17.5-9,17.5-11.25S32.664,6.75,23,6.75Zm6.147,12.938A1.688,1.688,0,1,1,30.834,18,1.688,1.688,0,0,1,29.147,19.688Z" transform="translate(1085.619 217.659) rotate(135)" fill="#fff"/>
    <path id="Icon_awesome-fish-2" data-name="Icon awesome-fish" d="M35.435,6.75c-9.746,0-18.258,5.933-23,11.01L2.979,10.6C1.665,9.61-.3,10.669.039,12.192l2.619,11.89L.038,35.974C-.3,37.5,1.664,38.556,2.978,37.562l9.46-7.155c4.737,5.075,13.25,11.008,23,11.008,14.891,0,26.963-13.866,26.963-17.333S50.326,6.75,35.435,6.75Zm9.471,19.933a2.6,2.6,0,1,1,2.6-2.6A2.6,2.6,0,0,1,44.906,26.683Z" transform="matrix(-0.777, -0.629, 0.629, -0.777, 417.091, 329.35)" fill="#fff"/>
    <path id="Icon_awesome-bone-2" data-name="Icon awesome-bone" d="M78.473,20.637a6.953,6.953,0,0,0,3.844-6.219V13.7a6.954,6.954,0,0,0-13.55-2.2c-.718,2.153-1.084,4.219-3.562,4.219H17.111c-2.559,0-2.952-2.387-3.562-4.219A6.953,6.953,0,0,0,0,13.7v.714a6.953,6.953,0,0,0,3.844,6.219,1.2,1.2,0,0,1,0,2.139A6.953,6.953,0,0,0,0,28.994v.714a6.953,6.953,0,0,0,13.549,2.2c.718-2.153,1.084-4.219,3.562-4.219H65.2c2.559,0,2.952,2.387,3.562,4.219a6.953,6.953,0,0,0,13.549-2.2v-.714a6.952,6.952,0,0,0-3.844-6.219A1.2,1.2,0,0,1,78.473,20.637Z" transform="matrix(-0.978, -0.208, 0.208, -0.978, 1252.677, 428.63)" fill="#fff"/>
  </g>
</svg>
