<svg id="Group_897" data-name="Group 897" xmlns="http://www.w3.org/2000/svg" xmlns:xlink="http://www.w3.org/1999/xlink" width="98.588" height="82.837" viewBox="0 0 98.588 82.837">
  <defs>
    <clipPath id="clip-path">
      <rect id="Rectangle_144" data-name="Rectangle 144" width="98.588" height="82.837" transform="translate(0 0)" fill="none"/>
    </clipPath>
  </defs>
  <g id="Group_896" data-name="Group 896" clip-path="url(#clip-path)">
    <path id="Path_3230" data-name="Path 3230" d="M90.147.322c-.2.007-.5.259-.293.458L90.519.6Z" fill="#4d4d4d"/>
    <path id="Path_3231" data-name="Path 3231" d="M90.043,2.558a1.517,1.517,0,0,0,1.547-.316c-.719.032-.53-.168-1.361-.087a.377.377,0,0,1,.171-.607c-.2,0-.1-.448-.527-.361-.255.577-.046.97.562,1.168-.074.161-.274.162-.392.2" fill="#4d4d4d"/>
    <path id="Path_3232" data-name="Path 3232" d="M96.193,28.089l.077-.171a.32.32,0,0,0-.077.171" fill="#4d4d4d"/>
    <path id="Path_3233" data-name="Path 3233" d="M93.613,43.994c.021-.122-.027-.191-.083-.215.009.122.02.224.083.215" fill="#4d4d4d"/>
    <path id="Path_3234" data-name="Path 3234" d="M92.028,46.333c.039-.047.065-.09.1-.134-.077.035-.13.081-.1.134" fill="#4d4d4d"/>
    <path id="Path_3235" data-name="Path 3235" d="M96.193,28.089l-.2.438c.216.027.158-.225.2-.438" fill="#4d4d4d"/>
    <path id="Path_3236" data-name="Path 3236" d="M93.212,5.117a.567.567,0,0,0-.261-.147,1.926,1.926,0,0,1,.161.179l.1-.032" fill="#4d4d4d"/>
    <path id="Path_3237" data-name="Path 3237" d="M94.985,21.044l-.021-.129a1.921,1.921,0,0,0-.282-.063Z" fill="#4d4d4d"/>
    <path id="Path_3238" data-name="Path 3238" d="M93.733,15.748c.007.125.56.021.809,0a.526.526,0,0,1-.439-.162,1.571,1.571,0,0,0-.37.159" fill="#4d4d4d"/>
    <path id="Path_3239" data-name="Path 3239" d="M91.69,7.239l-.137-.108c.039.026.089.078.137.108" fill="#4d4d4d"/>
    <path id="Path_3240" data-name="Path 3240" d="M95.36,24.921a.635.635,0,0,0-.194.067.468.468,0,0,0,.194-.067" fill="#4d4d4d"/>
    <path id="Path_3241" data-name="Path 3241" d="M17.251,27.125c.036.019.062.022.094.036-.041-.052-.075-.076-.094-.036" fill="#4d4d4d"/>
    <path id="Path_3242" data-name="Path 3242" d="M22.267,22.1l-.006.095c.094.049.187.1.283.138Z" fill="#4d4d4d"/>
    <path id="Path_3243" data-name="Path 3243" d="M89.377,50.542l.019-.015c0-.144-.024-.074-.019.015" fill="#4d4d4d"/>
    <path id="Path_3244" data-name="Path 3244" d="M54.192,76.57c.633.361-.673.83.232,1.182-.122-.195.481-1.024-.232-1.182" fill="#4d4d4d"/>
    <path id="Path_3245" data-name="Path 3245" d="M93.209,5.284a1.553,1.553,0,0,1,.106.212.446.446,0,0,0-.106-.212" fill="#4d4d4d"/>
    <path id="Path_3246" data-name="Path 3246" d="M54.425,77.752v0l.093.032-.094-.036" fill="#4d4d4d"/>
    <path id="Path_3247" data-name="Path 3247" d="M83.39,60.1a.742.742,0,0,0,.262.072.479.479,0,0,0-.262-.072" fill="#4d4d4d"/>
    <path id="Path_3248" data-name="Path 3248" d="M88.985,53.64l-.176.143a.507.507,0,0,0,.176-.143" fill="#4d4d4d"/>
    <path id="Path_3249" data-name="Path 3249" d="M80.938,63.864c-.114.049-.2.02-.258.183a.289.289,0,0,0,.083.016c-.012-.1.018-.173.175-.2" fill="#4d4d4d"/>
    <path id="Path_3250" data-name="Path 3250" d="M77.451,66.914a1.175,1.175,0,0,0,.138.037l.1-.113Z" fill="#4d4d4d"/>
    <path id="Path_3251" data-name="Path 3251" d="M13.106,41.518a1.751,1.751,0,0,1,.537-.124c-.4-.005-.4-.757-.537.124" fill="#4d4d4d"/>
    <path id="Path_3252" data-name="Path 3252" d="M92.929,5.257c.14-.036.221-.028.28.027a1.38,1.38,0,0,0-.1-.136.3.3,0,0,0-.183.109" fill="#4d4d4d"/>
    <path id="Path_3253" data-name="Path 3253" d="M83.869,67.2l-.641.5a3.594,3.594,0,0,0,.641-.5" fill="#4d4d4d"/>
    <path id="Path_3254" data-name="Path 3254" d="M22.812,75.184l-.185-.075a.179.179,0,0,0,.185.075" fill="#4d4d4d"/>
    <path id="Path_3255" data-name="Path 3255" d="M81.487,69.339a1.169,1.169,0,0,0-.594,0,.493.493,0,0,0,.022.173Z" fill="#4d4d4d"/>
    <path id="Path_3256" data-name="Path 3256" d="M13.649,41.394h0Z" fill="#4d4d4d"/>
    <path id="Path_3257" data-name="Path 3257" d="M13.623,36.02c-.216.726.6.54.967.809-.033.915-.633.253-1.079.449.044.6.575,1.175.455,1.574-.126,0-.187.07-.313-.06.436.716-.377,1.725.192,2.552a.457.457,0,0,1-.2.05,2.823,2.823,0,0,1,1.012.106c-.049.329.344.694-.153.722.051-.2-.136-.251-.266-.375l.14.383c-.739.175-.147-.514-.65-.618.093.723.512,1.6.223,2.078-.69,0,0-1.243-.723-.659l.406-.754c-1.168.413.166-.477-1.066-.127-.386,1.042.089,1.25-.246,2.3.34.3.563,0,.9.3.48,1.591-1.891.979-1.083,2.227.426.342,1.274.523.756,1.283l-.744-.33c-.148,1.059,1.022.663.487,1.74-.3-.207-.236-.842-.329-.686-.627.694.423.529.411,1.074l-.682.1a9.213,9.213,0,0,0,.34,1.773,13.838,13.838,0,0,1,.458,1.836c-.205-.053-.429-.255-.621.054a16.988,16.988,0,0,1,.246,5.018l.693.452c.022.135-.2.314-.346.194-.07.646.363-.058.662.166a.285.285,0,0,1-.43.356,8.89,8.89,0,0,1,1.2,1.787,3.558,3.558,0,0,1,.547,2.036l-.241-.139c.1.927,1.5.413,1.332,1.367l-.159-.094a13.5,13.5,0,0,0,1.287,2.551,5.554,5.554,0,0,1,.97,2.41c.841-.291.833,1.747,1.85,1.073.264,1.172-.143,1.12.646,2.5.252.335.956-.078,1.389.186l-.42.452c.307.013.63,0,.943,0l-.227.786.46.2a.49.49,0,0,1,.025-.586,1.542,1.542,0,0,1,.778.889,1.13,1.13,0,0,1,.128.858c.579.22,1.126.469,1.713.647-.173.176-.475.091-.749.068,1.133.041-.24.631.808.656-.017-.181.26-.267.346-.359a2.528,2.528,0,0,0,1.669,1.326l-.338.294a7.921,7.921,0,0,0,1.843.955l2.042.809a.532.532,0,0,1,.418-.915l-.1.666c.408-.265-.311-.4.394-.635.462.277.059.829-.315.9l.7.05c-.034.2-.215.231-.344.446.387-.261.882,1.008,1.493.482l-.025.2a8.028,8.028,0,0,0,1.758.41l1.578.238c.138-.546.576-.334,1-.715a7.757,7.757,0,0,0,2.78.95c.757-.215.251-.457.6-.761.016.514,1.061.515.5.857a9.8,9.8,0,0,0,1.474-.091,10.2,10.2,0,0,0,1.694-.407c-.177-.2-.367-.291-.275-.468a.51.51,0,0,1,.617.443l-.073.055a4.353,4.353,0,0,1,2.866.1c.994.223,1.966.381,2.564-.258l-.069.064,1.309-.8c.659-.039-.314.452.223.672,1.338-1.14,2.411-.382,3.5-1.241,1.332,1.233,3.3-.993,4.8-.451l-.176-.319c.22-.432.449.077.711.081-.115-.252-.443-.2-.3-.444,2.584-1.244,5.765-1.345,8.673-2.244,1.052-.359-.176-1.926,1.419-1.725l-.076.763a11,11,0,0,1,2.856-1.833,9.1,9.1,0,0,0,2.742-1.931c-.03.2.072.366-.112.474.665.186,1.448-.916,1.231-1.24.305-.154.263.249.549.3.547-.033.61-1.154,1.085-.91.08.039-.013.2-.063.281.113-.359,1.158-.805.6-1.069.8-.3,1.1-1.12,1.788-1.3-.077-.748,1.256-.682.782-1.429.563.734,1.557-.409,1.623-1.08.064.317.52-.1.636.308.421-.418.694-.911.29-1.168,1.531-.031.852-2.163,2.29-1.668.388-.829.775-1.6,1.169-2.324.371-.744.736-1.455,1.122-2.13.691.582-.97,1.415-.184,1.945a15.84,15.84,0,0,0,.617-1.933,3.766,3.766,0,0,1,.877-1.689c.316-.243.2.4.256.589.55-1.408,1.625-2.369,1.879-3.742.072.045.083.215.078.367.1-.241.4-.463.035-.639l-.025.275c-.711.059-.594-1.5-.852-1.686.824.942.87-.975,1.852.325a.533.533,0,0,0-.318-.556c.19-.182.372-.181.526.188.226-.928-.322-.833.053-1.576.178.089.173.274.345.456a1.613,1.613,0,0,1,.127-1.659c.091.088.268.079.174.267.44-1.141-.122-2.284.7-3.364.673.674.418-.32,1.142-.127l.036-.752-.439.148c.219-.587-.089-1.269.286-1.7l.157.538.206-1.16-.462.544c-.185-.713-.92-.223-.485-.938.025.179.185-.579.7-.765v0c-.133-.356-.3-.721-.015-1.113.259-.055.776.3.948.266-.531-.449.183-1.458-.375-1.974a.88.88,0,0,0,.592.226l-.438-.356c.212-.246.3-.271.594-.161.254-.83-.979.075-.387-.843.025.086.107.064.151.243.41-.971.061-2,.418-2.891.783-.172.069.845.74.621a12.134,12.134,0,0,0-.2-2.143,5.386,5.386,0,0,1-.064-2.066l-.1.238c-1.032-.252.6-.94.115-1.637.073.165.58.24.464.191.207-.9-.177-1.867-.547-3.218l.275.165a8.03,8.03,0,0,0,.207-1.984c-.282-.157-.258-.486-.641-.266a2.254,2.254,0,0,0,.129-2.553,2.446,2.446,0,0,1-.161-2.4c.032.185.305.409.283.261l-.456-1.287c-.439.18-.249.219-.561.551a1.093,1.093,0,0,1-.614-.775c.394.532.731-.129.944-.432-.132.067-.3.007-.438.054.679-.829-.935.055-.577-.966l.248,0c-.193-.322-.572-.572-.58-.956.491-.268.319.313.754.246-.14-.524-1.192-.812-.8-1.4.2.184.288.5.473.69.5-.657.316-.681.321-1.088l0,.041.048-.959-.106.27c-1.511-.3-.581-1.271-1.733-1.873,1.083.589.521,0,1.121-.114.093-.27.169-.666.362-.619-.594-.268.156-.815-.707-1.178.175-.087-.138-.442.358-.507-.335-.485-.276.236-.524.268-.93-.58.105-2.216-1.247-3.033-.767-.845-1.411-.78-2.131-1.52.144-.428.762-.048.762-.048a1.454,1.454,0,0,0-.6-1.311c.2.019.282-.139.413-.375-.224-.346-.744.062-.731-.542a2.61,2.61,0,0,1,.883.017c-.371-.359-.929-.609-1.312-.967.239-.275.6.026.877.081-.4-.429-.954-1.148-1.5-1.038l0,.407c-.116-.166.357-.314.514-.228.595.225.159.7,0,.814l-.275-.252c-.853.857.839,1.146,1.073,1.834l-.872.1.927.351c-.13.234-.507.525-.765.267-.16.627.456.276.222.857-.045.072-.091.069-.139.044l.432.338c-.2-.015-.5.313-.519-.005-.06.969,1.121,1.043.676,1.586L92.2,9.112c.72,1.01.608-.128,1.623.455l-1.18,1.114.611-.1c.021.126.062.375-.183.416.549.293.222-.167.684-.048-.323.755.813,1.487-.073,1.925.508.06.162-.661.666-.149-.942.5.389.659.092,1.33-.566-.005-.443-.58-.745.081.964.055.133,1.066.4,1.458.706-.17.54.89.966,1.581-.229.006-.074,1.51-.192,2.258l-.124,0c.749-.007.77.746.991,1.256a.84.84,0,0,1-.862-.266l.081.494a.792.792,0,0,1,.531.525l-.562-.041c.134.648.86,1.24.575,2.144.515,0,1.341-.863,1.782.031-.272.065-.739.15-.878-.078.045.074.26.257.159.429l-.5-.317c-.16.416.41.164.4.486-.394.034-.255.261-.572.247-.047-.076.133-.29-.034-.394a1.336,1.336,0,0,1-.5.974c.219-.05.534-.047.6.208.069.669-.459.267-.638.67.283.141.024.583.614.559.009.2-.263.248-.418.332.3.33.148,1.606.758,1.2l.041-.091c.012.017.013.036.026.057v0c.6,1.141-.291,2.382-.106,3.512l-.2-.01c.209.686.074,1.507.441,2.024a.524.524,0,0,1-.627.336c.1.526.32.61-.073,1.317-.294-.553-.318.144-.2-.554-.219.649-.577.749-.133,1.528-.468-.306-.7.406-.593.738l.422-.407a2.783,2.783,0,0,1-.149.971l-.634-.274a1.843,1.843,0,0,0-.122,1.851c.172.612.263,1.186-.529,1.526.366.454.495-.637.949-.207-.24.6-1.322.991-1.369,1.174-.55.719.739,1.019.239,1.81a.754.754,0,0,1,.915.751c-.271.588-1.174.44-1.241.006.024-.15.117-.2.192-.166-.023-.219-.044-.5-.362-.341l.2.147c-.322.224-.544,1.046-.856.732.053.508.309.315.529.02-.581.644-.43,1.169-.921,1.861.166-.076.468-.092.422.03-.685,1.029.235.66.02,1.466-.517.3-.734-.482-.774.394-.421.367-.62-.151-.722-.406.135.865-.809,1.153-1.076,1.484l-.006-.427a1.213,1.213,0,0,1-.167.6l.526,0c-.174.17-.26.343-.436.254.177.347.792.175.968.787-.35.172-.18.969-.787.779.61-.775-.61-.192-.349-.968a.722.722,0,0,1-.259.512c-.078,0-.1-.088-.108-.16-.909.552.44.7-.027,1.533-.254-.275-.7-.129-.7.042.188-.33.608.123.674.568-.54.4-.135.694-.335.955.1-.082.2-.168.3-.255.252.29.047.532-.086.96-.257-.11.044-.433-.142-.364.279.736-1.121.588-1.112,1.376-.364.133-.576-.335-.854-.2-.036.863-.856.384-.978,1.233.517.09.446-.013.513.709l.453-1.25.1,1.074c.228-.321.22-.85.42-1,.1.542.022.445.459.509-.9.042-.266,1.122-1.018,1.362l-.948-.7c-.961.424-.5,1.667-1.472,2.438.139-.053.268-.114.4-.173.276.429-.423.615-.529,1.035-.279-.281-.546-.188-.84-.222.235.176-.584.645-.066,1.252-.243.025-.5.038-.747.05-.817.553.06,1.575-.692,2.175-.11-.508-.6-.4-.392-1.065-.216.222-.457.375-.268.57-.3-.052-.254.976-.724.905.024.217.277.547,0,.768a.3.3,0,0,1-.132-.144c.133.143-.222.578.3.685a2.04,2.04,0,0,0-1.744.805c-.473.465-.926.945-1.6.774a13.344,13.344,0,0,1-1.524,1.515c-.036-.118-.113-.161.008-.194-.917.18.215,1.225-.837,1.446-.769-.248.238-.58-.155-.6-.833-1.008-.866.824-1.846.5l.1-.145c-.653-.127-.776,1.049-1.535,1.383a.328.328,0,0,0-.092-.174,4.125,4.125,0,0,1-1.648,2.071c0-.567.2-.4-.162-.8-.286.223.468.7-.115,1.143-.334-.149-.9-.144-1.2-.618l.588-.313c-.612-.494-.765.391-1.14.424l-.088-.3c-.882.507-.585,1.234-1.63,1.613l.2.174c-.27.951-.636-.214-.984.55l-.459-.669a9.3,9.3,0,0,1-1.669,1.6,6.6,6.6,0,0,1,1.226-1.77c-.368.139-1.229.526-1.292.961.125-.126.246-.376.435-.317a2.221,2.221,0,0,1-1.506,1.5c-.357-1.488-2.088.294-3-.677-1.169.957-2.721.573-4.245,1.073.86,1-.446.153-.042,1.311-.348.174-.495.187-.547.118l-1.285-.438c-.343-.286.285-.342.187-.6-.814.1-.452-.427-1.043-.624.2.4-.138.677-.623.608l.756.411c-.981.881-1.168-.794-2.152.051l.279-.442c-.53.334-2.083.36-2.517,1.4-.121-.127-.3-.442-.058-.562-1.359.044-2.97,1.364-4.074.771l.1-.3c-.25.091-.436.583-.757.274.016-.123.1-.3-.017-.316-.13.1-.678.522-1.013.339l.295-.331c-1.287-.432-2.061.73-3.229.785.1-.862-.861-1.3-1.315-1.548L38,77.106c-1.413-.374-2.625.126-4.109-.028a3.169,3.169,0,0,0-1.612-1.333,6.377,6.377,0,0,1-1.954-1.363c.1.248-.368.579-.633.525-.193-.321-1.122.046-.647-.61l.094.073c.2-.786-.448-1-.875-1.31l-.681.814c-.143-1.021-.912-1.472-1.668-1.88-.721-.437-1.443-.807-1.21-1.582-.419-.051-.709-.349-1.137-.407l.426-.375a10.094,10.094,0,0,0-1.565-1.965l.456-.066c-.342-.518-1.784.344-2.188-.137l.59-.636a9.651,9.651,0,0,1-.7-1.562A2.172,2.172,0,0,0,19.5,63.945c.118-.04.352-.124.47.017-.233-.48-.34-2.048-1.332-1.415.672-.306-.346-1.1-.894-1.574l.561-.1c-.849-.249-1.019-.22-1.425-.875.018-.191.383-.276.313-.012.114-.64-.638-.293-.556-1.059l.42.163c-.135-.584-.293-.492-.767-.725a.977.977,0,0,1,.38-1.347c-.317-.02-.792-.275-.719-.654a.372.372,0,0,1,.39.085c.233-1.047-.833-1.414-.381-2.172a.475.475,0,0,0,.316-.147,6.374,6.374,0,0,1,.088,1.38c.508-.074.521-.706,1.285-.3-.432-.434-1.422-1.22-1.183-1.874a.665.665,0,0,1,.174-.095l.06.061a.412.412,0,0,0-.1-.388,1.352,1.352,0,0,0,.129-.521c.43-.091.174-.729.215-1.049-.563.032-.464-.393-.936.006.042-.052.064.062.086.277a.366.366,0,0,0,.065.136l-.05-.021c.027.211.053.487.078.8-.3-.241-.552-.508-.258-.873a8.909,8.909,0,0,1-.9-.452c.793-.462,1.233-1.3,1.718-1.4-.307-.991-.039-2.307-1.055-3.053-.1-.3.346-.294.525-.38.084.176.038.368.18.473-.194-.595.125-1.68-.587-1.926.428-.668.617.5.632-.5l.2.168c.743-.859.437-1.7.165-2.6a2.333,2.333,0,0,1,.576-2.706c-.132.123-.191.186-.317.186,1.268-2.226.82-5.154,2.644-7.157.436-.591.022-.819-.168-1.347l.62.063-.4-.932c-.121-1.168,2.03-1.164,1.6-2.745l-.44.011c.242-.416.337-1.492.74-1.245-.05-.073-.334-.3-.068-.4l.3.1-.066-1.29c.558-.755,1.108.6,1.668-.6.074-.5-.317-1.648-.583-1.558a.582.582,0,0,1-.674.288l.02-.481c-.829-.431-1.577-1.121-2.6-.336l.231.936-.514.06.223-.616c-.534.182-.276.543-.137.884a.766.766,0,0,0-.585.114l.537,1.044c-.372-.05-.542-.59-.92-.187.25.487.886-.014.916.638-.531.188-.811-.04-.638.5a.408.408,0,0,1-.386-.375c.122.47-.272,1,.115,1.374-.627.173-.347,1.28-1.156.927a2.006,2.006,0,0,1,.3,1.239c-.758-.99-.528,1.242-1.526.689.726.788-.219,1.8.008,2.8-.055-.071-.169-.211-.1-.267-.232.437-.549.479-.82.721.724.311.642,1.084.983,1.623-.9.34-.769-.63-1.514-.676.612.169.293,1.2.858,1.159-.582.3-.333.31-1.025.346.913.363.032.459.5,1-.659.5-.932-.094-.845.7-.382.258-.541-.474-.541-.474M13.03,53.753h-.011c-.021-.152-.039-.281-.05-.363.013.075.031.179.061.362m.157,1.481a5.156,5.156,0,0,0-.058-.644c.187-.07.393-.033.4.115-.139-.068-.208.289-.343.529m3.665-3.241c.09.207-.017.281-.13.314a2.586,2.586,0,0,0-.086-.367l-.07-.023a1.025,1.025,0,0,1,.286.076" fill="#4d4d4d"/>
    <path id="Path_3258" data-name="Path 3258" d="M16.1,51.626a.246.246,0,0,1-.041-.088.78.78,0,0,0-.124.13l.18.073c0-.039-.01-.079-.015-.115" fill="#4d4d4d"/>
    <path id="Path_3259" data-name="Path 3259" d="M96.282,27.888l-.012.03a.221.221,0,0,1,.079-.064.471.471,0,0,1-.067.034" fill="#4d4d4d"/>
    <path id="Path_3260" data-name="Path 3260" d="M21.353,74.232l.1-.1-.181-.007Z" fill="#4d4d4d"/>
    <path id="Path_3261" data-name="Path 3261" d="M97.389,19.866a.282.282,0,0,0,.125-.13.387.387,0,0,0-.125.13" fill="#4d4d4d"/>
    <path id="Path_3262" data-name="Path 3262" d="M96.787,16.453l.073-.525a2.2,2.2,0,0,0-.073.525" fill="#4d4d4d"/>
    <path id="Path_3263" data-name="Path 3263" d="M96.36,13.8a1.144,1.144,0,0,0-.246.018l0,.006Z" fill="#4d4d4d"/>
    <path id="Path_3264" data-name="Path 3264" d="M92.328,55.382a.321.321,0,0,0-.033.1c-.035.265.016.1.033-.1" fill="#4d4d4d"/>
    <path id="Path_3265" data-name="Path 3265" d="M96.088,43.2a2.177,2.177,0,0,1,.138.461c.106-.2.168-.368-.138-.461" fill="#4d4d4d"/>
    <path id="Path_3266" data-name="Path 3266" d="M83.94,67.143l-.006-.008-.065.062Z" fill="#4d4d4d"/>
    <path id="Path_3267" data-name="Path 3267" d="M96.045,44.218a.639.639,0,0,0,.18-.559.953.953,0,0,0-.18.559" fill="#4d4d4d"/>
    <path id="Path_3268" data-name="Path 3268" d="M92.158,2.959l-.04-.126a.2.2,0,0,1-.088.03Z" fill="#4d4d4d"/>
    <path id="Path_3269" data-name="Path 3269" d="M92.031,2.863l-.125-.1c.03.058.06.107.125.1" fill="#4d4d4d"/>
    <path id="Path_3270" data-name="Path 3270" d="M91.64,2.569l.265.2c-.048-.094-.093-.217-.265-.2" fill="#4d4d4d"/>
    <path id="Path_3271" data-name="Path 3271" d="M93.516,6.257l.2-.049a.521.521,0,0,0-.2.049" fill="#4d4d4d"/>
    <path id="Path_3272" data-name="Path 3272" d="M94.024,7.212c-.061-.253.124-.765-.144-1.04l-.161.037c.347.03-.107.92.305,1" fill="#4d4d4d"/>
    <path id="Path_3273" data-name="Path 3273" d="M93.271,12.232l-.138-.869c-.153.217-.362.5-.542.151-.246,1.236.382-.375.68.718" fill="#4d4d4d"/>
    <path id="Path_3274" data-name="Path 3274" d="M93.78,14.871c-.232-.412-.3.094-.426.1.275.222.344.278.426-.1" fill="#4d4d4d"/>
    <path id="Path_3275" data-name="Path 3275" d="M95.644,33.891l-.5-.092c.042.357.2.022.5.092" fill="#4d4d4d"/>
    <path id="Path_3276" data-name="Path 3276" d="M97.8,37.968l.37-.309-.439-.246c.022.185.056.371.069.555" fill="#4d4d4d"/>
    <path id="Path_3277" data-name="Path 3277" d="M93.8,39.448l-.043-.164c.025.2.051.4.061.606,0-.147,0-.294-.018-.442" fill="#4d4d4d"/>
    <path id="Path_3278" data-name="Path 3278" d="M77.785,66.021l.48.419c.109-.243-.306-.819-.48-.419" fill="#4d4d4d"/>
    <path id="Path_3279" data-name="Path 3279" d="M66.293,73.523c-.26-.23-.7-.275-.807.1.305-.078.69.035.807-.1" fill="#4d4d4d"/>
    <path id="Path_3280" data-name="Path 3280" d="M27.507,72.843l.333-.01-.495-.162Z" fill="#4d4d4d"/>
    <path id="Path_3281" data-name="Path 3281" d="M57.784,31.67c.073.055.265.1.253,0l-.3-.156Z" fill="#4d4d4d"/>
    <path id="Path_3282" data-name="Path 3282" d="M58.542,31.292a1.022,1.022,0,0,0-.668-.366c.274.19.14.174.47.39.011.094-.146.113-.258.064.072.054-.109.107.075.213.279-.033.331-.167.172-.372a.417.417,0,0,1,.209.071" fill="#4d4d4d"/>
    <path id="Path_3283" data-name="Path 3283" d="M61.527,23.327l-.054.041a.093.093,0,0,0,.054-.041" fill="#4d4d4d"/>
    <path id="Path_3284" data-name="Path 3284" d="M63.244,18.351a.073.073,0,0,0,.05.077c-.009-.042-.02-.077-.05-.077" fill="#4d4d4d"/>
    <path id="Path_3285" data-name="Path 3285" d="M63.856,17.6l-.037.044c.035-.01.057-.025.037-.044" fill="#4d4d4d"/>
    <path id="Path_3286" data-name="Path 3286" d="M61.527,23.327l.141-.1c-.1-.041-.1.046-.141.1" fill="#4d4d4d"/>
    <path id="Path_3287" data-name="Path 3287" d="M58.122,29.938a.212.212,0,0,0,.061.1.454.454,0,0,1-.013-.078Z" fill="#4d4d4d"/>
    <path id="Path_3288" data-name="Path 3288" d="M61.1,25.622l-.013.041.118.073Z" fill="#4d4d4d"/>
    <path id="Path_3289" data-name="Path 3289" d="M60.629,27.338c.023-.035-.241-.131-.354-.182.1.056.148.1.158.141a1.177,1.177,0,0,0,.2.041" fill="#4d4d4d"/>
    <path id="Path_3290" data-name="Path 3290" d="M59.328,29.891l.023.059c-.007-.016-.015-.039-.023-.059" fill="#4d4d4d"/>
    <path id="Path_3291" data-name="Path 3291" d="M61.535,24.422a.51.51,0,0,0,.1.014.355.355,0,0,0-.1-.014" fill="#4d4d4d"/>
    <path id="Path_3292" data-name="Path 3292" d="M86.682,1.272l.037.033c-.014-.027-.027-.042-.037-.033" fill="#4d4d4d"/>
    <path id="Path_3293" data-name="Path 3293" d="M89.111.68,89.1.711l.11.113Z" fill="#4d4d4d"/>
    <path id="Path_3294" data-name="Path 3294" d="M64.683,16.134l-.007,0c.018.051.019.026.007,0" fill="#4d4d4d"/>
    <path id="Path_3295" data-name="Path 3295" d="M72.985,22.607c-.061-.521.366-.039.239-.7-.007.181-.383.213-.239.7" fill="#4d4d4d"/>
    <path id="Path_3296" data-name="Path 3296" d="M58.171,29.905a.3.3,0,0,1,.019-.071.089.089,0,0,0-.019.071" fill="#4d4d4d"/>
    <path id="Path_3297" data-name="Path 3297" d="M73.224,21.905v0l-.012-.061c.005.026.007.042.011.064" fill="#4d4d4d"/>
    <path id="Path_3298" data-name="Path 3298" d="M65.117,15.067c0-.059-.008-.105-.012-.151,0,.034.006.074.012.151" fill="#4d4d4d"/>
    <path id="Path_3299" data-name="Path 3299" d="M64.381,15.179l.044-.015c-.027,0-.038.007-.044.015" fill="#4d4d4d"/>
    <path id="Path_3300" data-name="Path 3300" d="M65.912,15.1c.018.039.007.078.07.075a.2.2,0,0,0,.006-.037c-.036.021-.066.023-.076-.038" fill="#4d4d4d"/>
    <path id="Path_3301" data-name="Path 3301" d="M67.119,15.948l.012-.061-.047-.016Z" fill="#4d4d4d"/>
    <path id="Path_3302" data-name="Path 3302" d="M83.75,4.955a1.24,1.24,0,0,1,.242.1c-.171-.105-.087-.329-.242-.1" fill="#4d4d4d"/>
    <path id="Path_3303" data-name="Path 3303" d="M58.273,29.984c-.065-.029-.095-.052-.1-.079a.236.236,0,0,0,0,.053.229.229,0,0,0,.1.026" fill="#4d4d4d"/>
    <path id="Path_3304" data-name="Path 3304" d="M67.189,13.285l.188.178a.748.748,0,0,0-.188-.178" fill="#4d4d4d"/>
    <path id="Path_3305" data-name="Path 3305" d="M77.465,14.081v-.066c-.017.016-.021.037,0,.066" fill="#4d4d4d"/>
    <path id="Path_3306" data-name="Path 3306" d="M68.022,13.863a.493.493,0,0,0,0,.242.314.314,0,0,0,.066-.041Z" fill="#4d4d4d"/>
    <path id="Path_3307" data-name="Path 3307" d="M83.994,5.058h0Z" fill="#4d4d4d"/>
    <path id="Path_3308" data-name="Path 3308" d="M84.5,3.379c-.155.177.209.316.34.49-.095.282-.291-.073-.5-.119-.035.2.143.516.05.607-.053-.031-.087-.025-.127-.1.113.328-.338.431-.18.832a.3.3,0,0,1-.09-.036,2.241,2.241,0,0,1,.417.291c-.059.086.064.3-.149.177.045-.045-.028-.11-.069-.181l.015.151c-.333-.138,0-.191-.2-.351-.044.238.029.611-.149.679-.289-.183.146-.372-.226-.386l.258-.119c-.54-.18.125-.1-.435-.314-.284.2-.1.4-.38.6.1.175.236.152.339.327-.023.578-.907-.228-.758.326.125.21.447.5.117.557l-.256-.3c-.225.236.33.48-.08.595-.084-.139.051-.279-.015-.268-.374-.006.081.255-.02.389l-.294-.175c-.167.306-.189.76-.361,1.105-.07-.077-.118-.192-.254-.181a2.214,2.214,0,0,1-1.065,1.077l.14.313c-.027.032-.153-.012-.174-.082-.195.086.147.114.193.252-.042.1-.216.015-.252-.089.021.4-.075,1.048-.518,1.155l-.036-.1c-.245.153.336.58-.025.63l-.018-.068c-.424.4-.535,1.073-1.14,1.2.313.3-.462.374.017.719-.422.117-.459-.016-.866.27-.087.09.218.349.192.509l-.265-.158.17.343-.372-.1-.006.162a.251.251,0,0,1,.252.023c0,.26-.465.347-.6.272l-.041.584c-.1-.073-.093-.17-.126-.27.13.4-.305-.121-.186.246.077.006.148.11.2.146-.225.016-.374.266-.414.491l-.163-.142a9.372,9.372,0,0,0-.537,1.14c.163-.088.466.124.435.252l-.309-.115c.135.171.172-.055.305.212-.112.123-.377-.085-.424-.219l0,.228c-.091-.037-.113-.1-.215-.174.137.169-.454.14-.2.413l-.09-.037c-.213.381-.206.611-.36.931.244.139.124.232.274.432-.2.186-.537.336-.657.628.023.261.182.167.284.332-.234-.1-.356.186-.445-.043-.089.218-.057.185-.055.253s.034.127.06.3c.08.075.127.084.18.171.005.082-.12,0-.194-.126l-.013-.033c.07.285-.118.252-.219.08-.113-.147-.145-.416-.113.117l0-.053c0,.08,0,.2,0,.261a1.392,1.392,0,0,1-.035.21c-.045-.139.011-.308-.026-.627-.021.329-.074.226-.1.138s-.032-.184-.118-.064c.263-.9-.163-.137-.116-.843l-.123.132c-.2.026,0-.166-.025-.255-.1.1-.048.193-.166.2-.743-.573-1.043-1.61-1.61-2.409-.216-.282-.785.51-.8-.095l.32-.152c-.779-.2-1.041-1-1.79-1.183.08-.033.145-.108.2-.064.043-.276-.406-.354-.531-.2-.068-.085.093-.153.1-.273-.026-.2-.479.014-.392-.222.014-.039.081-.036.114-.034-.147.033-.333-.3-.43-.021-.121-.267-.468-.2-.535-.451-.289.173-.269-.383-.559-.046.276-.36-.167-.556-.418-.47.121-.083-.039-.2.118-.32-.159-.1-.352-.118-.449.094.048-.288-.325-.4-.56-.436-.252-.048-.427-.061-.507-.505l-1.136-.28-.475-.128-.222-.065-.108-.033c-.041-.027-.028.082-.045.116-.056-.146-.1-.342-.058-.382a.573.573,0,0,1,.232.073c.176.08.348.154.254-.166a1.343,1.343,0,0,0-.406-.031c-.051.017-.119-.018-.144.048q-.009.165-.018.324a2.351,2.351,0,0,1-.2,1c-.1.106-.108-.3-.139-.453a17.084,17.084,0,0,0-.459,2.143c-.039-.017-.061-.1-.072-.182-.025.13-.153.272.045.323l-.016-.136c.168-.04.274.144.369.306a1.082,1.082,0,0,0,.256.312c-.522-.3-.257.335-.9-.087a.312.312,0,0,0,.23.181c-.06.062-.144.062-.27-.059.023.3.261.272.182.515-.095-.03-.116-.091-.22-.15.147.181.294.362.15.544-.054-.03-.135-.028-.115-.09-.08.365.307.758.008,1.093-.377-.242-.176.091-.539,0l.042.242.2-.031c-.063.182.147.424-.018.546l-.1-.181-.038.365.195-.154c.127.243.458.119.283.333-.021-.061-.06.182-.3.214h0c.086.125.176.256.046.364-.125,0-.386-.149-.469-.15.271.182-.049.456.234.667a.672.672,0,0,0-.292-.119l.219.149c-.1.062-.145.062-.29,0-.123.242.478.058.19.3-.013-.029-.053-.029-.074-.09-.195.274-.027.637-.232.88-.385-.027-.013-.272-.345-.27-.059.424.173.969-.031,1.335L61.1,21.5c.49.21-.34.214-.162.485-.023-.06-.262-.149-.209-.119-.164.243-.044.586-.009,1.041l-.115-.09c-.165.122-.2.4-.306.547.114.091.063.182.271.181-.9.3.089,1.125-.672,1.4.016-.057-.073-.168-.087-.124l0,.434c.23.037.15-.011.347-.042a.351.351,0,0,1,.153.333c-.092-.224-.356-.108-.5-.068.071.008.138.057.209.072-.457.087.433.171.082.373l-.112-.051c.027.125.15.269.082.374-.27-.031-.085-.15-.293-.222-.034.166.387.466.088.533-.05-.09-.021-.188-.071-.278-.349.066-.278.108-.362.211l.01-.01-.219.231.1-.045c.6.406,0,.447.349.852-.332-.39-.226-.117-.509-.226-.1.044-.224.122-.3.067.194.2-.25.157.036.443-.1-.021-.051.134-.276.033.022.189.174.011.287.06.239.355-.572.485-.248.988.082.374.378.529.444.872-.179.054-.314-.186-.314-.186a.316.316,0,0,0-.138.432c-.072-.056-.151-.045-.27-.031-.013.129.315.185.128.3a1.824,1.824,0,0,1-.337-.237c.042.17.172.365.211.539-.175-.011-.219-.165-.309-.25.022.189.014.477.256.607l.125-.078c-.007.064-.231-.037-.264-.1-.158-.2.152-.179.248-.158l.028.124c.58.059.042-.451.139-.654l.371.21-.263-.319c.117-.015.349.022.376.145.244-.092-.1-.178.16-.242a.062.062,0,0,1,.067.027l-.073-.186c.075.055.289.062.2.136.312-.2-.166-.523.167-.531l.017.03c-.02-.413-.281-.126-.538-.509l.778.034-.281-.127a.125.125,0,0,1,.18-.054c-.156-.2-.135-.014-.3-.155.323-.1.032-.546.509-.445-.2-.134-.225.124-.319-.12.518.1-.016-.254.266-.352.242.131.056.249.338.151-.4-.235.2-.3.156-.466-.345-.113-.05-.353-.092-.627.112.051.328-.389.522-.572l.056.024c-.338-.151-.2-.359-.223-.548.208.072.282.127.348.246l.047-.157a.306.306,0,0,1-.155-.252l.25.12c.05-.213-.18-.515.078-.729-.241-.09-.747,0-.824-.329.136.03.365.089.4.18-.01-.03-.084-.121-.012-.152l.188.181c.135-.092-.167-.121-.116-.212.188.06.157-.031.3.029.011.031-.1.061-.041.121a.49.49,0,0,1,.377-.2c-.111-.023-.255-.078-.254-.166.05-.212.249,0,.383-.093-.116-.091.061-.182-.22-.272.02-.061.155-.031.239-.032-.092-.146.119-.514-.219-.485l-.028.022-.007-.021c-.172-.44.385-.685.372-1.073l.094.03c-.043-.242.079-.485-.078-.7.019-.062.217-.093.322-.032-.022-.182-.123-.232.1-.416.115.212.163-.01.07.2.145-.183.311-.183.121-.486.219.151.353-.062.311-.183l-.218.092a.6.6,0,0,1,.1-.305l.3.151c.517-.306-.423-.969.324-1.094-.188-.18-.228.183-.457,0,.1-.183.622-.246.642-.307.258-.214-.388-.393-.181-.636-.125,0-.438-.058-.481-.3.1-.183.55-.094.6.057a.058.058,0,0,1-.085.048c.021.076.045.174.191.134l-.1-.06c.145-.062.216-.335.382-.214-.062-.181-.166-.121-.259-.029.242-.2.126-.391.315-.615-.075.021-.22.018-.206-.022.257-.336-.164-.233-.135-.5.218-.093.4.179.332-.124.165-.122.311.059.384.15-.146-.3.279-.4.36-.518l.054.152a.293.293,0,0,1,.008-.213h-.249c.062-.061.082-.122.176-.092-.126-.12-.395-.058-.552-.269.145-.062-.033-.334.278-.275-.2.274.313.059.282.332a.168.168,0,0,1,.062-.182.081.081,0,0,1,.07.055c.359-.21-.3-.239-.2-.54.158.091.343.029.322-.032-.041.121-.3-.028-.4-.18.17-.083-.064-.143-.029-.2l-.078.033c-.157-.092-.116-.146-.138-.266.123.071.06.128.123.131-.238-.288.333.017.186-.222.108.059.262.282.333.33-.149-.3.195.194.074-.062a1.715,1.715,0,0,1-.264-.546,3.315,3.315,0,0,0,.064.364,4,4,0,0,1-.207-.508c-.026.074.062.308.022.3-.124-.261-.078-.207-.237-.365.288.281-.07-.482.138-.337l.375.793c.144.222-.041-.457.19-.18l-.079-.164c-.039-.3.107.017.15-.067.015.24.054.346.072.5,0-.172.074.059.149-.358a2.1,2.1,0,0,1,.025.318c.066.165.326-.459.55-.239-.182.139-.177.308-.38.361.035.025.124.124.189,0-.019.134.379-.076.35.134.083-.048.209-.213.293-.135a.226.226,0,0,1-.055.08c.055-.08.221-.01.262-.246-.091.676.74.466.643,1.052a2.979,2.979,0,0,1,.626.3c-.047.038-.062.076-.079.037.1.313.49-.343.6.019-.08.35-.237.027-.237.185-.379.53.345.172.261.6l-.063,0c-.021.266.454.065.619.274a.258.258,0,0,0-.066.073,1.2,1.2,0,0,1,.929.128c-.232.131-.176.019-.318.241.108.051.26-.326.476-.221a1.079,1.079,0,0,1-.184.565l-.164-.135c-.169.332.208.177.244.3l-.12.1c.263.192.545-.081.773.188l.059-.108c.416-.133-.045.267.3.207l-.247.314a2.783,2.783,0,0,1,.792.183,2.362,2.362,0,0,1-.833.008c.083.093.309.288.5.2-.062-.011-.177.008-.166-.069a.65.65,0,0,1,.744.148c-.6.469.287.619-.058,1.143.262.1.321.2.532.581a6.24,6.24,0,0,0,.643,1.062c.106-.875.16.2.394-.524.113.091.144.152.139.213q.081.431.213.936c.045.376-.144.031-.17.232.268.466.055.533.231,1.072,0-.388.147-.338.3.034l-.191-.772c.2.006.256.311.34.657s.181.716.367.7a1.827,1.827,0,0,1-.113.176,1.31,1.31,0,0,1,.268.277,4.2,4.2,0,0,0,.4-1.78.575.575,0,0,1,.09.456,6.052,6.052,0,0,0,.479-1.419c.128-.494.23-.867.471-1.012l.08.176c.04-.178-.094-.445.1-.5.044.05.088.156.127.1,0-.115-.034-.507.125-.625l.068.235a1.39,1.39,0,0,0,.159-.225.4.4,0,0,0,.046-.136.814.814,0,0,0-.027-.3,1.46,1.46,0,0,1-.092-.618.7.7,0,0,0,.827-.156l.052.035c.295-.43.091-.953.179-1.456.566-.028.668-.788,1.142-1.069-.107.023-.291-.182-.286-.278.134-.052-.106-.423.234-.2l-.027.031c.385.126.41-.126.511-.277L78.7,15.9c.9-.018.4-1.211,1.121-1.075-.053-.166.022-.286-.031-.452l.238.154a1.875,1.875,0,0,0,.493-.71l.128.175c.133-.174-.54-.671-.444-.853l.389.176c.2-.329.721-.453.613-.978.049.039.144.116.124.177.11-.145.625-.423.107-.691.316.207.25-.309.228-.577l.212.184c-.195-.345-.272-.4-.213-.662.063-.028.213.084.11.107.231-.077-.131-.274.126-.383l.1.173c.132-.152.044-.193-.063-.4-.02-.168.274-.272.5-.151-.111-.111-.216-.319-.09-.374a.226.226,0,0,1,.122.145c.348-.161.027-.591.384-.619A.309.309,0,0,0,83,9.328c-.161.211-.3.375-.3.347.209.149.37,0,.56.346-.058-.25-.228-.734-.008-.832a.4.4,0,0,1,.088.03l.011.034c.049-.024.055-.073.044-.131a.354.354,0,0,0,.163-.094c.186.105.235-.131.306-.21-.231-.16-.111-.245-.377-.278.027,0,.015.036-.017.1a.114.114,0,0,0,0,.055l-.015-.021-.141.226c-.066-.152-.11-.3.084-.3-.113-.151-.227-.31-.276-.389.4.115.743.017.96.13.069-.354.376-.673.081-1.158,0-.116.184.006.271.03.01.074-.035.12.008.19,0-.232.3-.465.031-.727.276-.082.187.312.338.022l.062.1c.85-.129-.105-1.4.933-1.466a.2.2,0,0,1-.153-.017c.757-.41.815-1.473,1.73-1.73.225-.1.066-.271.021-.492l.26.162-.107-.4c.031-.419.935.063.855-.573l-.188-.1c.128-.088.236-.433.391-.258-.017-.036-.123-.179,0-.151l.119.1.053-.457c.28-.133.43.459.736.174.061-.155-.035-.64-.151-.67a.25.25,0,0,1-.3-.054L89.1.711C88.781.373,88.512-.038,88.032,0L88.07.38,87.851.285l.132-.164c-.236-.058-.15.126-.113.276a.429.429,0,0,0-.253-.092l.16.481c-.154-.1-.191-.325-.377-.273.074.224.375.2.347.427-.237-.056-.341-.2-.3.027a.26.26,0,0,1-.14-.216c.022.189-.18.283-.038.5-.276-.082-.228.36-.548.057a.735.735,0,0,1,.051.492c-.256-.507-.307.3-.7-.116.253.429-.214.558-.19.941-.018-.037-.057-.109-.023-.112-.13.092-.267.033-.4.05.285.27.2.511.3.765-.411-.1-.277-.384-.592-.574.248.2.028.455.272.577-.272-.041-.167.021-.464-.131.359.334-.025.156.13.441-.318.007-.387-.252-.418.021-.185-.01-.189-.28-.189-.28M81.82,8.22l0,0,.053-.1-.049.1m-.264.373a.858.858,0,0,0,.125-.154c.088.044.159.116.128.15-.038-.058-.146,0-.253,0m2.137.369c-.009.081-.068.067-.12.041a.544.544,0,0,0,.045-.12L83.6,8.856a.7.7,0,0,1,.1.106" fill="#4d4d4d"/>
    <path id="Path_3309" data-name="Path 3309" d="M83.47,8.641c0-.012-.005-.024,0-.036a.516.516,0,0,0-.076,0l.056.073Z" fill="#4d4d4d"/>
    <path id="Path_3310" data-name="Path 3310" d="M61.464,23.375l.009-.007a.116.116,0,0,1-.044.007h.035" fill="#4d4d4d"/>
    <path id="Path_3311" data-name="Path 3311" d="M77.613,13.572l.061.037-.032-.067Z" fill="#4d4d4d"/>
    <path id="Path_3312" data-name="Path 3312" d="M59.809,25.477a.152.152,0,0,0-.078.01.2.2,0,0,0,.078-.01" fill="#4d4d4d"/>
    <path id="Path_3313" data-name="Path 3313" d="M59.433,26.489l-.14.116a.577.577,0,0,0,.14-.116" fill="#4d4d4d"/>
    <path id="Path_3314" data-name="Path 3314" d="M59.056,27.24a1.076,1.076,0,0,0,.11.051h0Z" fill="#4d4d4d"/>
    <path id="Path_3315" data-name="Path 3315" d="M62.652,14.4a.181.181,0,0,0,0-.057c-.012-.146-.018-.052,0,.057" fill="#4d4d4d"/>
    <path id="Path_3316" data-name="Path 3316" d="M62.085,18.488a.77.77,0,0,1-.09-.16c-.041.061-.062.111.09.16" fill="#4d4d4d"/>
    <path id="Path_3317" data-name="Path 3317" d="M67.168,13.265l0,0,.024.016Z" fill="#4d4d4d"/>
    <path id="Path_3318" data-name="Path 3318" d="M62.053,18.156a.134.134,0,0,0-.058.173c.035-.049.082-.1.058-.173" fill="#4d4d4d"/>
    <path id="Path_3319" data-name="Path 3319" d="M57.88,30.637l-.023.035a.139.139,0,0,1,.042.018Z" fill="#4d4d4d"/>
    <path id="Path_3320" data-name="Path 3320" d="M57.9,30.689l.019.052a.037.037,0,0,0-.019-.052" fill="#4d4d4d"/>
    <path id="Path_3321" data-name="Path 3321" d="M57.958,30.851l-.04-.11c-.01.031-.031.066.04.11" fill="#4d4d4d"/>
    <path id="Path_3322" data-name="Path 3322" d="M58.326,29.626l-.094-.042a.373.373,0,0,0,.094.042" fill="#4d4d4d"/>
    <path id="Path_3323" data-name="Path 3323" d="M58.4,29.3c-.045.069-.266.127-.238.252l.075.033c-.13-.094.3-.162.163-.285" fill="#4d4d4d"/>
    <path id="Path_3324" data-name="Path 3324" d="M60.009,28.338l-.16.243c.118-.015.277-.033.264.1.413-.242-.253,0-.1-.339" fill="#4d4d4d"/>
    <path id="Path_3325" data-name="Path 3325" d="M60.414,27.556c0,.158.151.045.208.07-.067-.12-.084-.149-.208-.07" fill="#4d4d4d"/>
    <path id="Path_3326" data-name="Path 3326" d="M62.252,21.572l.24.089c0-.121-.094-.03-.24-.089" fill="#4d4d4d"/>
    <path id="Path_3327" data-name="Path 3327" d="M61.339,20.04l-.185.061.208.12Z" fill="#4d4d4d"/>
    <path id="Path_3328" data-name="Path 3328" d="M63.289,19.9l.02.059-.032-.212Z" fill="#4d4d4d"/>
    <path id="Path_3329" data-name="Path 3329" d="M66.76,15.993l.159-.274c-.1,0-.315.278-.159.274" fill="#4d4d4d"/>
    <path id="Path_3330" data-name="Path 3330" d="M70.276,18.634c-.079.144-.064.3.1.251-.051-.088-.034-.243-.1-.251" fill="#4d4d4d"/>
    <path id="Path_3331" data-name="Path 3331" d="M79.154,15.907l.045.131.01-.191Z" fill="#4d4d4d"/>
    <path id="Path_3332" data-name="Path 3332" d="M78.669,33.991a2.375,2.375,0,1,1-2.374-2.374,2.374,2.374,0,0,1,2.374,2.374" fill="#4d4d4d"/>
    <path id="Path_3333" data-name="Path 3333" d="M78.254,33.991c.054.008.176,0,.15-.016l-.207-.011Z" fill="#4d4d4d"/>
    <path id="Path_3334" data-name="Path 3334" d="M78.629,33.848a1.447,1.447,0,0,0-.466,0c.2.006.117.016.353.028.026.019-.064.038-.14.037.053.005-.044.031.086.038.159-.028.163-.068.03-.094a.652.652,0,0,1,.137-.007" fill="#4d4d4d"/>
    <path id="Path_3335" data-name="Path 3335" d="M77.838,31.823l0,.029a.038.038,0,0,0,0-.029" fill="#4d4d4d"/>
    <path id="Path_3336" data-name="Path 3336" d="M76.478,31.223c.012,0,.018-.025.02-.043a.057.057,0,0,0-.02.043" fill="#4d4d4d"/>
    <path id="Path_3337" data-name="Path 3337" d="M76.211,30.991l.017.013c-.007-.018-.014-.029-.017-.013" fill="#4d4d4d"/>
    <path id="Path_3338" data-name="Path 3338" d="M77.838,31.823l.005-.077c-.04.054-.012.053-.005.077" fill="#4d4d4d"/>
    <path id="Path_3339" data-name="Path 3339" d="M78.106,33.653a.188.188,0,0,0,.055.005l-.023-.01Z" fill="#4d4d4d"/>
    <path id="Path_3340" data-name="Path 3340" d="M78.442,32.149l.009.009.071-.046Z" fill="#4d4d4d"/>
    <path id="Path_3341" data-name="Path 3341" d="M78.774,32.564a1.2,1.2,0,0,0-.221.106.272.272,0,0,1,.116-.04l.105-.066" fill="#4d4d4d"/>
    <path id="Path_3342" data-name="Path 3342" d="M78.782,33.419l.027.008Z" fill="#4d4d4d"/>
    <path id="Path_3343" data-name="Path 3343" d="M78.2,31.852l.038-.05Z" fill="#4d4d4d"/>
    <path id="Path_3344" data-name="Path 3344" d="M77.809,34.325l.03.007a.119.119,0,0,0-.03-.007" fill="#4d4d4d"/>
    <path id="Path_3345" data-name="Path 3345" d="M78.714,33.991l.009.007.1,0Z" fill="#4d4d4d"/>
    <path id="Path_3346" data-name="Path 3346" d="M75.653,30.827l0,0c.011-.022,0-.017,0,0" fill="#4d4d4d"/>
    <path id="Path_3347" data-name="Path 3347" d="M73.266,34.646c.141-.083.217.039.368-.073-.065.023-.285-.014-.368.073" fill="#4d4d4d"/>
    <path id="Path_3348" data-name="Path 3348" d="M78.127,33.64a.018.018,0,0,1,0-.014c0,.008,0,.012,0,.014" fill="#4d4d4d"/>
    <path id="Path_3349" data-name="Path 3349" d="M73.634,34.573h0l.015-.011Z" fill="#4d4d4d"/>
    <path id="Path_3350" data-name="Path 3350" d="M74.536,31.41a.594.594,0,0,0,.053.056.309.309,0,0,0-.053-.056" fill="#4d4d4d"/>
    <path id="Path_3351" data-name="Path 3351" d="M75.44,31.247l-.027-.015c.013.012.021.015.027.015" fill="#4d4d4d"/>
    <path id="Path_3352" data-name="Path 3352" d="M74.333,31.892c-.018,0-.037-.017-.033.011l.019.012c-.013-.021-.015-.035.014-.023" fill="#4d4d4d"/>
    <path id="Path_3353" data-name="Path 3353" d="M74.024,32.232l.033.015V32.23Z" fill="#4d4d4d"/>
    <path id="Path_3354" data-name="Path 3354" d="M77.542,35.048l.129.092c-.1-.077-.106-.133-.129-.092" fill="#4d4d4d"/>
    <path id="Path_3355" data-name="Path 3355" d="M78.2,33.635a.255.255,0,0,1-.076.005l.011.008.065-.013" fill="#4d4d4d"/>
    <path id="Path_3356" data-name="Path 3356" d="M75.269,32.908l-.047.007a.051.051,0,0,0,.047-.007" fill="#4d4d4d"/>
    <path id="Path_3357" data-name="Path 3357" d="M75.836,35.586l.015-.018c0-.005-.008,0-.015.018" fill="#4d4d4d"/>
    <path id="Path_3358" data-name="Path 3358" d="M75.165,33.017a.542.542,0,0,0-.108-.062l.032.032Z" fill="#4d4d4d"/>
    <path id="Path_3359" data-name="Path 3359" d="M77.673,35.141h0Z" fill="#4d4d4d"/>
    <path id="Path_3360" data-name="Path 3360" d="M77.485,34.684c-.022.026.185.13.294.205.029.078-.156-.07-.263-.12.039.055.2.193.179.207a.491.491,0,0,1-.082-.057c.128.133-.046.078.108.255l-.048-.033.248.2c-.013.019.081.127-.039.035.013-.008-.032-.048-.064-.083l.034.06c-.177-.128-.035-.073-.158-.176.028.074.124.235.056.219-.157-.142,0-.105-.167-.2l.092.019c-.273-.2.035,0-.253-.219-.081,0,.041.121-.044.114.073.093.125.122.2.216.072.22-.406-.351-.262-.1.079.118.239.331.113.249l-.135-.2c-.056.012.18.3.035.2-.045-.084-.01-.093-.033-.11-.14-.131.057.127.031.147L77.2,35.34c-.031.053-.007.226-.057.293a.629.629,0,0,0-.09-.172c-.027.134-.177.053-.282-.045l.029.184a.261.261,0,0,1-.04-.111c-.049-.059.032.112.038.184-.015.017-.052-.1-.057-.151,0,.161-.085.369-.179.18l0-.055c-.053-.067,0,.379-.071.218l0-.034c-.109-.071-.236.1-.3-.182-.035.263-.086-.12-.133.24A2.033,2.033,0,0,0,76,35.505c-.015-.018-.074.219-.111.25l.042-.188-.082.187.039-.227-.036.041a.4.4,0,0,1-.019.142c-.065.075-.057-.154-.023-.248l-.138.122a.635.635,0,0,1,.082-.133c-.114.167.066-.192-.038-.038a1.131,1.131,0,0,1-.062.141c.022-.114-.015-.138-.07-.108l.064-.117c-.039-.051-.141,0-.2-.043a.639.639,0,0,1-.173.261l.1-.173c-.083.1-.021.076-.134.187-.013-.038.115-.2.163-.247l-.066.037.1-.134c-.084.094.08-.2-.065-.031l.035-.049c-.053-.037-.116-.011-.167-.039-.121.126-.112.083-.226.17.006-.077.075-.207.028-.234-.092.026-.122.086-.214.137.122-.1.078-.138.186-.186-.057-.038-.078-.039-.229-.045a.609.609,0,0,1-.117.093c-.032,0,.036-.069.1-.107l.016,0c-.271.021.312-.4-.015-.32l.017,0-.189-.012c.014-.044.121-.02.2-.077-.286.006.005-.13-.187-.149.453-.138-.069-.178.232-.278l-.111.011c-.109-.011.062-.025.087-.038a.736.736,0,0,1-.159.016c-.145-.159.171-.315.3-.4.04-.036-.547-.177-.275-.176l.193.079c-.2-.183.079-.195-.057-.384.038.029.092.058.087.067.141.053.049-.065-.054-.131.021-.008.1.054.154.078.085.03-.132-.154,0-.081a.143.143,0,0,1,.043.042c-.051-.052.056-.042-.092-.132.091.017-.013-.114.089-.076-.131-.142.118.01-.079-.18.207.193.21.1.142-.011.053.068.079.049.152.142.018-.021,0-.078-.1-.184.253.22-.076-.287.212.036a.709.709,0,0,1,.055-.412c.127.248-.073.073.079.327,0-.141-.056-.372.049-.351.035.026.037.118.052.164.028-.139.146-.031.169-.2a.253.253,0,0,1,.007.076c.011-.012.043.032.006-.09l0,.036a1.515,1.515,0,0,1-.062-.485c.064.362.105.068.169.53a.559.559,0,0,0-.019-.171c.02.02.034.068.041.167.034-.082-.009-.208.041-.214.011.061,0,.086.013.159,0-.122.01-.246.061-.2,0,.038.013.085,0,.086.063-.033.1-.331.194-.221-.017.27.031.087.038.319l.04-.069L76.3,32.1c.037.007.079-.161.11-.083l-.034.094.075-.04-.036-.091c.05-.117.014-.294.069-.226-.014.023.047,0,.053.146.029-.07.063-.144.087-.082,0,.075-.044.254-.047.3.049-.189.1-.042.166-.238a1.168,1.168,0,0,0-.046.19l.049-.15a.348.348,0,0,1-.019.173c.047.042.049-.292.087-.151a.41.41,0,0,1-.028.055c.047.08.159-.065.195.034-.061.228-.069.036-.113.23.085-.015.269-.2.326-.108l0-.031c.158-.29-.013.175.1.056a.7.7,0,0,0-.08.123c.022.077.138-.013.276-.047l-.057.063c-.015.084.048.091.054.143.061-.06.07-.036.136-.141-.228.439.357-.037.145.332-.009-.008-.074.03-.068.037l.116.011a.689.689,0,0,0,.13-.154c.072-.047.142-.069.159-.05-.1.028-.176.149-.229.213l.108-.086c-.171.2.231-.174.138-.01l-.062.043c.046,0,.142-.042.142-.006-.129.106-.081.022-.192.1.028.022.307-.119.187.006-.048.011-.061-.01-.109,0-.139.14-.1.116-.111.155l0-.005-.045.1.038-.04c.395-.183.12.034.4-.04-.267.067-.142.063-.312.146a.423.423,0,0,1-.134.1c.149-.043-.09.089.128.028-.054.027.008.028-.135.084.058.01.094-.049.164-.077.218-.025-.191.206.106.183a3.239,3.239,0,0,1,.45.043.45.45,0,0,1-.221.032c-.078.059-.053.079.021.1a.565.565,0,0,0-.161.042c.019.023.22-.021.137.031l-.244.015c.059.019.176.033.236.06a.782.782,0,0,1-.233,0,.444.444,0,0,0,.276.076l.058-.031c.009.014-.142.021-.174.015-.136-.017.051-.052.111-.063l.042.02c.35-.071-.073-.1-.059-.145l.259-.024-.22-.015a.533.533,0,0,1,.247-.043c.118-.067-.1-.015.033-.081a.073.073,0,0,1,.044-.008L78.7,33.4c.055,0,.176-.051.146-.017.125-.114-.218-.067-.036-.148h.017c-.115-.074-.185.044-.421.046l.426-.2-.182.055c0-.012.009-.037.081-.06-.135.009-.075.035-.2.058.146-.113-.124-.091.147-.225-.14.044-.081.089-.2.083.289-.152-.077-.031.038-.137.156-.064.1.019.21-.093-.265.1.013-.116-.06-.128-.2.111-.128-.029-.227-.047.069-.04.029-.175.053-.279l.031-.021c-.19.129-.192.048-.261.044a.544.544,0,0,1,.219-.133l-.033-.036a.222.222,0,0,1-.143.048l.137-.1c-.054-.043-.232.041-.209-.1-.112.113-.271.354-.4.382a.958.958,0,0,1,.2-.184c-.013,0-.067.036-.052,0l.124-.084c.018-.07-.1.075-.108.048.085-.09.045-.078.114-.147.014,0-.016.054.025.026a.325.325,0,0,1,.063-.2c-.044.055-.11.124-.138.12-.052-.034.081-.126.093-.2-.065.054-.043-.039-.159.1-.014-.012.037-.081.062-.125-.077.044-.139-.075-.224.106v.015l-.009,0c-.18.088-.119-.2-.249-.191l.03-.053c-.087.03-.143-.025-.237.075-.015-.007.01-.12.047-.183-.063.022-.091.081-.117-.036.086-.083.02-.094.077-.055-.038-.071-.02-.17-.143-.035.077-.14.02-.2-.025-.171l.007.123c-.04.01-.063-.013-.088-.036l.078-.193c-.077-.283-.341.35-.351-.08-.062.137.054.112-.012.273-.049-.036-.065-.34-.087-.344-.076-.126-.122.286-.2.2a.6.6,0,0,1-.069.338c-.05-.03-.051-.313-.008-.371.015,0,.02.019.018.044a.135.135,0,0,0,.032-.138l-.014.074c-.025-.077-.113-.074-.087-.194a.114.114,0,0,0,.007.16c-.077-.109-.125-.013-.209-.079.015.041.028.127.015.127-.122-.086-.048.143-.122.179-.051-.11,0-.27-.075-.171a.312.312,0,0,1-.013-.256c-.065.144-.158-.075-.212-.095l.036-.066a.074.074,0,0,1-.066.044l.047.143c-.029-.022-.05-.019-.059-.08a2.484,2.484,0,0,1,.032.378c-.044-.069-.074.092-.124-.1.111.047-.052-.192.03-.238-.013.026-.034.028-.064.007a.074.074,0,0,1,0-.053c-.138-.147,0,.229-.1.248-.014-.11-.076-.2-.087-.17.043-.009.065.174.053.265-.084-.067-.048.079-.081.077l.047.029c.019.109-.013.1-.04.15-.03-.08.017-.069-.009-.1.021.2-.165-.154-.184-.007-.057-.059-.079-.193-.124-.23-.02.159-.141-.105-.172.039.085.124.071.091.083.246l.076-.152.012.233c.035-.013.035-.121.067-.1a.264.264,0,0,0,.065.2c-.135-.183-.034.16-.147.048l-.161-.331c-.167-.1-.064.244-.211.226l.067.035c.062.133-.052.055-.053.125a.7.7,0,0,0-.167-.183c.053.074-.08.048.056.254l-.14-.1c-.122.01.128.34.041.365-.068-.12-.157-.157-.172-.272-.024.02-.061.023,0,.087-.066-.044.048.18-.051.113.027.048.114.144.083.158a.317.317,0,0,1-.043-.043c.042.043.023.1.139.171-.336-.2-.144.189-.441.046a.711.711,0,0,1-.048.217c-.029-.024-.051-.034-.034-.037-.14.009.27.235.117.24-.194-.064-.067-.1-.146-.112-.353-.2-.013.123-.247.065l-.014-.025c-.146-.017.082.181.023.238a.35.35,0,0,0-.056-.026.645.645,0,0,1,.225.334c-.142-.074-.067-.06-.224-.1.01.039.247.08.268.152a1.5,1.5,0,0,1-.342-.033l.012-.064c-.225-.037-.02.084-.065.1l-.092-.031c0,.111.242.17.2.264l.074.005c.226.1-.142.019.026.106l-.245-.025a2.044,2.044,0,0,1,.254.229,1.056,1.056,0,0,1-.358-.21.143.143,0,0,0,.116.167c-.021-.017-.078-.043-.039-.054.183.07.278.132.27.2-.476-.036-.132.181-.493.246.178.131-.057.289,0,.461.356-.125.018.047.39-.037.03.03.029.043.005.052l-.194.16c-.1.055-.091-.015-.173.009-.006.093-.147.076-.229.163.128-.048.2-.022.159.043l.15-.119c.223.054-.273.2-.041.255l-.127,0c.088.038.085.239.394.164-.035.028-.123.086-.16.072.025.171.439.139.338.331l-.084.041c.039.01.17-.055.114.025-.033.02-.084.043-.08.057.036-.005.177-.035.155.026l-.1.037c-.007.2.339.023.46.058a.41.41,0,0,0-.177.406l-.029.026c.111.151.377.037.56.034-.1.3.2.286.263.5a.384.384,0,0,1,.138-.2c.009.066.169-.13.058.1l-.009-.01c-.079.236.022.214.077.239l.131-.3c-.017.511.416-.048.387.383.054-.07.1-.062.15-.138l-.033.174a.315.315,0,0,0,.286.064l-.038.124c.079.016.133-.5.192-.51l.008.264c.119.007.264.225.373-.019,0,.039,0,.115-.016.127.059.009.261.149.186-.205.035.232.135,0,.174-.11l.025.172c.01-.231,0-.29.051-.367.022.017.049.131.016.093.08.074,0-.17.092-.1l0,.113c.063,0,.042-.057.033-.192.012-.078.115.005.179.149-.024-.093-.04-.223.007-.193a.24.24,0,0,1,.029.111c.144.076.053-.244.186-.116a.356.356,0,0,0,.056.088c-.076.032-.139.051-.138.037.062.147.139.142.176.369.009-.137-.023-.413.069-.374l.034.045,0,.019c.021.007.027-.012.026-.042.031.012.052.022.071.013.073.111.106.02.14.007-.094-.148-.043-.146-.154-.248.011.008.006.021-.009.039a.049.049,0,0,0,0,.022l-.005-.014a.61.61,0,0,1-.065.052c-.021-.091-.038-.168.043-.1-.045-.1-.09-.213-.112-.263.163.188.312.25.408.364.026-.144.166-.2-.007-.494-.008-.049.085.051.127.082.01.036-.008.045.017.087-.014-.1.1-.139-.049-.312.122.028.121.179.163.085l.041.06c.417.092-.245-.6.241-.473a.173.173,0,0,1-.08-.027c.31-.091.069-.481.445-.57.086-.041-.05-.1-.143-.167L79,34.84l-.191-.128c-.135-.121.5-.052.221-.24l-.128-.007c.031-.039-.054-.142.09-.116-.022-.008-.129-.03-.061-.039l.1.011a1.936,1.936,0,0,0-.158-.121c.076-.076.39.045.415-.085a.589.589,0,0,0-.347-.122c-.006.018-.063.044-.162.043L78.723,34a2.883,2.883,0,0,0-.792.035l.175.051-.142.007-.007-.037c-.133.015-.017.032.063.053a.755.755,0,0,0-.155.007l.274.068a1.171,1.171,0,0,0-.288-.021c.124.035.256.007.334.052-.134.008-.24-.014-.132.026a.467.467,0,0,1-.152-.032c.086.033.029.06.18.1-.162-.007.028.086-.241.025a.559.559,0,0,1,.206.109c-.31-.118-.038.07-.374-.039.279.111.1.123.234.225-.021-.011-.063-.033-.048-.032-.032.017-.117-.01-.173-.017a1.455,1.455,0,0,1,.38.246,3.93,3.93,0,0,1-.46-.226c.18.081.155.133.307.2a1.083,1.083,0,0,1-.258-.093c.268.146.038.044.19.152-.151-.042-.253-.134-.193-.055a.515.515,0,0,1-.166-.115m-.315,1,0,0a.164.164,0,0,1,.016-.018l-.014.021m-.081.042a.072.072,0,0,0,.039-.011c.029.053.053.11.043.112-.013-.039-.048-.061-.082-.1m.785.958c-.008.034-.032.008-.052-.022a.119.119,0,0,0,.024-.039l-.009-.02.037.081" fill="#4d4d4d"/>
    <path id="Path_3361" data-name="Path 3361" d="M77.791,36.466V36.45c-.012-.01-.023-.019-.031-.027l.021.051Z" fill="#4d4d4d"/>
    <path id="Path_3362" data-name="Path 3362" d="M77.835,31.857v-.005l-.01.024Z" fill="#4d4d4d"/>
    <path id="Path_3363" data-name="Path 3363" d="M75.94,35.523l-.01.043.015-.036Z" fill="#4d4d4d"/>
    <path id="Path_3364" data-name="Path 3364" d="M77.871,32.707a.245.245,0,0,0-.031.034l.031-.034" fill="#4d4d4d"/>
    <path id="Path_3365" data-name="Path 3365" d="M77.971,32.915l-.036.06a.217.217,0,0,0,.036-.06" fill="#4d4d4d"/>
    <path id="Path_3366" data-name="Path 3366" d="M77.982,33.1l.068-.032h0Z" fill="#4d4d4d"/>
    <path id="Path_3367" data-name="Path 3367" d="M75.8,32.364l0,.009c0,.036,0,.02,0-.009" fill="#4d4d4d"/>
    <path id="Path_3368" data-name="Path 3368" d="M76.539,31.9a.758.758,0,0,1-.036.078c.013.016.024.021.036-.078" fill="#4d4d4d"/>
    <path id="Path_3369" data-name="Path 3369" d="M75.275,32.908l0,0,0,0Z" fill="#4d4d4d"/>
    <path id="Path_3370" data-name="Path 3370" d="M76.464,31.969c.012.036.025.028.039.005-.011-.012-.024-.031-.039-.005" fill="#4d4d4d"/>
    <path id="Path_3371" data-name="Path 3371" d="M78.112,33.8l-.007.008.028,0Z" fill="#4d4d4d"/>
    <path id="Path_3372" data-name="Path 3372" d="M78.134,33.8l.021.007s0-.008-.021-.007" fill="#4d4d4d"/>
    <path id="Path_3373" data-name="Path 3373" d="M78.2,33.824l-.045-.015c0,.007,0,.015.045.015" fill="#4d4d4d"/>
    <path id="Path_3374" data-name="Path 3374" d="M78.155,33.571l-.063.012.063-.012" fill="#4d4d4d"/>
    <path id="Path_3375" data-name="Path 3375" d="M78.121,33.511c-.01.02-.122.07-.078.081l.05-.01c-.094.013.136-.082.028-.071" fill="#4d4d4d"/>
    <path id="Path_3376" data-name="Path 3376" d="M78.756,32.942l-.019.092c.058-.037.136-.089.164-.06.151-.173-.133.075-.145-.032" fill="#4d4d4d"/>
    <path id="Path_3377" data-name="Path 3377" d="M78.737,32.676c.047.025.087-.047.121-.063-.068,0-.085.006-.121.063" fill="#4d4d4d"/>
    <path id="Path_3378" data-name="Path 3378" d="M77.426,31.459l.069-.143c-.041,0-.025.056-.069.143" fill="#4d4d4d"/>
    <path id="Path_3379" data-name="Path 3379" d="M76.861,32.125l-.008.1.055-.135Z" fill="#4d4d4d"/>
    <path id="Path_3380" data-name="Path 3380" d="M76.968,30.98l.021-.018L76.916,31Z" fill="#4d4d4d"/>
    <path id="Path_3381" data-name="Path 3381" d="M73.954,32.068l.158.117c-.011-.04-.177-.187-.158-.117" fill="#4d4d4d"/>
    <path id="Path_3382" data-name="Path 3382" d="M73.528,33.4c-.1-.007-.169.021-.078.063.018-.029.1-.043.078-.063" fill="#4d4d4d"/>
    <path id="Path_3383" data-name="Path 3383" d="M75.205,36.944l-.052.051.073-.031Z" fill="#4d4d4d"/>
    <path id="Path_3384" data-name="Path 3384" d="M87.729,33.46a2.374,2.374,0,1,1,3.062-1.378,2.374,2.374,0,0,1-3.062,1.378" fill="#4d4d4d"/>
    <path id="Path_3385" data-name="Path 3385" d="M87.876,33.072c-.026.047-.065.163-.038.146l.083-.189Z" fill="#4d4d4d"/>
    <path id="Path_3386" data-name="Path 3386" d="M87.878,33.474a1.443,1.443,0,0,0,.167-.435c-.076.184-.056.1-.151.321-.027.016-.013-.074.015-.145-.024.048-.013-.052-.067.067-.029.158.006.177.078.061a.65.65,0,0,1-.042.131" fill="#4d4d4d"/>
    <path id="Path_3387" data-name="Path 3387" d="M90.051,33.452l-.026-.012a.042.042,0,0,0,.026.012" fill="#4d4d4d"/>
    <path id="Path_3388" data-name="Path 3388" d="M91.094,32.394c0,.013.016.026.033.034a.056.056,0,0,0-.033-.034" fill="#4d4d4d"/>
    <path id="Path_3389" data-name="Path 3389" d="M91.406,32.226l-.018.011c.019,0,.031,0,.018-.011" fill="#4d4d4d"/>
    <path id="Path_3390" data-name="Path 3390" d="M90.051,33.452l.07.032c-.036-.057-.046-.03-.07-.032" fill="#4d4d4d"/>
    <path id="Path_3391" data-name="Path 3391" d="M88.245,33.054a.178.178,0,0,0-.024.05l.017-.018Z" fill="#4d4d4d"/>
    <path id="Path_3392" data-name="Path 3392" d="M89.532,33.9l-.012,0,.018.083Z" fill="#4d4d4d"/>
    <path id="Path_3393" data-name="Path 3393" d="M89.026,34.064a1.225,1.225,0,0,0-.02-.244.272.272,0,0,1,0,.122c.007.033.015.072.025.122" fill="#4d4d4d"/>
    <path id="Path_3394" data-name="Path 3394" d="M88.224,33.769l-.017.023Z" fill="#4d4d4d"/>
    <path id="Path_3395" data-name="Path 3395" d="M89.895,33.782l.033.053Z" fill="#4d4d4d"/>
    <path id="Path_3396" data-name="Path 3396" d="M87.722,32.538l-.017.026a.17.17,0,0,0,.017-.026" fill="#4d4d4d"/>
    <path id="Path_3397" data-name="Path 3397" d="M87.713,33.5l-.01.006-.037.091Z" fill="#4d4d4d"/>
    <path id="Path_3398" data-name="Path 3398" d="M91.757,31.762l0,0c.017.018.015.009,0,0" fill="#4d4d4d"/>
    <path id="Path_3399" data-name="Path 3399" d="M89.033,28.176c.028.161-.114.189-.062.37,0-.069.113-.261.062-.37" fill="#4d4d4d"/>
    <path id="Path_3400" data-name="Path 3400" d="M88.25,33.078a.022.022,0,0,1,.014,0c0-.007-.009-.007-.014,0" fill="#4d4d4d"/>
    <path id="Path_3401" data-name="Path 3401" d="M88.971,28.547h0l0,.017Z" fill="#4d4d4d"/>
    <path id="Path_3402" data-name="Path 3402" d="M91.608,30.512a.562.562,0,0,0-.071.03.333.333,0,0,0,.071-.03" fill="#4d4d4d"/>
    <path id="Path_3403" data-name="Path 3403" d="M91.44,31.415l.024-.02c-.016.008-.022.014-.024.02" fill="#4d4d4d"/>
    <path id="Path_3404" data-name="Path 3404" d="M91.23,30.15c.008-.016.029-.029,0-.034l-.018.012c.024,0,.037,0,.016.022" fill="#4d4d4d"/>
    <path id="Path_3405" data-name="Path 3405" d="M91.022,29.741,91,29.766l.016.008Z" fill="#4d4d4d"/>
    <path id="Path_3406" data-name="Path 3406" d="M87.141,32.032l-.132.088c.107-.064.162-.052.132-.088" fill="#4d4d4d"/>
    <path id="Path_3407" data-name="Path 3407" d="M88.228,33.151a.262.262,0,0,1,.022-.072l-.011.007c0,.025-.008.05-.011.065" fill="#4d4d4d"/>
    <path id="Path_3408" data-name="Path 3408" d="M89.947,30.666l.01-.046a.049.049,0,0,0-.01.046" fill="#4d4d4d"/>
    <path id="Path_3409" data-name="Path 3409" d="M87.243,30.246l.011.02c.006,0,0-.006-.011-.02" fill="#4d4d4d"/>
    <path id="Path_3410" data-name="Path 3410" d="M89.882,30.53a.649.649,0,0,0,.1-.078l-.041.017Z" fill="#4d4d4d"/>
    <path id="Path_3411" data-name="Path 3411" d="M87.008,32.121h0Z" fill="#4d4d4d"/>
    <path id="Path_3412" data-name="Path 3412" d="M87.5,32.108c-.017-.03-.187.126-.3.2-.083,0,.12-.121.205-.2-.065.018-.252.121-.256.1a.484.484,0,0,1,.082-.057c-.17.073-.057-.071-.277.01l.048-.032-.272.161c-.014-.018-.148.031-.019-.048,0,.015.056-.013.1-.03l-.067.01c.181-.12.079-.008.22-.085-.079,0-.264.032-.225-.026.189-.1.1.036.249-.084l-.051.079c.28-.186-.009.034.294-.159.033-.074-.127-.005-.091-.081-.113.034-.158.073-.271.107-.231-.011.472-.255.186-.21-.138.033-.395.107-.273.018l.233-.055c.008-.058-.34.063-.2-.041.094-.012.09.025.115.009.172-.085-.139.008-.149-.023l.2-.055c-.039-.048-.209-.087-.254-.157a.638.638,0,0,0,.193-.023c-.116-.073.012-.185.142-.249l-.183-.038a.291.291,0,0,1,.118,0c.073-.024-.115-.009-.185-.029-.011-.02.108-.015.161,0-.149-.059-.315-.21-.1-.231l.05.022c.082-.026-.354-.137-.178-.144l.029.017c.105-.077-.012-.257.277-.218-.233-.125.143-.037-.177-.209a2.109,2.109,0,0,0,.382.075c.022-.008-.178-.147-.194-.192l.16.106-.145-.143.2.117-.027-.049a.406.406,0,0,1-.125-.067c-.047-.088.163,0,.24.066l-.065-.172a.6.6,0,0,1,.1.123c-.116-.165.156.13.049-.022a.929.929,0,0,1-.109-.108c.1.062.134.035.125-.027l.086.1c.062-.019.055-.13.112-.174a.633.633,0,0,1-.182-.255l.125.159c-.061-.112-.064-.046-.128-.192.04,0,.148.179.174.241l-.012-.075c.032.051.049.078.089.144-.058-.112.155.144.052-.051l.033.051c.054-.037.051-.105.1-.142a1.034,1.034,0,0,1-.079-.272c.071.033.167.143.21.109.007-.1-.038-.144-.053-.248.054.151.1.122.108.239.056-.039.065-.059.124-.2a.542.542,0,0,1-.046-.142c.012-.029.052.058.064.134v.017c.076-.261.263.433.3.1l0,.016.078-.172c.036.028-.024.12,0,.219.1-.27.119.05.205-.123-.032.473.19,0,.178.316l.029-.108c.049-.1,0,.068,0,.1a.748.748,0,0,1,.042-.154c.2-.08.233.271.271.421.019.05.359-.448.262-.194l-.142.152c.243-.124.154.143.379.083-.041.025-.087.065-.094.057-.1.114.043.069.142,0,0,.023-.084.071-.127.117-.059.069.191-.069.075.028a.143.143,0,0,1-.054.026c.067-.029.019.067.156-.04-.048.08.111.029.039.11.179-.071-.051.107.2-.01-.253.126-.17.161-.04.138-.082.025-.073.056-.186.091.013.024.072.03.206-.026-.295.16.3.031-.108.186a.707.707,0,0,1,.365.2c-.276.031-.042-.094-.333-.042.131.048.367.079.31.17-.036.023-.123-.007-.172-.01.121.076-.023.148.126.229a.307.307,0,0,1-.074-.021c.007.015-.045.029.082.038l-.033-.017a1.534,1.534,0,0,1,.476.114c-.361-.069-.1.074-.555-.03a.535.535,0,0,0,.167.043.3.3,0,0,1-.171-.021c.064.061.2.066.185.115-.061-.012-.082-.027-.153-.044.114.044.226.1.166.128-.036-.012-.084-.018-.081-.03.009.07.275.21.138.26-.246-.112-.092,0-.311-.078l.05.062.112.025c-.019.032.123.131.039.133l-.076-.065.011.085.1,0c.092.088.27.117.187.145-.016-.022-.02.042-.154,0h0c.056.052.112.11.046.111-.069-.03-.221-.132-.267-.152.158.113,0,.107.163.24a1.152,1.152,0,0,0-.161-.111l.123.1a.345.345,0,0,1-.155-.079c-.056.029.256.149.11.135-.007-.012-.028-.024-.041-.046-.092.016,0,.171-.1.17-.191-.137-.009-.077-.175-.187-.016.085.094.323-.014.344l.03.007c.215.251-.159-.073-.086.07a.7.7,0,0,0-.087-.118c-.079-.007-.037.133-.054.275l-.039-.076c-.073-.044-.1.013-.153,0,.035.078.009.078.084.177-.33-.369-.092.347-.362.018.011-.006,0-.08-.01-.077l-.051.1a.69.69,0,0,0,.1.175c.019.085.015.158-.009.167a.548.548,0,0,0-.118-.289l.042.131c-.126-.231.081.278-.04.133L89.2,33.36c-.013.044-.011.148-.045.135-.053-.158.008-.083-.027-.216-.03.019,0,.33-.072.173.007-.048.03-.053.035-.1-.082-.18-.073-.134-.1-.159l0,0-.074-.076.024.049c.031.434-.075.1-.1.384.033-.272-.008-.155-.025-.343a.438.438,0,0,1-.048-.161c-.013.154-.051-.116-.072.11-.006-.061-.029,0-.031-.157-.03.051.013.1.015.182-.055.212-.125-.253-.209.033-.076.111-.11.312-.2.4a.455.455,0,0,1,.048-.217c-.027-.094-.055-.077-.1-.017a.577.577,0,0,0,.018-.166c-.029.01-.059.214-.079.118.021-.065.053-.168.074-.234a2.4,2.4,0,0,1-.141.2.8.8,0,0,1,.083-.217.45.45,0,0,0-.169.231l.009.066c-.017,0,.03-.141.048-.168.063-.121.03.065.019.125l-.034.033c-.058.352.117-.034.157,0l-.069.25.091-.2a.512.512,0,0,1-.048.246c.021.134.05-.086.065.06a.08.08,0,0,1-.008.044l.051-.072c-.015.053-.015.183-.037.143.063.157.141-.18.152.018l-.007.016c.11-.081.025-.189.106-.41l.038.47.013-.19c.011.007.032.022.028.1.039-.13-.007-.083.015-.206.054.176.13-.084.159.217.008-.146-.055-.108-.008-.212.039.323.056-.061.114.084,0,.168-.052.084.013.229,0-.285.1.053.141-.011-.034-.224.073-.109.124-.2.013.079.153.09.242.149l.009.037c-.053-.224.023-.2.051-.261a.551.551,0,0,1,.047.252l.045-.018a.217.217,0,0,1,.006-.15l.049.164c.059-.034.044-.231.163-.161-.066-.145-.235-.379-.217-.508a.915.915,0,0,1,.1.25c0-.013-.009-.075.018-.048l.035.145c.058.042-.036-.117-.007-.117.054.111.057.069.1.159,0,.014-.044-.035-.033.014a.312.312,0,0,1,.162.129c-.035-.061-.076-.148-.063-.172.051-.036.09.12.154.158-.027-.081.052-.026-.04-.186.016-.009.062.063.094.1-.013-.087.12-.1-.019-.247l-.014-.006v-.01c-.019-.2.23-.039.266-.165l.04.047c0-.091.074-.125.013-.248.012-.011.109.052.155.109,0-.067-.043-.114.075-.1.047.11.081.052.024.091.08-.01.166.042.084-.12.1.121.183.091.168.036l-.117-.037c.005-.04.035-.054.065-.069l.152.142c.292.028-.206-.443.2-.3-.106-.107-.124.01-.252-.108.052-.034.341.059.353.04.145-.026-.224-.215-.117-.255a.6.6,0,0,1-.291-.185c.046-.036.311.063.349.124,0,.016-.024.012-.047,0a.135.135,0,0,0,.117.079l-.064-.039c.081,0,.11-.08.213-.013a.116.116,0,0,0-.153-.05c.13-.033.056-.112.148-.167-.043,0-.128-.019-.123-.031.123-.084-.117-.1-.124-.178.121-.009.252.094.186-.01a.312.312,0,0,1,.244.08c-.111-.112.126-.122.164-.165l.049.056a.071.071,0,0,1-.018-.076l-.15-.007c.03-.019.035-.04.1-.027-.09-.044-.245-.032-.365-.1.079-.017-.06-.1.133-.082-.083.087.2.02.212.112-.019-.021-.014-.041.016-.062a.072.072,0,0,1,.05.019c.187-.077-.214-.082-.2-.179.109.026.212,0,.19-.021-.007.043-.186,0-.266-.044.092-.056-.057-.073-.043-.1l-.045.034c-.108-.02-.091-.048-.126-.09.086,0,.059.04.1.027-.194-.052.2-.1.072-.17.075-.032.208,0,.259-.035-.142-.074.149-.094.024-.174-.146.036-.109.034-.259-.01l.115.125-.222-.071c0,.037.1.075.075.1a.264.264,0,0,0-.208-.009c.219-.062-.137-.088.008-.155l.367-.033c.156-.119-.206-.146-.138-.277l-.056.05c-.146.011-.033-.068-.1-.094a.713.713,0,0,0,.231-.091c-.088.023-.017-.092-.257-.038l.141-.1c.034-.117-.363,0-.355-.091.135-.021.2-.091.315-.064-.01-.03,0-.065-.08-.035.065-.046-.186-.019-.088-.089-.054.009-.174.056-.177.022a.3.3,0,0,1,.056-.025c-.055.024-.1-.012-.209.069.305-.243-.126-.2.113-.428a.714.714,0,0,1-.186-.122c.033-.018.05-.035.047-.019.042-.134-.316.169-.266.025.128-.159.114-.028.156-.1.309-.261-.11-.056.027-.255l.029,0c.067-.13-.2.013-.231-.062a.366.366,0,0,0,.044-.043.655.655,0,0,1-.392.092c.119-.107.08-.042.174-.174-.04,0-.162.2-.237.2A1.431,1.431,0,0,1,90.313,29l.056.034c.114-.2-.072-.048-.076-.1l.062-.075c-.105-.036-.244.165-.318.092l-.031.068c-.173.176.033-.139-.108-.013l.11-.22a2.027,2.027,0,0,1-.3.156,1.043,1.043,0,0,1,.324-.26.143.143,0,0,0-.2.049c.023-.014.068-.058.064-.017-.13.146-.221.213-.282.181.2-.432-.122-.187-.055-.548-.186.12-.251-.156-.432-.162-.01.377-.051,0-.1.378-.038.017-.051.012-.05-.014l-.081-.238c-.016-.113.046-.08.053-.165-.085-.039-.019-.164-.071-.272,0,.137-.049.191-.1.134l.058.183c-.13.189-.088-.327-.224-.13l.043-.119c-.066.069-.254,0-.293.31-.013-.043-.037-.145-.01-.175-.169-.037-.286.362-.429.2l-.009-.093c-.023.032-.009.179-.064.1-.007-.038-.011-.093-.025-.095-.008.036-.03.178-.079.136l0-.11c-.183-.077-.142.308-.217.409-.1-.255-.244-.3-.317-.309l-.014-.036c-.181.05-.168.339-.23.511-.249-.2-.338.085-.565.068a.381.381,0,0,1,.14.2c-.065-.015.062.2-.111.02l.013,0c-.192-.157-.207-.055-.251-.012l.236.229c-.472-.2-.1.406-.5.226.046.076.023.116.075.19l-.15-.093a.314.314,0,0,0-.161.245l-.1-.08c-.044.068.421.3.408.36l-.25-.086c-.048.108-.3.167-.115.356-.036-.013-.108-.037-.112-.06-.029.051-.232.19.125.247-.229-.05-.051.124.042.2l-.171-.038c.213.091.273.1.326.178-.024.015-.14,0-.093-.018-.1.049.159.061.059.121L85.707,31c-.019.059.039.06.168.1.069.039-.045.106-.2.115.1.01.223.041.177.075a.255.255,0,0,1-.114-.012c-.121.107.21.136.043.215a.335.335,0,0,0-.1.021c0-.082,0-.148.015-.142-.16.005-.183.079-.408.033.125.057.394.126.326.2l-.055.015-.018,0c-.014.017,0,.029.03.039-.023.024-.039.041-.038.062-.13.028-.056.092-.056.128.172-.036.152.012.287-.056-.012.008-.022,0-.033-.022a.046.046,0,0,0-.021-.011h.016a.505.505,0,0,1-.026-.078c.092.012.171.024.081.076l.286-.011c-.234.085-.344.2-.485.252.125.075.129.227.464.169.049.01-.077.061-.122.089-.037,0-.039-.023-.087-.015.1.023.093.146.308.065-.069.1-.209.05-.136.122l-.07.017c-.234.358.648-.015.356.394a.166.166,0,0,1,.054-.066c-.025.323.425.235.374.618.009.1.109-.012.208-.075l-.106.157.186-.132c.162-.084-.127.483.147.291l.051-.117c.026.042.152,0,.077.125.015-.018.074-.11.058-.043l-.045.088c.057-.032.114-.067.169-.1.044.1-.179.348-.067.418a.6.6,0,0,0,.237-.281c-.015-.012-.019-.075.017-.167l.052-.033a2.891,2.891,0,0,0,.249-.754l-.11.146.043-.135.037.007c.034-.131-.023-.027-.071.039a.861.861,0,0,0,.049-.147l-.162.232a1.179,1.179,0,0,0,.122-.262c-.076.1-.1.237-.167.294.04-.128.1-.219.022-.133a.516.516,0,0,1,.084-.13c-.061.068-.066.006-.155.133.064-.149-.091,0,.061-.235-.04.052-.15.158-.175.154.22-.247-.052-.06.169-.335-.2.222-.148.045-.293.139.018-.016.054-.048.047-.034,0-.036.051-.106.077-.156a1.463,1.463,0,0,1-.365.269c.146-.189.221-.184.375-.351-.14.141-.18.1-.294.218a1.068,1.068,0,0,1,.179-.208c-.232.2-.055.019-.21.123.093-.126.216-.189.12-.161a.526.526,0,0,1,.167-.114m-.824-.65h0l.012.021-.015-.021m-.011-.09a.076.076,0,0,0,0,.04c-.06.008-.122.011-.12,0a.358.358,0,0,0,.123-.04m-1.174.394c-.029-.019,0-.033.039-.041a.126.126,0,0,0,.028.036h.021l-.088.006" fill="#4d4d4d"/>
    <path id="Path_3413" data-name="Path 3413" d="M85.727,31.762l.014.007.037-.02-.056,0Z" fill="#4d4d4d"/>
    <path id="Path_3414" data-name="Path 3414" d="M90.021,33.438l0,0-.018-.018Z" fill="#4d4d4d"/>
    <path id="Path_3415" data-name="Path 3415" d="M87.264,30.365l-.037-.025.028.027Z" fill="#4d4d4d"/>
    <path id="Path_3416" data-name="Path 3416" d="M89.213,33.169a.263.263,0,0,0-.021-.041l.021.041" fill="#4d4d4d"/>
    <path id="Path_3417" data-name="Path 3417" d="M88.983,33.19l-.043-.056a.212.212,0,0,0,.043.056" fill="#4d4d4d"/>
    <path id="Path_3418" data-name="Path 3418" d="M88.8,33.133c0,.031,0,.054.006.075h0Z" fill="#4d4d4d"/>
    <path id="Path_3419" data-name="Path 3419" d="M90.269,31.354l-.007-.006c-.033-.015-.02-.006.007.006" fill="#4d4d4d"/>
    <path id="Path_3420" data-name="Path 3420" d="M90.444,32.212a.665.665,0,0,1-.06-.061c-.02.007-.028.015.06.061" fill="#4d4d4d"/>
    <path id="Path_3421" data-name="Path 3421" d="M89.946,30.671h0l0,0Z" fill="#4d4d4d"/>
    <path id="Path_3422" data-name="Path 3422" d="M90.4,32.116c-.038,0-.035.013-.018.034.015-.005.037-.011.018-.034" fill="#4d4d4d"/>
    <path id="Path_3423" data-name="Path 3423" d="M88.109,33.008,88.1,33l-.008.027Z" fill="#4d4d4d"/>
    <path id="Path_3424" data-name="Path 3424" d="M88.1,33.027l-.014.017s.008,0,.014-.017" fill="#4d4d4d"/>
    <path id="Path_3425" data-name="Path 3425" d="M88.053,33.081l.029-.037c-.006,0-.011-.01-.029.037" fill="#4d4d4d"/>
    <path id="Path_3426" data-name="Path 3426" d="M88.3,33.129l.011-.063-.011.063" fill="#4d4d4d"/>
    <path id="Path_3427" data-name="Path 3427" d="M88.372,33.118c-.015-.016-.022-.139-.048-.1l-.009.049c.022-.092.029.157.057.052" fill="#4d4d4d"/>
    <path id="Path_3428" data-name="Path 3428" d="M88.679,33.914l-.079-.051c.014.068.035.159,0,.175.108.2-.023-.15.081-.124" fill="#4d4d4d"/>
    <path id="Path_3429" data-name="Path 3429" d="M88.935,33.991c-.04.035.013.1.016.136.021-.065.024-.082-.016-.136" fill="#4d4d4d"/>
    <path id="Path_3430" data-name="Path 3430" d="M90.538,33.2l.11.116c.009-.041-.044-.044-.11-.116" fill="#4d4d4d"/>
    <path id="Path_3431" data-name="Path 3431" d="M90.116,32.432l-.092-.043.108.1Z" fill="#4d4d4d"/>
    <path id="Path_3432" data-name="Path 3432" d="M91.148,32.938l.01.026-.013-.083Z" fill="#4d4d4d"/>
    <path id="Path_3433" data-name="Path 3433" d="M91.2,29.734l-.165.107c.041,0,.236-.1.165-.107" fill="#4d4d4d"/>
    <path id="Path_3434" data-name="Path 3434" d="M90.107,28.864c.042-.092.04-.165-.031-.1.02.027.005.107.031.1" fill="#4d4d4d"/>
    <path id="Path_3435" data-name="Path 3435" d="M86.2,29.175l-.029-.066,0,.079Z" fill="#4d4d4d"/>
    <path id="Path_3436" data-name="Path 3436" d="M33.755,37.865c.086.038.281.016.243-.088l-.331-.074Z" fill="#4d4d4d"/>
    <path id="Path_3437" data-name="Path 3437" d="M34.368,37.163a.891.891,0,0,0-.746-.185c.317.122.185.151.564.282.038.105-.107.183-.228.165.084.037-.073.162.135.218.256-.135.266-.308.054-.488.073-.038.16,0,.221.008" fill="#4d4d4d"/>
    <path id="Path_3438" data-name="Path 3438" d="M26.507,34.4l.066.039a.122.122,0,0,0-.066-.039" fill="#4d4d4d"/>
    <path id="Path_3439" data-name="Path 3439" d="M20.181,34.22a.079.079,0,0,0,.071-.071c-.045.022-.082.042-.071.071" fill="#4d4d4d"/>
    <path id="Path_3440" data-name="Path 3440" d="M19.1,33.855l.064.022c-.025-.03-.049-.047-.064-.022" fill="#4d4d4d"/>
    <path id="Path_3441" data-name="Path 3441" d="M26.507,34.4l-.169-.1c-.012.108.087.08.169.1" fill="#4d4d4d"/>
    <path id="Path_3442" data-name="Path 3442" d="M33.569,36.138a.173.173,0,0,0,.087.009.149.149,0,0,1-.035-.03Z" fill="#4d4d4d"/>
    <path id="Path_3443" data-name="Path 3443" d="M29.3,34.133h.051A1.14,1.14,0,0,0,29.39,34Z" fill="#4d4d4d"/>
    <path id="Path_3444" data-name="Path 3444" d="M31.436,34.083c-.048-.012-.065.269-.084.392.028-.116.063-.171.106-.193a.964.964,0,0,0-.022-.2" fill="#4d4d4d"/>
    <path id="Path_3445" data-name="Path 3445" d="M34.708,35.06l.039.043c-.012-.01-.023-.033-.039-.043" fill="#4d4d4d"/>
    <path id="Path_3446" data-name="Path 3446" d="M27.764,34.073a.387.387,0,0,0-.02-.1.283.283,0,0,0,.02.1" fill="#4d4d4d"/>
    <path id="Path_3447" data-name="Path 3447" d="M31.939,36.546v.05c.013-.028.016-.048,0-.05" fill="#4d4d4d"/>
    <path id="Path_3448" data-name="Path 3448" d="M34.42,37.938l-.034.015-.008.158Z" fill="#4d4d4d"/>
    <path id="Path_3449" data-name="Path 3449" d="M17.124,33.495l.009.005c.052-.032.022-.026-.009-.005" fill="#4d4d4d"/>
    <path id="Path_3450" data-name="Path 3450" d="M.257,38.071c.251-.477.323.29.6-.361-.11.14-.439-.162-.6.361" fill="#4d4d4d"/>
    <path id="Path_3451" data-name="Path 3451" d="M33.606,36.094a.1.1,0,0,1,0-.042c-.009.025-.008.037,0,.042" fill="#4d4d4d"/>
    <path id="Path_3452" data-name="Path 3452" d="M.859,37.711h0l.027-.061-.029.062" fill="#4d4d4d"/>
    <path id="Path_3453" data-name="Path 3453" d="M12.569,33.664a.415.415,0,0,0,.046.123.272.272,0,0,0-.046-.123" fill="#4d4d4d"/>
    <path id="Path_3454" data-name="Path 3454" d="M15.962,34.064l-.084-.038a.164.164,0,0,0,.084.038" fill="#4d4d4d"/>
    <path id="Path_3455" data-name="Path 3455" d="M10.807,34.061c-.046-.022-.061-.06-.124-.023a.162.162,0,0,0,.019.035c.023-.039.053-.057.105-.012" fill="#4d4d4d"/>
    <path id="Path_3456" data-name="Path 3456" d="M8.974,34.063a.488.488,0,0,0,.034.056l.058-.014Z" fill="#4d4d4d"/>
    <path id="Path_3457" data-name="Path 3457" d="M26.367,36.681a1.156,1.156,0,0,1,.084.253c-.028-.2.241-.271-.084-.253" fill="#4d4d4d"/>
    <path id="Path_3458" data-name="Path 3458" d="M33.727,36.066c-.071.026-.106.034-.121.028a.083.083,0,0,0,.015.023.456.456,0,0,0,.106-.051" fill="#4d4d4d"/>
    <path id="Path_3459" data-name="Path 3459" d="M10.733,36.279l-.291-.042a.933.933,0,0,0,.291.042" fill="#4d4d4d"/>
    <path id="Path_3460" data-name="Path 3460" d="M13.211,36.721l.067-.034a.056.056,0,0,0-.067.034" fill="#4d4d4d"/>
    <path id="Path_3461" data-name="Path 3461" d="M9.577,36.279a.491.491,0,0,0-.164-.194.268.268,0,0,0-.034.072Z" fill="#4d4d4d"/>
    <path id="Path_3462" data-name="Path 3462" d="M26.452,36.936v0Z" fill="#4d4d4d"/>
    <path id="Path_3463" data-name="Path 3463" d="M28.37,36.269c-.277-.008-.13.362-.189.574-.331.105-.153-.272-.266-.461-.207.1-.366.437-.52.423-.012-.061-.042-.083-.006-.16-.219.294-.65.015-.905.384a.3.3,0,0,1-.033-.092,1.873,1.873,0,0,1,.039.507c-.124.006-.231.233-.277-.008.076.007.082-.09.118-.166l-.13.1c-.118-.347.178-.12.178-.377-.255.113-.551.4-.746.3-.041-.339.456-.114.2-.416l.3.13c-.23-.536.183.037-.028-.536-.4-.1-.444.173-.84.074-.089.189.03.279-.06.468-.562.339-.442-.854-.856-.4-.107.227-.148.656-.443.429l.1-.384c-.385-.038-.22.552-.622.294.071-.151.3-.128.244-.173-.261-.3-.185.218-.385.218l-.041-.341c-.409.054-.86.3-1.313.362.025-.1.1-.208,0-.312a2.938,2.938,0,0,1-1.771-.243l-.21.293c-.049,0-.091-.132-.038-.189-.215-.111-.011.186-.114.3-.122.021-.162-.168-.084-.256-.379.248-1.08.536-1.479.221l.078-.087c-.311-.119-.351.6-.639.328l.055-.052c-.675-.127-1.421.142-1.935-.3-.1.423-.668-.188-.712.4-.385-.293-.275-.4-.817-.594-.145-.028-.216.368-.4.429l-.005-.308-.243.323-.129-.368-.169.079a.244.244,0,0,1,.133.227c-.263.14-.64-.215-.647-.373l-.621.261c.014-.124.118-.166.2-.246-.331.315-.06-.324-.364-.036.041.07-.022.184-.029.246a.742.742,0,0,0-.751-.109l.049-.213c-.461-.054-.971.1-1.488.1.185.1.143.467-.009.5l-.061-.326c-.1.2.159.123-.042.37-.193-.038-.13-.371-.019-.477l-.235.113c-.014-.1.041-.149.056-.273-.1.2-.406-.326-.545.025l-.013-.1c-.517,0-.751.109-1.172.126-.008.281-.173.218-.3.446a3.007,3.007,0,0,0-1.026-.287c-.262.14-.076.238-.194.4-.019-.256-.392-.232-.2-.416a3.346,3.346,0,0,0-1.137.259c.062.1.132.151.1.238-.1.042-.234-.107-.219-.23l.027-.027c-.318.192-.684.005-1.034-.163-.312-.168-.794-.317-.761-.05l.011-.026a1.11,1.11,0,0,1-.258.278c-.069-.044.135-.192.152-.351-.213.258-.3.182-.319.144.025-.077.035-.114-.079-.1.189-.151.28-.254.319-.248s.022.063,0,.1a1.286,1.286,0,0,1-.037-.213c-.01-.023-.015.02-.015.02a.253.253,0,0,0,.165.128l-.179-.093c-.174-.127.1.027.143.052-.139-.1-.16-.081-.257-.162a.456.456,0,0,1-.054-.2.678.678,0,0,1,.429.186l.032.04a.233.233,0,0,0,.016.02l.086.02.343.079c.228.051.455.1.681.13.4.048.227-.92.731-.5l-.143.33c.806-.4,1.649.014,2.438-.322-.047.076-.048.175-.125.174.167.24.616.011.619-.184.123.022.029.177.105.276.167.142.419-.306.508-.067.015.039-.047.078-.077.1.109-.116.508.03.4-.247.3.132.567-.123.8.041.154-.31.508.149.557-.289-.022.452.519.365.706.152-.062.137.163.142.09.331.214-.006.41-.09.372-.323.394.541.792-.435,1.014.258a10.174,10.174,0,0,1,1.794-.513c-.021.451-.631.045-.607.518.542-.186.855-.573,1.392-.464.139.062-.079.2-.126.273.542-.186,1.047.041,1.529-.2,0,.042-.053.088-.1.122.095-.014.221.067.211-.138l-.093.055c-.152-.3.377-.621.394-.779-.161.588.476.148.22.891a.288.288,0,0,0,.127-.273c.092.04.122.12.028.276.34-.112.219-.33.527-.325,0,.1-.063.137-.095.254.156-.193.313-.387.573-.3-.016.06.015.138-.063.136.447-.03.762-.516,1.253-.328-.145.431.167.142.193.515l.264-.111-.106-.182c.231.007.435-.265.634-.143l-.172.154.433-.071-.245-.142c.234-.192-.025-.472.283-.368-.063.038.231.005.351.225h0c.114-.119.231-.244.4-.152.045.12-.035.413-.007.493.113-.312.542-.087.685-.419a.565.565,0,0,0-.035.314l.095-.254c.107.081.123.12.105.277.322.046-.1-.474.28-.27-.03.021-.016.059-.078.1.384.107.742-.161,1.094-.036.1.376-.308.092-.189.409.509-.068,1.053-.45,1.545-.362l-.091-.041c.068-.531.366.262.615.012-.061.039-.08.294-.063.235.337.085.689-.131,1.2-.3l-.063.136c.2.122.523.07.738.132.064-.136.186-.114.112-.312.661.776,1.262-.416,1.848.231-.07,0-.167.119-.111.119l.5-.125c-.04-.231-.066-.14-.171-.32a.408.408,0,0,1,.329-.243c-.225.153,0,.371.1.5a2.052,2.052,0,0,1,.009-.221c.261.411.043-.465.4-.188l-.019.121c.134-.062.256-.222.4-.188.06.268-.142.125-.151.345.2-.015.4-.507.582-.24-.086.075-.209.076-.3.15.2.314.222.234.37.284l-.014-.007.342.142-.087-.085c.253-.7.515-.128.855-.584-.331.432-.054.25-.08.553.087.084.22.178.182.263.161-.244.269.193.5-.165.01.1.172.01.136.255.209-.077-.049-.17-.032-.292.19-.167.257-.066.367.02s.136.155.423-.073c.229-.116.471-.286.751-.437a.215.215,0,0,1,.244.093.392.392,0,0,1-.356.2c-.143.284-.117.347-.005.443-.085.014-.157.088-.267.178.026.081.355-.078.212.131l-.392.037a.971.971,0,0,1,.36.267c-.17.041-.258-.061-.369-.073.076.046.154.416.423.48l.1-.135c.013.077-.231.039-.28-.017-.211-.192.093-.236.191-.252a.769.769,0,0,1,.062.116c.286-.065.264-.206.173-.332s-.248-.2-.231-.312a3.2,3.2,0,0,1,.416-.077,1.134,1.134,0,0,0-.345-.092c.108-.107.34-.3.4-.191.206-.34-.147-.083.082-.424.035-.047.055-.053.072-.046a1.606,1.606,0,0,0-.124-.114c.087-.032.294-.291.234-.1a.5.5,0,0,0,.032-.413c-.287.072-.542.234-.482.029l.055-.026c-.348.07-.4.147-.466.25a1.178,1.178,0,0,1-.4.414,2.638,2.638,0,0,0,.1-.753l-.175.305c-.049-.011-.151-.034-.1-.156-.268.209-.006.133-.174.33-.086-.139-.277-.107-.422-.1s-.252-.013-.278-.256c-.083.232.222.179-.026.34-.07-.523-.286.09-.5-.15.065-.27.266-.128.054-.368-.128.456-.412-.1-.591-.013-.008.363-.388.152-.687.273.018-.122-.564-.2-.843-.332l.008-.06c-.054.367-.341.3-.551.374a.461.461,0,0,1,.16-.4h-.2a.336.336,0,0,1-.236.222l.05-.274c-.262.015-.528.323-.865.14-.019.256.268.713-.088.884-.013-.139-.027-.376.067-.432-.031.018-.109.115-.171.056l.143-.233c-.154-.1-.081.194-.2.173,0-.2-.091-.141-.074-.3.032-.019.107.082.154,0a.551.551,0,0,1-.361-.3c.013.112,0,.266-.1.292-.262.014-.09-.238-.242-.339-.064.137-.231-.005-.235.29-.077,0-.091-.139-.121-.219-.135.13-.633.037-.48.351l.035.021-.023.013h0c-.444.293-.923-.168-1.364-.041v-.1c-.263.113-.586.067-.774.279-.077,0-.183-.18-.15-.3-.2.074-.224.185-.514.022.2-.172-.07-.152.207-.126-.262-.085-.321-.243-.6.027.1-.253-.2-.319-.322-.243l.184.181a.863.863,0,0,1-.386-.007l.067-.333c-.535-.405-.965.689-1.372.011-.142.233.29.164.164.436-.246-.045-.5-.522-.58-.523-.337-.185-.314.486-.667.36.045.118.088.435-.176.547-.246-.044-.3-.5-.147-.593a.065.065,0,0,1,.085.068c.079-.043.184-.094.086-.223l-.032.119c-.122-.121-.461-.109-.381-.3-.186.113-.08.194.058.256-.316-.172-.493-.005-.818-.121.051.066.1.205.048.2-.477-.147-.21.225-.533.277-.184-.181.065-.432-.26-.28-.2-.123-.042-.315.037-.412-.3.229-.554-.15-.723-.192l.156-.1a.418.418,0,0,1-.248.055l.09.237c-.092-.041-.17-.042-.168-.141-.094.155.072.4-.115.607-.122-.12-.372.13-.414-.185.384.107-.043-.317.282-.367a.24.24,0,0,1-.231-.006.075.075,0,0,1,.038-.083c-.367-.282-.169.356-.55.349.049-.178-.088-.337-.15-.3.153,0,.073.3-.068.432-.244-.138-.265.1-.393.087l.146.065c-.05.177-.172.154-.342.21-.015-.138.155-.1.094-.156-.189.312-.428-.323-.691-.113-.122-.12-.012-.334-.119-.415-.3.23-.321-.243-.631-.053.089.238.105.18-.114.413l.511-.168-.328.347c.154,0,.325-.15.418-.11-.156.195-.14.136-.067.334-.21-.358-.418.208-.661-.034l.007-.59c-.367-.264-.651.3-1.127.154l.153.1c-.064.235-.294.033-.448.128.014-.2-.082-.269-.148-.392.008.146-.348-.014-.392.381l-.212-.26c-.384-.107-.439.562-.808.495.111-.215-.057-.355.191-.508-.123,0-.234-.038-.236.1-.072-.124-.342.266-.456.078-.052.087-.069.294-.207.277a.192.192,0,0,1,0-.1c0,.1-.216.132-.1.351-.38-.616-1.062.045-1.393-.484a5.221,5.221,0,0,1-.838.144c.016-.059,0-.1.047-.078-.337-.184-.207.567-.591.362-.2-.319.2-.173.082-.294-.053-.649-.463.089-.721-.29l.062-.039c-.2-.22-.481.247-.8.2a.212.212,0,0,0,0-.1,1.611,1.611,0,0,1-.948.533c.1-.254.14-.135.082-.393-.139.037.04.415-.237.487-.09-.139-.291-.261-.317-.536l.262-.015c-.134-.357-.339.012-.477-.05L4.63,33.9c-.4.051-.407.444-.838.416l.044.118c-.235.389-.2-.219-.432.07l-.071-.4a3.512,3.512,0,0,1-.923.456.69.69,0,0,1,.344-.353c.083-.048.174-.092.265-.135a1.218,1.218,0,0,0,.176-.128,1.4,1.4,0,0,0-.148.006c-.078.006-.185.016-.275.032-.185.032-.343.088-.373.186.077-.038.176-.135.278-.074a.926.926,0,0,1-.821.456c-.245-.5-.722-.429-1.236-.486-.03.217-.1.387-.3.362a3.142,3.142,0,0,1,.1.736,6.31,6.31,0,0,1-.05.766c-.015.112-.032.313-.048.365a1.78,1.78,0,0,0-.046.248,7.625,7.625,0,0,0-.033.928c.6-.663.017.35.629-.06.039.175.029.252-.011.3-.121.282-.244.6-.364.947-.179.342-.136-.1-.273.037a.974.974,0,0,1-.158.526c-.037.082-.134.18.01.264a.693.693,0,0,1,.76-.229,1.82,1.82,0,0,1-.228-.282c.514-.163.552-.035.648.094s.221.258.7.1l-.348.192c.249-.057.655-.056,1.062-.1.483-.046.564-.14.712-.385.041.07.1.238-.007.282.557.073,1.241-.523,1.674-.22l-.042.149c.1-.043.181-.281.311-.13-.007.061-.042.149.006.158.055-.052.277-.262.414-.175l-.117.168c.544.2.834-.41,1.29-.512,0,.44.427.583.641.654l-.008.063c.633.054,1.076-.365,1.662-.538.364.478,1.233.2,1.818.468-.089-.08.015-.343.119-.387.137.089.379-.306.358.1l-.049-.008c.1.4.385.291.606.3l.036-.528c.576.768,1.51-.282,1.824.406.139-.132.312-.131.449-.263l-.007.283a2.6,2.6,0,0,0,1.054.041l-.1.2c.268.018.339-.816.587-.833l.074.423c.469-.007.943.364,1.406-.019-.007.062-.021.184-.1.2.221.011.853.286.773-.294.006.378.484.037.737-.13l-.039.279c.213-.356.22-.453.518-.552.071.036.062.223-.032.152.236.146.184-.264.469-.116l-.106.178c.242.022.223-.074.357-.281.152-.112.459.07.5.322.033-.154.166-.359.308-.286a.2.2,0,0,1-.058.183c.4.189.6-.324.881-.051a.284.284,0,0,0,.047.167,2.028,2.028,0,0,1-.557-.043c0,.257.26.3.053.657.209-.193.566-.614.819-.493a.331.331,0,0,1,.034.089l-.026.028a.144.144,0,0,0,.16-.041.487.487,0,0,0,.21.077c.03.213.3.115.428.125-.011-.281.159-.236,0-.468.02.02-.025.034-.111.045-.019.009-.042.013-.055.029l.009-.024-.323.018c.1-.142.21-.262.353-.106.067-.181.14-.367.181-.454.178.392.52.6.567.846.4-.158.933-.1,1.182-.632.113-.068.13.151.172.234-.065.053-.143.045-.178.121.225-.136.667-.053.721-.422.284.167-.16.34.23.28l-.052.112c.767.59,1.246-.941,2.1-.185-.059-.046-.089-.067-.1-.129.97.334,2-.313,2.954.216.272.107.3-.129.468-.308l.059.3.283-.349c.4-.255.7.741,1.206.259l-.065-.2c.183.038.579-.12.549.114.018-.037.06-.212.131-.106l.006.158.449-.271c.348.115-.054.627.454.658.189-.061.538-.46.467-.565a.261.261,0,0,1-.2-.257l.172-.083c.032-.465.165-.942-.26-1.267l-.295.285-.1-.226.249-.014c-.141-.213-.23-.025-.331.1a.4.4,0,0,0-.123-.249l-.291.445c-.035-.182.131-.361-.064-.462-.136.206.13.408-.1.544-.141-.212-.1-.384-.266-.2a.234.234,0,0,1,.078-.249c-.148.144-.391.061-.468.308-.147-.261-.5.068-.484-.373-.047.106-.26.346-.4.365.248-.528-.508-.031-.442-.6-.184.474-.663.211-.988.474.018-.038.054-.114.082-.09-.183-.039-.236-.182-.353-.272-.024.392-.309.481-.462.723-.225-.378.136-.46.065-.823.012.317-.389.317-.313.581-.172-.234-.148-.113-.236-.438-.03.49-.16.083-.3.384-.248-.242-.064-.459-.337-.31-.129-.15.113-.324.113-.324m-6.484.848v-.006l.134-.016-.134.022m-.545,0a1.341,1.341,0,0,0,.237.011c.019.1,0,.2-.057.192.03-.065-.1-.121-.18-.2m1.153,1.948c-.086.04-.115-.015-.127-.073a.8.8,0,0,0,.151-.034l.01-.034a.6.6,0,0,1-.034.141" fill="#4d4d4d"/>
    <path id="Path_3464" data-name="Path 3464" d="M22.65,38.7c.012-.006.019-.018.036-.02a.622.622,0,0,0-.052-.064l-.03.088Z" fill="#4d4d4d"/>
    <path id="Path_3465" data-name="Path 3465" d="M26.584,34.448l-.011-.006a.118.118,0,0,1,.024.04.254.254,0,0,1-.013-.034" fill="#4d4d4d"/>
    <path id="Path_3466" data-name="Path 3466" d="M13.818,36.582v.071l.047-.062Z" fill="#4d4d4d"/>
    <path id="Path_3467" data-name="Path 3467" d="M29.585,35.412a.147.147,0,0,0,.039.072.166.166,0,0,0-.039-.072" fill="#4d4d4d"/>
    <path id="Path_3468" data-name="Path 3468" d="M30.882,35.475l.183.1a.7.7,0,0,0-.183-.1" fill="#4d4d4d"/>
    <path id="Path_3469" data-name="Path 3469" d="M31.878,35.615a.763.763,0,0,0,.02-.12l0,0Z" fill="#4d4d4d"/>
    <path id="Path_3470" data-name="Path 3470" d="M16.031,35.945a.075.075,0,0,0-.038.013c-.091.054-.029.033.038-.013" fill="#4d4d4d"/>
    <path id="Path_3471" data-name="Path 3471" d="M20.747,35.288a.837.837,0,0,1-.152.133c.084.021.15.027.152-.133" fill="#4d4d4d"/>
    <path id="Path_3472" data-name="Path 3472" d="M10.765,36.283v0h-.033Z" fill="#4d4d4d"/>
    <path id="Path_3473" data-name="Path 3473" d="M20.376,35.416a.186.186,0,0,0,.219.005.27.27,0,0,0-.219-.005" fill="#4d4d4d"/>
    <path id="Path_3474" data-name="Path 3474" d="M33.543,36.643l-.011.048a.12.12,0,0,1,.045.006Z" fill="#4d4d4d"/>
    <path id="Path_3475" data-name="Path 3475" d="M33.577,36.7l.033.053c0-.024,0-.045-.033-.053" fill="#4d4d4d"/>
    <path id="Path_3476" data-name="Path 3476" d="M33.681,36.863l-.071-.112c0,.039-.009.087.071.112" fill="#4d4d4d"/>
    <path id="Path_3477" data-name="Path 3477" d="M33.673,35.859l-.1.066.1-.066" fill="#4d4d4d"/>
    <path id="Path_3478" data-name="Path 3478" d="M33.644,35.672c-.023.08-.217.305-.154.307l.081-.054c-.151.1.245-.351.073-.253" fill="#4d4d4d"/>
    <path id="Path_3479" data-name="Path 3479" d="M32.805,34.382l.419.081c-.047-.108-.14-.254.083-.28-.556-.324.074.243-.5.2" fill="#4d4d4d"/>
    <path id="Path_3480" data-name="Path 3480" d="M31.763,34.224c.181-.051,0-.158.007-.219-.114.1-.142.124-.007.219" fill="#4d4d4d"/>
    <path id="Path_3481" data-name="Path 3481" d="M24.234,34.223l.018-.256c-.139.037,0,.1-.018.256" fill="#4d4d4d"/>
    <path id="Path_3482" data-name="Path 3482" d="M22.795,35.545l.135.159.065-.235Z" fill="#4d4d4d"/>
    <path id="Path_3483" data-name="Path 3483" d="M21.944,33.723l.061-.036-.232.092Z" fill="#4d4d4d"/>
    <path id="Path_3484" data-name="Path 3484" d="M9.3,33.814l.042.315c.094-.057.114-.411-.042-.315" fill="#4d4d4d"/>
    <path id="Path_3485" data-name="Path 3485" d="M3.841,34.135c-.059-.158-.213-.259-.308-.1.123.022.246.144.308.1" fill="#4d4d4d"/>
    <path id="Path_3486" data-name="Path 3486" d="M12.37,39.109l-.11.105.207-.087Z" fill="#4d4d4d"/>
    <path id="Path_3487" data-name="Path 3487" d="M33.755,45.865c.086.038.281.016.243-.088l-.331-.074Z" fill="#4d4d4d"/>
    <path id="Path_3488" data-name="Path 3488" d="M34.368,45.163a.891.891,0,0,0-.746-.185c.317.122.185.151.564.282.038.105-.107.183-.228.165.084.037-.073.162.135.218.256-.135.266-.308.054-.488.073-.038.16,0,.221.008" fill="#4d4d4d"/>
    <path id="Path_3489" data-name="Path 3489" d="M26.507,42.4l.066.039a.122.122,0,0,0-.066-.039" fill="#4d4d4d"/>
    <path id="Path_3490" data-name="Path 3490" d="M20.181,42.22a.079.079,0,0,0,.071-.071c-.045.022-.082.042-.071.071" fill="#4d4d4d"/>
    <path id="Path_3491" data-name="Path 3491" d="M19.1,41.855l.064.022c-.025-.03-.049-.047-.064-.022" fill="#4d4d4d"/>
    <path id="Path_3492" data-name="Path 3492" d="M26.507,42.4l-.169-.1c-.012.108.087.08.169.1" fill="#4d4d4d"/>
    <path id="Path_3493" data-name="Path 3493" d="M33.569,44.138a.173.173,0,0,0,.087.009.149.149,0,0,1-.035-.03Z" fill="#4d4d4d"/>
    <path id="Path_3494" data-name="Path 3494" d="M29.3,42.133h.051A1.14,1.14,0,0,0,29.39,42Z" fill="#4d4d4d"/>
    <path id="Path_3495" data-name="Path 3495" d="M31.436,42.083c-.048-.012-.065.269-.084.392.028-.116.063-.171.106-.193a.964.964,0,0,0-.022-.2" fill="#4d4d4d"/>
    <path id="Path_3496" data-name="Path 3496" d="M34.708,43.06l.039.043c-.012-.01-.023-.033-.039-.043" fill="#4d4d4d"/>
    <path id="Path_3497" data-name="Path 3497" d="M27.764,42.073a.387.387,0,0,0-.02-.1.283.283,0,0,0,.02.1" fill="#4d4d4d"/>
    <path id="Path_3498" data-name="Path 3498" d="M31.939,44.546v.05c.013-.028.016-.048,0-.05" fill="#4d4d4d"/>
    <path id="Path_3499" data-name="Path 3499" d="M34.42,45.938l-.034.015-.008.158Z" fill="#4d4d4d"/>
    <path id="Path_3500" data-name="Path 3500" d="M17.124,41.495l.009.005c.052-.032.022-.026-.009-.005" fill="#4d4d4d"/>
    <path id="Path_3501" data-name="Path 3501" d="M.257,46.071c.251-.477.323.29.6-.361-.11.14-.439-.162-.6.361" fill="#4d4d4d"/>
    <path id="Path_3502" data-name="Path 3502" d="M33.606,44.094a.1.1,0,0,1,0-.042c-.009.025-.008.037,0,.042" fill="#4d4d4d"/>
    <path id="Path_3503" data-name="Path 3503" d="M.859,45.711h0l.027-.061-.029.062" fill="#4d4d4d"/>
    <path id="Path_3504" data-name="Path 3504" d="M12.569,41.664a.415.415,0,0,0,.046.123.272.272,0,0,0-.046-.123" fill="#4d4d4d"/>
    <path id="Path_3505" data-name="Path 3505" d="M15.962,42.064l-.084-.038a.164.164,0,0,0,.084.038" fill="#4d4d4d"/>
    <path id="Path_3506" data-name="Path 3506" d="M10.807,42.061c-.046-.022-.061-.06-.124-.023a.162.162,0,0,0,.019.035c.023-.039.053-.057.105-.012" fill="#4d4d4d"/>
    <path id="Path_3507" data-name="Path 3507" d="M8.974,42.063a.488.488,0,0,0,.034.056l.058-.014Z" fill="#4d4d4d"/>
    <path id="Path_3508" data-name="Path 3508" d="M26.367,44.681a1.156,1.156,0,0,1,.084.253c-.028-.2.241-.271-.084-.253" fill="#4d4d4d"/>
    <path id="Path_3509" data-name="Path 3509" d="M33.727,44.066c-.071.026-.106.034-.121.028a.083.083,0,0,0,.015.023.456.456,0,0,0,.106-.051" fill="#4d4d4d"/>
    <path id="Path_3510" data-name="Path 3510" d="M10.733,44.279l-.291-.042a.933.933,0,0,0,.291.042" fill="#4d4d4d"/>
    <path id="Path_3511" data-name="Path 3511" d="M13.211,44.721l.067-.034a.056.056,0,0,0-.067.034" fill="#4d4d4d"/>
    <path id="Path_3512" data-name="Path 3512" d="M9.577,44.279a.491.491,0,0,0-.164-.194.268.268,0,0,0-.034.072Z" fill="#4d4d4d"/>
    <path id="Path_3513" data-name="Path 3513" d="M26.452,44.936v0Z" fill="#4d4d4d"/>
    <path id="Path_3514" data-name="Path 3514" d="M28.37,44.269c-.277-.008-.13.362-.189.574-.331.105-.153-.272-.266-.461-.207.1-.366.437-.52.423-.012-.061-.042-.083-.006-.16-.219.294-.65.015-.905.384a.3.3,0,0,1-.033-.092,1.873,1.873,0,0,1,.039.507c-.124.006-.231.233-.277-.008.076.007.082-.09.118-.166l-.13.1c-.118-.347.178-.12.178-.377-.255.113-.551.4-.746.3-.041-.339.456-.114.2-.416l.3.13c-.23-.536.183.037-.028-.536-.4-.1-.444.173-.84.074-.089.189.03.279-.06.468-.562.339-.442-.854-.856-.4-.107.227-.148.656-.443.429l.1-.384c-.385-.038-.22.552-.622.294.071-.151.3-.128.244-.173-.261-.3-.185.218-.385.218l-.041-.341c-.409.054-.86.3-1.313.362.025-.1.1-.208,0-.312a2.938,2.938,0,0,1-1.771-.243l-.21.293c-.049,0-.091-.132-.038-.189-.215-.111-.011.186-.114.3-.122.021-.162-.168-.084-.256-.379.248-1.08.536-1.479.221l.078-.087c-.311-.119-.351.6-.639.328l.055-.052c-.675-.127-1.421.142-1.935-.3-.1.423-.668-.188-.712.4-.385-.293-.275-.4-.817-.594-.145-.028-.216.368-.4.429l-.005-.308-.243.323-.129-.368-.169.079a.244.244,0,0,1,.133.227c-.263.14-.64-.215-.647-.373l-.621.261c.014-.124.118-.166.2-.246-.331.315-.06-.324-.364-.036.041.07-.022.184-.029.246a.742.742,0,0,0-.751-.109l.049-.213c-.461-.054-.971.1-1.488.1.185.1.143.467-.009.5l-.061-.326c-.1.2.159.123-.042.37-.193-.038-.13-.371-.019-.477l-.235.113c-.014-.1.041-.149.056-.273-.1.2-.406-.326-.545.025l-.013-.1c-.517,0-.751.109-1.172.126-.008.281-.173.218-.3.446a3.007,3.007,0,0,0-1.026-.287c-.262.14-.076.238-.194.4-.019-.256-.392-.232-.2-.416a3.346,3.346,0,0,0-1.137.259c.062.1.132.151.1.238-.1.042-.234-.107-.219-.23l.027-.027c-.318.192-.684.005-1.034-.163-.312-.168-.794-.317-.761-.05l.011-.026a1.11,1.11,0,0,1-.258.278c-.069-.044.135-.192.152-.351-.213.258-.3.182-.319.144.025-.077.035-.114-.079-.1.189-.151.28-.254.319-.248s.022.063,0,.1a1.286,1.286,0,0,1-.037-.213c-.01-.023-.015.02-.015.02a.253.253,0,0,0,.165.128l-.179-.093c-.174-.127.1.027.143.052-.139-.1-.16-.081-.257-.162a.456.456,0,0,1-.054-.2.678.678,0,0,1,.429.186l.032.04a.233.233,0,0,0,.016.02l.086.02.343.079c.228.051.455.1.681.13.4.048.227-.92.731-.5l-.143.33c.806-.4,1.649.014,2.438-.322-.047.076-.048.175-.125.174.167.24.616.011.619-.184.123.022.029.177.105.276.167.142.419-.306.508-.067.015.039-.047.078-.077.1.109-.116.508.03.4-.247.3.132.567-.123.8.041.154-.31.508.149.557-.289-.022.452.519.365.706.152-.062.137.163.142.09.331.214-.006.41-.09.372-.323.394.541.792-.435,1.014.258a10.174,10.174,0,0,1,1.794-.513c-.021.451-.631.045-.607.518.542-.186.855-.573,1.392-.464.139.062-.079.2-.126.273.542-.186,1.047.041,1.529-.2,0,.042-.053.088-.1.122.095-.014.221.067.211-.138l-.093.055c-.152-.3.377-.621.394-.779-.161.588.476.148.22.891a.288.288,0,0,0,.127-.273c.092.04.122.12.028.276.34-.112.219-.33.527-.325,0,.1-.063.137-.095.254.156-.193.313-.387.573-.3-.016.06.015.138-.063.136.447-.03.762-.516,1.253-.328-.145.431.167.142.193.515l.264-.111-.106-.182c.231.007.435-.265.634-.143l-.172.154.433-.071-.245-.142c.234-.192-.025-.472.283-.368-.063.038.231.005.351.225h0c.114-.119.231-.244.4-.152.045.12-.035.413-.007.493.113-.312.542-.087.685-.419a.565.565,0,0,0-.035.314l.095-.254c.107.081.123.12.105.277.322.046-.1-.474.28-.27-.03.021-.016.059-.078.1.384.107.742-.161,1.094-.036.1.376-.308.092-.189.409.509-.068,1.053-.45,1.545-.362l-.091-.041c.068-.531.366.262.615.012-.061.039-.08.294-.063.235.337.085.689-.131,1.2-.3l-.063.136c.2.122.523.07.738.132.064-.136.186-.114.112-.312.661.776,1.262-.416,1.848.231-.07,0-.167.119-.111.119l.5-.125c-.04-.231-.066-.14-.171-.32a.408.408,0,0,1,.329-.243c-.225.153,0,.371.1.5a2.052,2.052,0,0,1,.009-.221c.261.411.043-.465.4-.188l-.019.121c.134-.062.256-.222.4-.188.06.268-.142.125-.151.345.2-.015.4-.507.582-.24-.086.075-.209.076-.3.15.2.314.222.234.37.284l-.014-.007.342.142-.087-.085c.253-.7.515-.128.855-.584-.331.432-.054.25-.08.553.087.084.22.178.182.263.161-.244.269.193.5-.165.01.1.172.01.136.255.209-.077-.049-.17-.032-.292.19-.167.257-.066.367.02s.136.155.423-.073c.229-.116.471-.286.751-.437a.215.215,0,0,1,.244.093.392.392,0,0,1-.356.2c-.143.284-.117.347-.005.443-.085.014-.157.088-.267.178.026.081.355-.078.212.131l-.392.037a.971.971,0,0,1,.36.267c-.17.041-.258-.061-.369-.073.076.046.154.416.423.48l.1-.135c.013.077-.231.039-.28-.017-.211-.192.093-.236.191-.252a.769.769,0,0,1,.062.116c.286-.065.264-.206.173-.332s-.248-.2-.231-.312a3.2,3.2,0,0,1,.416-.077,1.134,1.134,0,0,0-.345-.092c.108-.107.34-.3.4-.191.206-.34-.147-.083.082-.424.035-.047.055-.053.072-.046a1.606,1.606,0,0,0-.124-.114c.087-.032.294-.291.234-.1a.5.5,0,0,0,.032-.413c-.287.072-.542.234-.482.029l.055-.026c-.348.07-.4.147-.466.25a1.178,1.178,0,0,1-.4.414,2.638,2.638,0,0,0,.1-.753l-.175.305c-.049-.011-.151-.034-.1-.156-.268.209-.006.133-.174.33-.086-.139-.277-.107-.422-.1s-.252-.013-.278-.256c-.083.232.222.179-.026.34-.07-.523-.286.09-.5-.15.065-.27.266-.128.054-.368-.128.456-.412-.1-.591-.013-.008.363-.388.152-.687.273.018-.122-.564-.2-.843-.332l.008-.06c-.054.367-.341.3-.551.374a.461.461,0,0,1,.16-.4h-.2a.336.336,0,0,1-.236.222l.05-.274c-.262.015-.528.323-.865.14-.019.256.268.713-.088.884-.013-.139-.027-.376.067-.432-.031.018-.109.115-.171.056l.143-.233c-.154-.1-.081.194-.2.173,0-.2-.091-.141-.074-.3.032-.019.107.082.154,0a.551.551,0,0,1-.361-.3c.013.112,0,.266-.1.292-.262.014-.09-.238-.242-.339-.064.137-.231-.005-.235.29-.077,0-.091-.139-.121-.219-.135.13-.633.037-.48.351l.035.021-.023.013h0c-.444.293-.923-.168-1.364-.041v-.1c-.263.113-.586.067-.774.279-.077,0-.183-.18-.15-.3-.2.074-.224.185-.514.022.2-.172-.07-.152.207-.126-.262-.085-.321-.243-.6.027.1-.253-.2-.319-.322-.243l.184.181a.863.863,0,0,1-.386-.007l.067-.333c-.535-.405-.965.689-1.372.011-.142.233.29.164.164.436-.246-.045-.5-.522-.58-.523-.337-.185-.314.486-.667.36.045.118.088.435-.176.547-.246-.044-.3-.5-.147-.593a.065.065,0,0,1,.085.068c.079-.043.184-.094.086-.223l-.032.119c-.122-.121-.461-.109-.381-.3-.186.113-.08.194.058.256-.316-.172-.493-.005-.818-.121.051.066.1.205.048.2-.477-.147-.21.225-.533.277-.184-.181.065-.432-.26-.28-.2-.123-.042-.315.037-.412-.3.229-.554-.15-.723-.192l.156-.1a.418.418,0,0,1-.248.055l.09.237c-.092-.041-.17-.042-.168-.141-.094.155.072.4-.115.607-.122-.12-.372.13-.414-.185.384.107-.043-.317.282-.367a.24.24,0,0,1-.231-.006.075.075,0,0,1,.038-.083c-.367-.282-.169.356-.55.349.049-.178-.088-.337-.15-.3.153,0,.073.3-.068.432-.244-.138-.265.1-.393.087l.146.065c-.05.177-.172.154-.342.21-.015-.138.155-.1.094-.156-.189.312-.428-.323-.691-.113-.122-.12-.012-.334-.119-.415-.3.23-.321-.243-.631-.053.089.238.105.18-.114.413l.511-.168-.328.347c.154,0,.325-.15.418-.11-.156.195-.14.136-.067.334-.21-.358-.418.208-.661-.034l.007-.59c-.367-.264-.651.3-1.127.154l.153.1c-.064.235-.294.033-.448.128.014-.2-.082-.269-.148-.392.008.146-.348-.014-.392.381l-.212-.26c-.384-.107-.439.562-.808.495.111-.215-.057-.355.191-.508-.123,0-.234-.038-.236.1-.072-.124-.342.266-.456.078-.052.087-.069.294-.207.277a.192.192,0,0,1,0-.1c0,.1-.216.132-.1.351-.38-.616-1.062.045-1.393-.484a5.221,5.221,0,0,1-.838.144c.016-.059,0-.1.047-.078-.337-.184-.207.567-.591.362-.2-.319.2-.173.082-.294-.053-.649-.463.089-.721-.29l.062-.039c-.2-.22-.481.247-.8.2a.212.212,0,0,0,0-.1,1.611,1.611,0,0,1-.948.533c.1-.254.14-.135.082-.393-.139.037.04.415-.237.487-.09-.139-.291-.261-.317-.536l.262-.015c-.134-.357-.339.012-.477-.05L4.63,41.9c-.4.051-.407.444-.838.416l.044.118c-.235.389-.2-.219-.432.07l-.071-.4a3.512,3.512,0,0,1-.923.456.69.69,0,0,1,.344-.353c.083-.048.174-.092.265-.135a1.218,1.218,0,0,0,.176-.128,1.4,1.4,0,0,0-.148.006c-.078.006-.185.016-.275.032-.185.032-.343.088-.373.186.077-.038.176-.135.278-.074a.926.926,0,0,1-.821.456c-.245-.5-.722-.429-1.236-.486-.03.217-.1.387-.3.362a3.142,3.142,0,0,1,.1.736,6.31,6.31,0,0,1-.05.766c-.015.112-.032.313-.048.365a1.78,1.78,0,0,0-.046.248,7.625,7.625,0,0,0-.033.928c.6-.663.017.35.629-.06.039.175.029.252-.011.3-.121.282-.244.6-.364.947-.179.342-.136-.1-.273.037a.974.974,0,0,1-.158.526c-.037.082-.134.18.01.264a.693.693,0,0,1,.76-.229,1.82,1.82,0,0,1-.228-.282c.514-.163.552-.035.648.094s.221.258.7.1l-.348.192c.249-.057.655-.056,1.062-.1.483-.046.564-.14.712-.385.041.07.1.238-.007.282.557.073,1.241-.523,1.674-.22l-.042.149c.1-.043.181-.281.311-.13-.007.061-.042.149.006.158.055-.052.277-.262.414-.175l-.117.168c.544.2.834-.41,1.29-.512,0,.44.427.583.641.654l-.008.063c.633.054,1.076-.365,1.662-.538.364.478,1.233.2,1.818.468-.089-.08.015-.343.119-.387.137.089.379-.306.358.1l-.049-.008c.1.4.385.291.606.3l.036-.528c.576.768,1.51-.282,1.824.406.139-.132.312-.131.449-.263l-.007.283a2.6,2.6,0,0,0,1.054.041l-.1.2c.268.018.339-.816.587-.833l.074.423c.469-.007.943.364,1.406-.019-.007.062-.021.184-.1.2.221.011.853.286.773-.294.006.378.484.037.737-.13l-.039.279c.213-.356.22-.453.518-.552.071.036.062.223-.032.152.236.146.184-.264.469-.116l-.106.178c.242.022.223-.074.357-.281.152-.112.459.07.5.322.033-.154.166-.359.308-.286a.2.2,0,0,1-.058.183c.4.189.6-.324.881-.051a.284.284,0,0,0,.047.167,2.028,2.028,0,0,1-.557-.043c0,.257.26.3.053.657.209-.193.566-.614.819-.493a.331.331,0,0,1,.034.089l-.026.028a.144.144,0,0,0,.16-.041.487.487,0,0,0,.21.077c.03.213.3.115.428.125-.011-.281.159-.236,0-.468.02.02-.025.034-.111.045-.019.009-.042.013-.055.029l.009-.024-.323.018c.1-.142.21-.262.353-.106.067-.181.14-.367.181-.454.178.392.52.6.567.846.4-.158.933-.1,1.182-.632.113-.068.13.151.172.234-.065.053-.143.045-.178.121.225-.136.667-.053.721-.422.284.167-.16.34.23.28l-.052.112c.767.59,1.246-.941,2.1-.185-.059-.046-.089-.067-.1-.129.97.334,2-.313,2.954.216.272.107.3-.129.468-.308l.059.3.283-.349c.4-.255.7.741,1.206.259l-.065-.2c.183.038.579-.12.549.114.018-.037.06-.212.131-.106l.006.158.449-.271c.348.115-.054.627.454.658.189-.061.538-.46.467-.565a.261.261,0,0,1-.2-.257l.172-.083c.032-.465.165-.942-.26-1.267l-.295.285-.1-.226.249-.014c-.141-.213-.23-.025-.331.1a.4.4,0,0,0-.123-.249l-.291.445c-.035-.182.131-.361-.064-.462-.136.206.13.408-.1.544-.141-.212-.1-.384-.266-.2a.234.234,0,0,1,.078-.249c-.148.144-.391.061-.468.308-.147-.261-.5.068-.484-.373-.047.106-.26.346-.4.365.248-.528-.508-.031-.442-.6-.184.474-.663.211-.988.474.018-.038.054-.114.082-.09-.183-.039-.236-.182-.353-.272-.024.392-.309.481-.462.723-.225-.378.136-.46.065-.823.012.317-.389.317-.313.581-.172-.234-.148-.113-.236-.438-.03.49-.16.083-.3.384-.248-.242-.064-.459-.337-.31-.129-.15.113-.324.113-.324m-6.484.848v-.006l.134-.016-.134.022m-.545,0a1.341,1.341,0,0,0,.237.011c.019.1,0,.2-.057.192.03-.065-.1-.121-.18-.2m1.153,1.948c-.086.04-.115-.015-.127-.073a.8.8,0,0,0,.151-.034l.01-.034a.6.6,0,0,1-.034.141" fill="#4d4d4d"/>
    <path id="Path_3515" data-name="Path 3515" d="M22.65,46.7c.012-.006.019-.018.036-.02a.622.622,0,0,0-.052-.064l-.03.088Z" fill="#4d4d4d"/>
    <path id="Path_3516" data-name="Path 3516" d="M26.584,42.448l-.011-.006a.118.118,0,0,1,.024.04.254.254,0,0,1-.013-.034" fill="#4d4d4d"/>
    <path id="Path_3517" data-name="Path 3517" d="M13.818,44.582v.071l.047-.062Z" fill="#4d4d4d"/>
    <path id="Path_3518" data-name="Path 3518" d="M29.585,43.412a.147.147,0,0,0,.039.072.166.166,0,0,0-.039-.072" fill="#4d4d4d"/>
    <path id="Path_3519" data-name="Path 3519" d="M30.882,43.475l.183.1a.7.7,0,0,0-.183-.1" fill="#4d4d4d"/>
    <path id="Path_3520" data-name="Path 3520" d="M31.878,43.615a.763.763,0,0,0,.02-.12l0,0Z" fill="#4d4d4d"/>
    <path id="Path_3521" data-name="Path 3521" d="M16.031,43.945a.075.075,0,0,0-.038.013c-.091.054-.029.033.038-.013" fill="#4d4d4d"/>
    <path id="Path_3522" data-name="Path 3522" d="M20.747,43.288a.837.837,0,0,1-.152.133c.084.021.15.027.152-.133" fill="#4d4d4d"/>
    <path id="Path_3523" data-name="Path 3523" d="M10.765,44.283v0h-.033Z" fill="#4d4d4d"/>
    <path id="Path_3524" data-name="Path 3524" d="M20.376,43.416a.186.186,0,0,0,.219.005.27.27,0,0,0-.219-.005" fill="#4d4d4d"/>
    <path id="Path_3525" data-name="Path 3525" d="M33.543,44.643l-.011.048a.12.12,0,0,1,.045.006Z" fill="#4d4d4d"/>
    <path id="Path_3526" data-name="Path 3526" d="M33.577,44.7l.033.053c0-.024,0-.045-.033-.053" fill="#4d4d4d"/>
    <path id="Path_3527" data-name="Path 3527" d="M33.681,44.863l-.071-.112c0,.039-.009.087.071.112" fill="#4d4d4d"/>
    <path id="Path_3528" data-name="Path 3528" d="M33.673,43.859l-.1.066.1-.066" fill="#4d4d4d"/>
    <path id="Path_3529" data-name="Path 3529" d="M33.644,43.672c-.023.08-.217.305-.154.307l.081-.054c-.151.1.245-.351.073-.253" fill="#4d4d4d"/>
    <path id="Path_3530" data-name="Path 3530" d="M32.805,42.382l.419.081c-.047-.108-.14-.254.083-.28-.556-.324.074.243-.5.2" fill="#4d4d4d"/>
    <path id="Path_3531" data-name="Path 3531" d="M31.763,42.224c.181-.051,0-.158.007-.219-.114.1-.142.124-.007.219" fill="#4d4d4d"/>
    <path id="Path_3532" data-name="Path 3532" d="M24.234,42.223l.018-.256c-.139.037,0,.1-.018.256" fill="#4d4d4d"/>
    <path id="Path_3533" data-name="Path 3533" d="M22.795,43.545l.135.159.065-.235Z" fill="#4d4d4d"/>
    <path id="Path_3534" data-name="Path 3534" d="M21.944,41.723l.061-.036-.232.092Z" fill="#4d4d4d"/>
    <path id="Path_3535" data-name="Path 3535" d="M9.3,41.814l.042.315c.094-.057.114-.411-.042-.315" fill="#4d4d4d"/>
    <path id="Path_3536" data-name="Path 3536" d="M3.841,42.135c-.059-.158-.213-.259-.308-.1.123.022.246.144.308.1" fill="#4d4d4d"/>
    <path id="Path_3537" data-name="Path 3537" d="M12.37,47.109l-.11.105.207-.087Z" fill="#4d4d4d"/>
  </g>
</svg>
