<svg xmlns="http://www.w3.org/2000/svg" width="19.207" height="18.251" viewBox="0 0 19.207 18.251">
  <g id="Icon_material-pets" data-name="Icon material-pets" transform="translate(-3 -4.5)">
    <path id="Path_3218" data-name="Path 3218" d="M7.8,12.9a2.4,2.4,0,1,1-2.4-2.4,2.4,2.4,0,0,1,2.4,2.4Z" transform="translate(0 -2.159)" fill="#dc9722"/>
    <path id="Path_3219" data-name="Path 3219" d="M14.552,6.9a2.4,2.4,0,1,1-2.4-2.4,2.4,2.4,0,0,1,2.4,2.4Z" transform="translate(-2.428)" fill="#dc9722"/>
    <path id="Path_3220" data-name="Path 3220" d="M23.552,6.9a2.4,2.4,0,1,1-2.4-2.4,2.4,2.4,0,0,1,2.4,2.4Z" transform="translate(-5.666)" fill="#dc9722"/>
    <path id="Path_3221" data-name="Path 3221" d="M30.3,12.9a2.4,2.4,0,1,1-2.4-2.4,2.4,2.4,0,0,1,2.4,2.4Z" transform="translate(-8.094 -2.159)" fill="#dc9722"/>
    <path id="Path_3222" data-name="Path 3222" d="M18.808,19.937c-.836-.98-1.537-1.815-2.382-2.795a4.074,4.074,0,0,0-1.681-1.268,1.944,1.944,0,0,0-.317-.086,4.833,4.833,0,0,0-.749-.038,4.029,4.029,0,0,0-.759.048,1.944,1.944,0,0,0-.317.086,4.137,4.137,0,0,0-1.681,1.268c-.836.98-1.537,1.815-2.382,2.795-1.258,1.258-2.8,2.651-2.516,4.6a3.015,3.015,0,0,0,2.238,2.228c.7.144,2.939-.423,5.32-.423h.173c2.382,0,4.619.557,5.32.423a3.03,3.03,0,0,0,2.238-2.228c.3-1.959-1.248-3.352-2.507-4.61Z" transform="translate(-1.076 -4.047)" fill="#dc9722"/>
  </g>
</svg>
