<svg xmlns="http://www.w3.org/2000/svg" width="86.538" height="90.727" viewBox="0 0 86.538 90.727">
  <g id="Group_840" data-name="Group 840" transform="translate(-1000.47 -767.674)">
    <g id="Icon_material-pets" data-name="Icon material-pets" transform="translate(996.598 833.051) rotate(-34)">
      <path id="Path_3218" data-name="Path 3218" d="M8.657,4.329A4.329,4.329,0,1,1,4.329,0,4.329,4.329,0,0,1,8.657,4.329Z" transform="translate(0 6.926)" fill="#dc9722"/>
      <path id="Path_3219" data-name="Path 3219" d="M8.657,4.329A4.329,4.329,0,1,1,4.329,0,4.329,4.329,0,0,1,8.657,4.329Z" transform="translate(7.792 0)" fill="#dc9722"/>
      <path id="Path_3220" data-name="Path 3220" d="M8.657,4.329A4.329,4.329,0,1,1,4.329,0,4.329,4.329,0,0,1,8.657,4.329Z" transform="translate(18.18 0)" fill="#dc9722"/>
      <path id="Path_3221" data-name="Path 3221" d="M8.657,4.329A4.329,4.329,0,1,1,4.329,0,4.329,4.329,0,0,1,8.657,4.329Z" transform="translate(25.972 6.926)" fill="#dc9722"/>
      <path id="Path_3222" data-name="Path 3222" d="M23.109,7.549c-1.506-1.766-2.77-3.272-4.294-5.039A7.346,7.346,0,0,0,15.785.225a3.505,3.505,0,0,0-.571-.156A8.714,8.714,0,0,0,13.863,0,7.263,7.263,0,0,0,12.5.087a3.505,3.505,0,0,0-.571.156,7.459,7.459,0,0,0-3.03,2.286C7.387,4.294,6.123,5.8,4.6,7.566,2.331,9.835-.456,12.345.063,15.86A5.436,5.436,0,0,0,4.1,19.877c1.264.26,5.3-.762,9.592-.762H14c4.294,0,8.328,1,9.592.762a5.462,5.462,0,0,0,4.034-4.017c.537-3.532-2.251-6.043-4.519-8.311Z" transform="translate(3.452 12.986)" fill="#dc9722"/>
    </g>
    <g id="Icon_material-pets-2" data-name="Icon material-pets" transform="translate(1033.48 785.839) rotate(-34)">
      <path id="Path_3218-2" data-name="Path 3218" d="M10.479,5.24A5.24,5.24,0,1,1,5.24,0a5.24,5.24,0,0,1,5.24,5.24Z" transform="translate(0 8.383)" fill="#dc9722"/>
      <path id="Path_3219-2" data-name="Path 3219" d="M10.479,5.24A5.24,5.24,0,1,1,5.24,0a5.24,5.24,0,0,1,5.24,5.24Z" transform="translate(9.431 0)" fill="#dc9722"/>
      <path id="Path_3220-2" data-name="Path 3220" d="M10.479,5.24A5.24,5.24,0,1,1,5.24,0a5.24,5.24,0,0,1,5.24,5.24Z" transform="translate(22.006 0)" fill="#dc9722"/>
      <path id="Path_3221-2" data-name="Path 3221" d="M10.479,5.24A5.24,5.24,0,1,1,5.24,0a5.24,5.24,0,0,1,5.24,5.24Z" transform="translate(31.438 8.383)" fill="#dc9722"/>
      <path id="Path_3222-2" data-name="Path 3222" d="M27.972,9.138c-1.823-2.138-3.353-3.961-5.2-6.1A8.892,8.892,0,0,0,19.107.272a4.243,4.243,0,0,0-.692-.189A10.548,10.548,0,0,0,16.78,0a8.792,8.792,0,0,0-1.656.1,4.243,4.243,0,0,0-.692.189A9.029,9.029,0,0,0,10.765,3.06c-1.823,2.138-3.353,3.961-5.2,6.1C2.822,11.9-.552,14.943.076,19.2A6.58,6.58,0,0,0,4.96,24.06c1.53.314,6.413-.922,11.611-.922h.377c5.2,0,10.081,1.216,11.611.922A6.612,6.612,0,0,0,33.442,19.2c.65-4.276-2.725-7.314-5.47-10.06Z" transform="translate(4.178 15.719)" fill="#dc9722"/>
    </g>
  </g>
</svg>
