<svg id="DrawKit_Vector_Illustration_Animal_Pets_8_" data-name="DrawKit Vector Illustration Animal &amp; Pets (8)" xmlns="http://www.w3.org/2000/svg" xmlns:xlink="http://www.w3.org/1999/xlink" width="278.725" height="226.503" viewBox="0 0 278.725 226.503">
  <defs>
    <clipPath id="clip-path">
      <path id="Path_3728" data-name="Path 3728" d="M210.6,207s2,73.3,2,75.8,4.7,17.5,4.7,17.5h11.1s-6.8-50.2-3.9-60.1c2.9-10,4.5-35.8.2-36.4C220.4,203.3,213.5,197.6,210.6,207Z" transform="translate(-210.6 -201.633)"/>
    </clipPath>
    <clipPath id="clip-path-2">
      <path id="Path_3782" data-name="Path 3782" d="M364.553,205.3s-16.8,17.8-56.5,40.7l-23.7,42.1a17.244,17.244,0,0,1,7.9,12.2h-15.6s-.3-24.2,2.1-28.9c2.3-4.7,22.5-36.8,22.5-36.8s40.3-31.6,42-33.5S370.353,196.8,364.553,205.3Z" transform="translate(-276.641 -199.27)"/>
    </clipPath>
    <clipPath id="clip-path-3">
      <path id="Path_3845" data-name="Path 3845" d="M164.458,145a37.644,37.644,0,0,1,.7-10.1,61.451,61.451,0,0,1-10.4,2.9C151.158,138.3,159.758,144.5,164.458,145Z" transform="translate(-153.9 -134.9)"/>
    </clipPath>
  </defs>
  <g id="Illustration" transform="translate(0 0)">
    <g id="Group_948" data-name="Group 948">
      <path id="Path_3674" data-name="Path 3674" d="M139.025,298.8c-2.4-1.3,238.4-3.6,252.4,0,10.1,2.6-26.5,5.2-69.6,5.1-45.8,0-99-2.8-113.9-1.3C178.825,305.4,147.125,303.2,139.025,298.8Z" transform="translate(-139.007 -77.4)" fill="#f8e17c"/>
      <g id="Group_947" data-name="Group 947" transform="translate(4.518)">
        <path id="Path_3675" data-name="Path 3675" d="M210.6,207s2,73.3,2,75.8,4.7,17.5,4.7,17.5h11.1s-6.8-50.2-3.9-60.1c2.9-10,4.5-35.8.2-36.4C220.4,203.3,213.5,197.6,210.6,207Z" transform="translate(-50.4 -77.4)" fill="#fff0dd"/>
        <g id="Group_936" data-name="Group 936" transform="translate(160.2 124.233)">
          <g id="Group_935" data-name="Group 935" transform="translate(0)" opacity="0.88" clip-path="url(#clip-path)">
            <g id="Group_934" data-name="Group 934" transform="translate(-19.4 9.428)">
              <g id="Group_933" data-name="Group 933" transform="translate(0)">
                <g id="Group_932" data-name="Group 932" transform="translate(0)">
                  <path id="Path_3676" data-name="Path 3676" d="M218.7,219l-.3.3S218.4,219.2,218.7,219Z" transform="translate(-189.3 -211.061)" fill="#322015"/>
                  <path id="Path_3677" data-name="Path 3677" d="M228.6,212.4h0v0Z" transform="translate(-209.4 -211.061)" fill="#322015"/>
                  <path id="Path_3678" data-name="Path 3678" d="M228.485,212.2v-.5A.33.33,0,0,1,228.485,212.2Z" transform="translate(-209.285 -211.061)" fill="#322015"/>
                  <path id="Path_3679" data-name="Path 3679" d="M221.3,221.4c-.1.1-.2.3-.4.5Z" transform="translate(-194.4 -211.061)" fill="#322015"/>
                  <path id="Path_3680" data-name="Path 3680" d="M223.4,221.5a.349.349,0,0,0-.2.1A.31.31,0,0,1,223.4,221.5Z" transform="translate(-198.8 -211.061)" fill="#322015"/>
                  <path id="Path_3681" data-name="Path 3681" d="M214.3,229.3c.1,0,.1,0,.2-.1A.349.349,0,0,1,214.3,229.3Z" transform="translate(-181 -211.061)" fill="#322015"/>
                  <path id="Path_3682" data-name="Path 3682" d="M215.386,230.1v.2h-.1C215.086,230.3,215.286,230.2,215.386,230.1Z" transform="translate(-182.786 -211.061)" fill="#322015"/>
                  <path id="Path_3683" data-name="Path 3683" d="M215.944,229.8v.2C215.844,229.9,215.944,229.9,215.944,229.8Z" transform="translate(-184.044 -211.061)" fill="#322015"/>
                  <path id="Path_3684" data-name="Path 3684" d="M222.2,234.6h0Z" transform="translate(-196.1 -211.061)" fill="#322015"/>
                  <path id="Path_3685" data-name="Path 3685" d="M214.3,229c-.1.1-.3.1-.4.2A.52.52,0,0,1,214.3,229Z" transform="translate(-180.4 -211.061)" fill="#322015"/>
                  <path id="Path_3686" data-name="Path 3686" d="M218.5,218.9c-.1.1-.1.1-.2.1A.31.31,0,0,1,218.5,218.9Z" transform="translate(-189 -211.061)" fill="#322015"/>
                  <path id="Path_3687" data-name="Path 3687" d="M220.556,222h0C220.556,221.9,220.656,221.9,220.556,222Z" transform="translate(-193.356 -211.061)" fill="#322015"/>
                  <path id="Path_3688" data-name="Path 3688" d="M233.063,211.3c-.1-.1-.2-.1-.3-.2C233.063,211,233.163,211.1,233.063,211.3Z" transform="translate(-218.063 -211.061)" fill="#322015"/>
                  <path id="Path_3689" data-name="Path 3689" d="M232.5,226.4c-1.5.1,0,.4-1.4.6.3-.2.5-.4-.3-.4-.8.3.1.4-1.1.7l.4-.4c-.6-.1-1.6.3-1.5.1,1.6-.5-.7-.7-.6-1l-.1.1-.9-.2h-.1a.367.367,0,0,0,.3-.1c-.9,0-1.5-.1-1.4-.5.5-.2.5-.4.5-.7,0-.2-.1-.5.3-.7-.2.2-.2.3.1.4l1.1-.3c-.1-.3-1,.3-.5-.2,1.5-.4.2.4.4.6a6.815,6.815,0,0,0,.7-.5c.2.4.8.8-.7,1.4a2.431,2.431,0,0,0,1.1-.3c-.8.5.9,0,.2.5,1.4-.4.6-.9,1.3-1.4-1.2-.2-.3-1-.3-1.6a15.313,15.313,0,0,1-2.4.9c-.8-.2.4-.6.9-1.1-.5-.2-1.7.6-1.9.2l-.5.5c-1.5.3.5-.5.1-.5.4-.1.8-.2.8,0,.5-.2.7-.4.7-.6h.1c.6-.4,1.4-.7.9-.9-.7.6-.7,0-1.1.1l-.1.2c.2-.3-.1-.5,0-.7l-.2.1c.2-.3,1.2-.9.8-1.1-.4.3-1.3,1.1-1.3.8-.6.4-.4.6-.1.8-.3-.1-1.3.3-1.3.6-.8.3.2-.4-.2-.3.2-.1.5-.3.7-.4-1,.6-.4-.4.3-.9l-.4.6c.8-.4,1.1-1.1,1.6-1.3-1.3.7.1-1.2-1-.6l.7-.3c-.8-.3.2-1.8-.2-2.7-.1.5-1.3,1.6-.6,1.6-.7-.3-1.3.9-2,1.3-.7.1.9-1.2,1.2-1.7v.5c.5-.8.2-1-.2-1.1s-.9-.1-.8-.8c-.3.4-.1.3-.1.5-.8.6-.1-.3-.1-.8-.4-.1-.9.1-1.4,1.1-.4.1.4-.6.5-1l-.2.2c.1-.4.3-.9.4-1.3a3.969,3.969,0,0,0-1.8,1.4c-.5-.5,1-2.5.6-3.1-.5.4-.3.8-.5,1.3l-.4-.3c-.4,1.3.2.8-.4,2.2.3-1.6-.3-.6-.4-1.7l.1-.1c.1-1-.6-.6-.9-.9-.1.6.2.8.4,1.1-.5.3-1.1-.3-1.1-1.7a1.175,1.175,0,0,0-.7,1.2c-.7.1.1-1.9-.6-1.7l-.2,1c-.9,1.3-1.1-1.5-1.9-.3l.1-1.2c-.2.5-.5.7-.6,1.2l.3.5c-.4,1-.2-1-.6-.3,0-.4.4-1.2.4-1.6a3.019,3.019,0,0,0,2.1.2,1.867,1.867,0,0,1,2,.8.764.764,0,0,0-.2.5c.2-.2.4.1.6-.5v-.1c.3.4,1.1-1,1.3-.9-.1.9.9,0,.2,1.3l.6-.8c-.1.5-.4,1.2-.4,1.5.3,0,.5-.5.5-1a3.3,3.3,0,0,1,3,1.8l.2-.7c.4-.1.1,1.6,1,.1,0,.5.4.6.7.8.2.2.3.5-.3,1.2.7-.5,1.1-.4,1.4-.1s.3.9.4,1.3c-1.3.9,0,.8-.4,1.3,1.1-.6.6-1.2,1.2-1.7-.5.9.1,1.1.5,1.5.4.3.7.7-.6,1.6.2,0,.3,0,.4-.1a1.949,1.949,0,0,0,.8.1c-.4.3-.8.1-.8.5.2.2.9-.3,1.3-.4-.4.8-.3,1.7-1.5,2.2.4,0,1.1-.1,1.2-.3-.7,1.1.4.7.1,1.7,0-.3,1.2-.5.6-.8.9-.1.9.2.9.6-.1.4-.3.9.2,1.1l-1,.5c-.1.4,1,.2,1.3-.1.8.5.2,1.1.3,1.6.1,0,.4,0,.3-.1l.1.7a3.706,3.706,0,0,1-1.5.5C232.7,227,233,226.8,232.5,226.4Z" transform="translate(-200.6 -211.061)" fill="#322015"/>
                  <path id="Path_3690" data-name="Path 3690" d="M216.5,227.1h0Z" transform="translate(-185.1 -211.061)" fill="#322015"/>
                  <path id="Path_3691" data-name="Path 3691" d="M222,222.6a1.338,1.338,0,0,1,.5-.1A1.087,1.087,0,0,1,222,222.6Z" transform="translate(-196.7 -211.061)" fill="#322015"/>
                  <path id="Path_3692" data-name="Path 3692" d="M218.2,233.7c-1.7-.1.3-.4-.2-.7-.3.3-1.3.2-1.8.1,2.2-.3-.4-.4,0-1-.7,0-.8.3-1.6.3a4.124,4.124,0,0,1,2.1-.9c0-.6-.4-1-.3-1.3-.5.4-1.2.1-2.3.5a29.314,29.314,0,0,0,4.8-2.3,11.416,11.416,0,0,0-2.7.2c-1-.6,1.2-.3.7-.9l.3.3c.4-.4,1.6-.5,2.5-.8l-.1.9c.9-.1.7-.6.9-.8,1.1-.4.9.4,1.7.2-.7.2-.4.5-.7.8h.5c.5.4-.7.7-.6,1.1h.3c-.6.2-1.2.3-1.4.6v-.2c-1.2.4-1.9,1.1-3.2.7.1.3.3.5.4.8,1.3-.1,3.3-.3,3.4-.8l.5-.1c.8.4-1,1.1-2.1.9-3.1.4-.1,1.3-1.4,1.8.9.1,1.2-.3,1.8-.4.1-.2.1-.3-.6-.3.5-.8,2.7.2,2.4-.7-.4-.4-1.4.6-1.5-.1l2.4-.5a4.13,4.13,0,0,1-.7,1.1,2.454,2.454,0,0,0-.7,2.2,2.507,2.507,0,0,0,.4.9l-.3,2c-.1.6-.3,1.3-.4,1.9l-.4,1.9-.5,1.9c-.5.7-.4,1-2.8.9-.4-.2-.2-.7-1-.7.9.1,1.4-.1,1.4-.6-.8-.2-.5.3-.7.2v-.1c-.4,0-.7,0-.8.1-1.2-.7-.8-1.4.9-1.5-.8-.5-1.4,0-2.1.1a8.312,8.312,0,0,1-.1-3.5,5.793,5.793,0,0,0,2-.1l-.5-.2c.3.1,1.3,0,1.6.3-1.1-.9,2.1-.7,2.8-1.2h-.8c.2-.4.2-.6.6-.9-1.4-.8-.3.6-2.2.3l.3-.2a18.646,18.646,0,0,0-2.6.3c1.3-.6-.4-1,.6-1.6a2.22,2.22,0,0,0-1.7.8c-.1-.2.6-.6-.2-.7h1.1c.2-.4-1,0-1.7-.2C214.2,233.5,217.5,234.5,218.2,233.7Z" transform="translate(-188.5 -211.061)" fill="#322015"/>
                  <path id="Path_3693" data-name="Path 3693" d="M219.769,223.5a.187.187,0,0,1,0,.3S219.669,223.7,219.769,223.5Z" transform="translate(-191.769 -211.061)" fill="#322015"/>
                  <path id="Path_3694" data-name="Path 3694" d="M221.8,225.9c-.1,0-.3.1-.4.1C221.6,226,221.7,225.9,221.8,225.9Z" transform="translate(-195.4 -211.061)" fill="#322015"/>
                  <path id="Path_3695" data-name="Path 3695" d="M221.7,226.4a7.6,7.6,0,0,0,1.1-.4C222.5,226.2,222.5,226.5,221.7,226.4Z" transform="translate(-196.7 -211.061)" fill="#322015"/>
                  <path id="Path_3696" data-name="Path 3696" d="M247.1,214c.1-.3,0-1,.4-1a5.389,5.389,0,0,0,.3,1Z" transform="translate(-247.1 -211.061)" fill="#322015"/>
                  <path id="Path_3697" data-name="Path 3697" d="M245,214.3a1.483,1.483,0,0,0,.7-.1,7.719,7.719,0,0,0-.2,1.5c-.3-.1-.3-.4-.3-.7C245.3,214.7,245.3,214.5,245,214.3Z" transform="translate(-242.9 -211.061)" fill="#322015"/>
                  <path id="Path_3698" data-name="Path 3698" d="M243.925,214.1v-.4C244.025,213.9,244.025,214,243.925,214.1Z" transform="translate(-240.125 -211.061)" fill="#322015"/>
                  <path id="Path_3699" data-name="Path 3699" d="M244.6,214.7c0,.4-.1.7-.1,1.1a9.293,9.293,0,0,1-.5-1c.1,0,.2-.1.3-.1a1.007,1.007,0,0,1,.4-.6v.8C244.7,214.8,244.7,214.6,244.6,214.7Z" transform="translate(-240.9 -211.061)" fill="#322015"/>
                  <path id="Path_3700" data-name="Path 3700" d="M243.7,214.9c0,.1-.1.2-.1.3C243.6,215.1,243.7,215,243.7,214.9Z" transform="translate(-239.5 -211.061)" fill="#322015"/>
                  <path id="Path_3701" data-name="Path 3701" d="M243.5,213.1a6.552,6.552,0,0,0,0,1.4c-.5.4-.3-1.2-.7-.8.4.9-.3.6-.6,1.2.3-.9.6-1.6,1.1-1.8v.7A1.232,1.232,0,0,1,243.5,213.1Z" transform="translate(-237.9 -211.061)" fill="#322015"/>
                  <path id="Path_3702" data-name="Path 3702" d="M241.747,214.8l-.3-1c-.1.5-.6.5-.6,1.5-.2-.2-.2-.6-.3-.9-.2.5-.3.9-.4.2.8-.6.6-.9,1.2-1.2,0-.2-.1-.2-.2-.2l.4-.5C241.647,214,242.147,214.1,241.747,214.8Z" transform="translate(-234.247 -211.061)" fill="#322015"/>
                  <path id="Path_3703" data-name="Path 3703" d="M239.681,214.1c-.3-.1-.5-1-.3-1.7l.7.8C239.881,213.2,239.581,213.1,239.681,214.1Z" transform="translate(-231.581 -211.061)" fill="#322015"/>
                  <path id="Path_3704" data-name="Path 3704" d="M238.6,214.1c.1-.5.4-1.7.6-.6C238.8,213.3,239,214.8,238.6,214.1Z" transform="translate(-230 -211.061)" fill="#322015"/>
                  <path id="Path_3705" data-name="Path 3705" d="M238.4,213.1l-.7.7c-.1,1.3.3.4.5,1-.5.3-.4-.2-.8-1-.2.1-.4-.6-.6-1C237.7,213.9,237.8,210.7,238.4,213.1Z" transform="translate(-227.4 -211.061)" fill="#322015"/>
                  <path id="Path_3706" data-name="Path 3706" d="M238,214.5l-.1-.6.3.4Z" transform="translate(-228.3 -211.061)" fill="#322015"/>
                  <path id="Path_3707" data-name="Path 3707" d="M235.1,211.7c.5-1.6.7.9,1.2.3a.756.756,0,0,0-.1-.4l.4.2v-.4c-.1.9.3,1.3.4,2.1-.5,1-.1-1.2-.5-.1a6.149,6.149,0,0,0,.1,1.4,9.006,9.006,0,0,1-.3-1.6c-.2-.1-.2.4-.3.8-.2-.6-.2-1.9-.6-1.6-.3.8.1,1.3-.4.9.3-1.5-.5.2-.6-.7a2.523,2.523,0,0,0-.6,1.7,4.432,4.432,0,0,0-.5-2.5l.6,1,.2-1.4c.5.7.7.6,1,.3Z" transform="translate(-222.5 -211.061)" fill="#322015"/>
                  <path id="Path_3708" data-name="Path 3708" d="M233.6,214.8c0,.1.1.2.1.3A.438.438,0,0,1,233.6,214.8Z" transform="translate(-219.5 -211.061)" fill="#322015"/>
                  <path id="Path_3709" data-name="Path 3709" d="M236.3,214.7l.1.3-.1.4Z" transform="translate(-224.9 -211.061)" fill="#322015"/>
                  <path id="Path_3710" data-name="Path 3710" d="M233.575,215.8c-.1,0-.1-.4,0-.4v.4Z" transform="translate(-219.275 -211.061)" fill="#322015"/>
                  <path id="Path_3711" data-name="Path 3711" d="M232.8,215l.3-.8v.7Z" transform="translate(-218.1 -211.061)" fill="#322015"/>
                  <path id="Path_3712" data-name="Path 3712" d="M225.389,216.5c-.5.3.1-.5.4-1.1C226.189,215.4,225.289,216.1,225.389,216.5Z" transform="translate(-203.289 -211.061)" fill="#322015"/>
                  <path id="Path_3713" data-name="Path 3713" d="M223.37,220.4c-.6.1,0-.5-.2-.7C223.67,219.6,223.67,220,223.37,220.4Z" transform="translate(-198.87 -211.061)" fill="#322015"/>
                  <path id="Path_3714" data-name="Path 3714" d="M223.248,223.4a.914.914,0,0,1,.5-.3c.5-.3.9-.6,1.4-.9C225.848,222.3,223.948,223.1,223.248,223.4Z" transform="translate(-200.748 -211.061)" fill="#322015"/>
                  <path id="Path_3715" data-name="Path 3715" d="M222.9,225l.5-.5.1.1c.6-.3.9-.4,1.4-.7C224.7,224.3,224.1,224.7,222.9,225Z" transform="translate(-200 -211.061)" fill="#322015"/>
                  <path id="Path_3716" data-name="Path 3716" d="M222.981,223.6a.1.1,0,0,1-.1.1C222.781,223.8,222.481,223.8,222.981,223.6Z" transform="translate(-197.881 -211.061)" fill="#322015"/>
                  <path id="Path_3717" data-name="Path 3717" d="M222.791,223.9c-.1,0-.1.1-.2.1a.31.31,0,0,0,.1-.2C222.891,223.7,222.991,223.7,222.791,223.9Z" transform="translate(-197.691 -211.061)" fill="#322015"/>
                  <path id="Path_3718" data-name="Path 3718" d="M224.4,225v.6l-.4-.1C225,225.1,223.4,225.4,224.4,225Z" transform="translate(-200.6 -211.061)" fill="#322015"/>
                  <path id="Path_3719" data-name="Path 3719" d="M222.07,227.7l1-.1c.3.4-1.8,1.1-.2,1.1-.6-.1-1.1.4-1.4,0C222.27,228.5,222.27,228,222.07,227.7Z" transform="translate(-196.77 -211.061)" fill="#322015"/>
                  <path id="Path_3720" data-name="Path 3720" d="M220.271,229a2.152,2.152,0,0,1,.8,0c.1.1-.3.3-.7.3C221.571,229.1,219.471,229.2,220.271,229Z" transform="translate(-193.372 -211.061)" fill="#322015"/>
                  <path id="Path_3721" data-name="Path 3721" d="M222.133,230.9c0-.1.1-.3.4-.1,0,.4-1.2.3-1.9.5C220.033,231,221.633,230.7,222.133,230.9Z" transform="translate(-195.233 -211.061)" fill="#322015"/>
                  <path id="Path_3722" data-name="Path 3722" d="M214.153,234c-.9-.1-.7-.4-.4-.5C213.553,233.6,213.753,233.8,214.153,234Z" transform="translate(-179.853 -211.061)" fill="#322015"/>
                  <path id="Path_3723" data-name="Path 3723" d="M219.7,233.8l-.2-.1,1.4-.1Z" transform="translate(-192.6 -211.061)" fill="#322015"/>
                  <path id="Path_3724" data-name="Path 3724" d="M222.4,235.9l-.9.2.2-.4Z" transform="translate(-196.1 -211.061)" fill="#322015"/>
                  <path id="Path_3725" data-name="Path 3725" d="M221.775,236.3l-.1.4-.3-.2C221.075,236.3,221.775,236.5,221.775,236.3Z" transform="translate(-195.275 -211.061)" fill="#322015"/>
                  <path id="Path_3726" data-name="Path 3726" d="M221.4,237.4c.1,0,0-.1-.2-.1l.6-.3Z" transform="translate(-195.2 -211.061)" fill="#322015"/>
                  <path id="Path_3727" data-name="Path 3727" d="M216.945,244.1c.9.1.3.3.4.5C217.145,244.6,216.045,244.2,216.945,244.1Z" transform="translate(-186.245 -211.061)" fill="#322015"/>
                </g>
              </g>
            </g>
          </g>
        </g>
        <path id="Path_3729" data-name="Path 3729" d="M364.553,205.3s-16.8,17.8-56.5,40.7l-23.7,42.1a17.244,17.244,0,0,1,7.9,12.2h-15.6s-.3-24.2,2.1-28.9c2.3-4.7,22.5-36.8,22.5-36.8s40.3-31.6,42-33.5S370.353,196.8,364.553,205.3Z" transform="translate(-253.453 -77.4)" fill="#fff0dd"/>
        <g id="Group_941" data-name="Group 941" transform="translate(23.188 121.87)">
          <g id="Group_940" data-name="Group 940" transform="translate(0)" opacity="0.88" clip-path="url(#clip-path-2)">
            <g id="Group_939" data-name="Group 939" transform="translate(50.412 3.424)">
              <g id="Group_938" data-name="Group 938" transform="translate(0)">
                <g id="Group_937" data-name="Group 937" transform="translate(0)">
                  <path id="Path_3730" data-name="Path 3730" d="M297.325,206.5v.3Q297.475,206.8,297.325,206.5Z" transform="translate(-279.725 -202.694)" fill="#322015"/>
                  <path id="Path_3731" data-name="Path 3731" d="M286.5,204.1h0v0Z" transform="translate(-258 -202.694)" fill="#322015"/>
                  <path id="Path_3732" data-name="Path 3732" d="M286.466,204l.1-.4C286.366,203.8,286.366,203.9,286.466,204Z" transform="translate(-257.966 -202.694)" fill="#322015"/>
                  <path id="Path_3733" data-name="Path 3733" d="M297,209.2v0Z" transform="translate(-279 -202.694)" fill="#322015"/>
                  <path id="Path_3734" data-name="Path 3734" d="M295.2,210.1a.1.1,0,0,0,.1.1Z" transform="translate(-275.5 -202.694)" fill="#322015"/>
                  <path id="Path_3735" data-name="Path 3735" d="M306.1,212a.1.1,0,0,0-.1-.1Z" transform="translate(-297.1 -202.694)" fill="#322015"/>
                  <path id="Path_3736" data-name="Path 3736" d="M306.156,213a.1.1,0,0,0-.1.1l.1.1C306.256,213.3,306.156,213.1,306.156,213Z" transform="translate(-297.256 -202.694)" fill="#322015"/>
                  <path id="Path_3737" data-name="Path 3737" d="M305.6,213.1l-.1.1C305.6,213.2,305.6,213.2,305.6,213.1Z" transform="translate(-296.1 -202.694)" fill="#322015"/>
                  <path id="Path_3738" data-name="Path 3738" d="M305.1,219.7l.3.3Q305.25,219.7,305.1,219.7Z" transform="translate(-295.5 -202.694)" fill="#322015"/>
                  <path id="Path_3739" data-name="Path 3739" d="M306.075,211.6c0,.1.1.2.1.3C306.175,211.8,306.275,211.7,306.075,211.6Z" transform="translate(-297.275 -202.694)" fill="#322015"/>
                  <path id="Path_3740" data-name="Path 3740" d="M297.3,206.4c0,.1,0,.1.1.2A.31.31,0,0,1,297.3,206.4Z" transform="translate(-279.7 -202.694)" fill="#322015"/>
                  <path id="Path_3741" data-name="Path 3741" d="M297.556,209.5h0C297.656,209.4,297.556,209.4,297.556,209.5Z" transform="translate(-280.156 -202.694)" fill="#322015"/>
                  <path id="Path_3742" data-name="Path 3742" d="M282.1,203.8c.1,0,.2-.1.3-.1C282.2,203.6,282.1,203.7,282.1,203.8Z" transform="translate(-249.5 -202.694)" fill="#322015"/>
                  <path id="Path_3743" data-name="Path 3743" d="M283.3,210.7c.8.8-.3.3.5,1.1,0-.3,0-.6.4-.2.3.6-.3.2.2,1v-.5c.5.2.8.9.8.8-.7-1.1,1-.2,1-.5v.2l.7.2v.1c0-.1-.1-.1-.1-.2.5.4,1,.6,1.2.2-.4-.7.7-.8.4-1.4a.265.265,0,0,1-.3.3l-.5-.7c.3-.2.5.6.4,0-.8-.9-.4.3-.6.3-.1-.3-.2-.5-.1-.7-.4.2-1,.2-.5,1.3a.868.868,0,0,1-.5-.7c.2.8-.6-.4-.4.3-.6-.9.2-.9,0-1.6.9.4.8-.6,1.2-1,.5.7.6,1.4,1.1,1.7.7.2.1-.6.1-1.2.4.1.8,1.1,1.2.9v.6c.9.8,0-.5.3-.5-.2-.2-.4-.5-.6-.3a.5.5,0,0,1-.1-.7H289c-.2-.5-.5-1.1-.1-1,.2.7.5.3.7.5v.2c.1-.3.4-.4.4-.5l.1.2c0-.3-.3-1.1,0-1.1.1.3.3,1.3.5,1,.2.5,0,.7-.4.6.3,0,.8.7.6.9.4.5.1-.4.4-.2l-.3-.6c.4.8.6-.2.3-.8v.6c-.4-.6-.2-1.2-.5-1.5.6.9.5-.9,1.1-.1l-.3-.5c.7,0,.8-1.4,1.3-1.9-.1.4.3,1.6-.2,1.3.7,0,.6,1.1,1,1.5.6.2-.2-1.2-.2-1.6l-.2.3c-.1-1.5,1.3-.1,1.7-1.2.2.3-.1.2-.1.4.5.6.2-.2.3-.6.4,0,.8.3.8,1.2.4.1-.2-.5-.1-.8l.1.2.1-1.1a2.371,2.371,0,0,1,1.1,1.4c.6-.3-.2-2,.3-2.4.4.4.1.7.1,1l.4-.2c0,1-.4.6-.2,1.7.2-1.2.4-.4.8-1.3V205c.1-.8.7-.3,1-.5-.1.5-.4.6-.6.8.4.4,1.2-.1,1.4-1.2.2.2.7.6.4,1,.7.1.2-1.5.8-1.2v.8c.7,1.1,1.3-1,1.9,0l.1-1c.1.4.4.6.4,1l-.3.3c.2.8.3-.8.6-.2,0-.3-.2-.9-.2-1.3-.7.3-1.3,0-2-.1a2.356,2.356,0,0,0-2,.3c.1.1.1.2.1.4-.2-.2-.4.1-.4-.5v-.1c-.3.3-.8-.9-1-.8-.1.7-.8-.2-.5.9l-.3-.7a4.744,4.744,0,0,1,0,1.2c-.3,0-.3-.5-.2-.8a4.3,4.3,0,0,0-1.6,0,6.109,6.109,0,0,0-1.4.7l.1-.6c-.3-.2-.6,1.1-.8-.2-.3.7-1.4.1-1,1.4-.8-1.2-1.3-.1-1.9.3.6,1-.4.5-.3,1.1-.5-.8.1-1.1-.1-1.7,0,.8-.6.8-1,.8-.5.1-.8.3-.4,1.4a.215.215,0,0,1-.2-.2c-.1.1-.5-.2-.6-.2.1.4.5.4.3.7-.3,0-.5-.6-.7-.8-.2.7-.7,1.3-.2,2.2-.3-.1-.7-.5-.7-.7-.2,1-.7.3-1,1.1.2-.2-.5-.9.1-.8-1-.9-.8.9-1.7.7l.3.8c-.2.3-.7-.3-.7-.7-.8,0-.8.6-1.1,1-.1-.1-.2-.2-.1-.2a1.205,1.205,0,0,0-.5.5,3.043,3.043,0,0,0,.6,1.1C282.9,211,282.8,210.7,283.3,210.7Z" transform="translate(-271.7 -202.694)" fill="#322015"/>
                  <path id="Path_3744" data-name="Path 3744" d="M303.5,211.4Z" transform="translate(-292 -202.694)" fill="#322015"/>
                  <path id="Path_3745" data-name="Path 3745" d="M296.9,210.7a1.237,1.237,0,0,1-.3-.2C296.7,210.6,296.8,210.7,296.9,210.7Z" transform="translate(-278.5 -202.694)" fill="#322015"/>
                  <path id="Path_3746" data-name="Path 3746" d="M308.907,217.1c1,.8.1-.4.6-.4,0,.3.6.8.9,1-1.1-1.4.5-.1.7-.8.4.4.3.6.7,1.1-.1-.5.1-1.1-.6-1.7.4-.4.9-.5,1-.9,0,.6.6.7,1,1.5-.5-1-.8-2.6-1.3-4a7.107,7.107,0,0,1,1.5,1.5c1,0-.5-.8.2-1.1l-.3.1a4.413,4.413,0,0,0-1-1.7l-.5.7c-.5-.5,0-.8-.1-1-.4-.8-.7-.1-1.1-.7.3.5-.1.6,0,.9l-.3-.2c-.6,0,0,.8-.3,1.1-.1-.1-.2-.1-.2-.2a3.445,3.445,0,0,1,.5,1.1l.1-.1c.5.8.4,1.7,1.4,2.1l-.7.4c-.7-.7-1.7-1.9-1.4-2.3l-.3-.3c-.7-.1-.1,1.3.7,1.7,1.6,1.9-.8,1-.4,2.1-.5-.4-.5-.8-.8-1.2.1-.2.1-.3.6.1.2-.8-1.7-1.3-.9-1.8.5-.1.4,1.1.9.7l-1-1.6a2.375,2.375,0,0,0-.3,1.2,2.592,2.592,0,0,1-1.8,2.4,68.177,68.177,0,0,1-4.3,5.6c-.3.6-.5.7.3,2.3.3.2.6-.2.9.4-.3-.6-.4-1,0-1.2.5.5-.1.5.1.5h.1c.2.3.3.5.2.6,1,.5,1.6-.3.9-1.5.7.2.5.9.7,1.4a8.059,8.059,0,0,0,2.8-2.3c-.9-.8-.5-.6-.9-1.2l.4.2c-.2-.1-.7-.7-1-.7,1.2,0-.6-1.7-.6-2.4l.4.4a1.689,1.689,0,0,0,.3-1c1.3.2-.2.6,1,1.4l-.1-.3a8.347,8.347,0,0,1,1.2,1.6c-.3-1.1.9-.5.8-1.5a1.981,1.981,0,0,1,.4,1.5c.2-.1.1-.8.6-.4l-.6-.6c.2-.4.6.5,1.1.8C311.207,219,308.707,218,308.907,217.1Z" transform="translate(-300.607 -202.694)" fill="#322015"/>
                  <path id="Path_3747" data-name="Path 3747" d="M299.3,210.4a.215.215,0,0,0-.2.2C299.2,210.5,299.3,210.5,299.3,210.4Z" transform="translate(-283.4 -202.694)" fill="#322015"/>
                  <path id="Path_3748" data-name="Path 3748" d="M299.4,212.8c.1.1.1.2.2.3C299.5,213,299.5,212.9,299.4,212.8Z" transform="translate(-284 -202.694)" fill="#322015"/>
                  <path id="Path_3749" data-name="Path 3749" d="M299.432,213.8c-.3-.3-.2-.3-.4-.8C299.032,213.3,298.832,213.5,299.432,213.8Z" transform="translate(-283.432 -202.694)" fill="#322015"/>
                  <path id="Path_3750" data-name="Path 3750" d="M270.6,210.3c.1-.2.5-.4.5-.6l-.4.2Z" transform="translate(-226.7 -202.694)" fill="#322015"/>
                  <path id="Path_3751" data-name="Path 3751" d="M272.4,209.2l-.3-.4-.6,1C271.9,209.9,272,209.1,272.4,209.2Z" transform="translate(-228.9 -202.694)" fill="#322015"/>
                  <path id="Path_3752" data-name="Path 3752" d="M272.1,208.3l.2-.2C272.1,208.1,272.1,208.2,272.1,208.3Z" transform="translate(-229.4 -202.694)" fill="#322015"/>
                  <path id="Path_3753" data-name="Path 3753" d="M272.7,208.7l-.4.7.6-.4-.1-.2c.1-.3,0-.4,0-.6l-.3.5C272.6,208.8,272.7,208.6,272.7,208.7Z" transform="translate(-230.2 -202.694)" fill="#322015"/>
                  <path id="Path_3754" data-name="Path 3754" d="M272.9,208.7v0Z" transform="translate(-230.8 -202.694)" fill="#322015"/>
                  <path id="Path_3755" data-name="Path 3755" d="M273.24,206.9c0,.3-.3.7-.4,1,.3.4.6-.8.8-.3-.7.5,0,.5.1,1,.1-.8.1-1.3-.2-1.6l-.2.5C273.14,207.5,273.34,207.2,273.24,206.9Z" transform="translate(-231.64 -202.694)" fill="#322015"/>
                  <path id="Path_3756" data-name="Path 3756" d="M274.182,207.7l.5-.7c0,.4.4.5.2,1.3.2-.1.3-.4.5-.6,0,.4,0,.7.3.2-.6-.7-.3-.8-.9-1.2.1-.2.1-.1.2-.1l-.3-.5C274.483,207.1,273.883,207,274.182,207.7Z" transform="translate(-234.783 -202.694)" fill="#322015"/>
                  <path id="Path_3757" data-name="Path 3757" d="M275.684,207c.3,0,.7-.7.6-1.2l-.8.5C275.684,206.3,275.984,206.3,275.684,207Z" transform="translate(-236.784 -202.694)" fill="#322015"/>
                  <path id="Path_3758" data-name="Path 3758" d="M277,206.9c0-.4-.1-1.3-.5-.6C276.9,206.3,276.5,207.4,277,206.9Z" transform="translate(-238.5 -202.694)" fill="#322015"/>
                  <path id="Path_3759" data-name="Path 3759" d="M277.1,205.8l.6.6c0,1-.4.3-.6.7.5.3.4-.1.9-.6.1.1.5-.4.7-.6C277.7,206.4,278,204,277.1,205.8Z" transform="translate(-240.8 -202.694)" fill="#322015"/>
                  <path id="Path_3760" data-name="Path 3760" d="M277.7,207l.1-.4-.3.2Z" transform="translate(-240.3 -202.694)" fill="#322015"/>
                  <path id="Path_3761" data-name="Path 3761" d="M280.7,204.4c-.3-1.2-.8.6-1.2.1.1-.1,0-.2.1-.3l-.4.1V204c0,.7-.4,1-.6,1.5.3.8.2-.9.5,0-.1.3-.2.8-.3,1.1.2-.3.3-.8.5-1.2.3-.1.1.3.1.6.3-.4.4-1.4.8-1.2.2.7-.3,1,.2.8-.1-1.2.5.2.7-.5a1.436,1.436,0,0,1,.3,1.4,2.74,2.74,0,0,1,.8-1.8l-.7.7-.1-1.1c-.2.5-.4.4-.7.1Z" transform="translate(-245.8 -202.694)" fill="#322015"/>
                  <path id="Path_3762" data-name="Path 3762" d="M282.1,206.6c0,.1-.1.1-.1.2A.349.349,0,0,0,282.1,206.6Z" transform="translate(-249.1 -202.694)" fill="#322015"/>
                  <path id="Path_3763" data-name="Path 3763" d="M279.4,206.9l-.2.2.1.3Z" transform="translate(-243.6 -202.694)" fill="#322015"/>
                  <path id="Path_3764" data-name="Path 3764" d="M282.325,207.3c.1,0,.1-.3,0-.3l-.1.5Z" transform="translate(-249.625 -202.694)" fill="#322015"/>
                  <path id="Path_3765" data-name="Path 3765" d="M282.9,206.6l-.2-.6-.1.5Z" transform="translate(-250.5 -202.694)" fill="#322015"/>
                  <path id="Path_3766" data-name="Path 3766" d="M290.239,206.8c.3.3.1-.4.1-.9C289.839,205.8,290.439,206.5,290.239,206.8Z" transform="translate(-265.539 -202.694)" fill="#322015"/>
                  <path id="Path_3767" data-name="Path 3767" d="M293.9,209.3c.4.3.4-.4.6-.5C294.2,208.5,293.9,208.8,293.9,209.3Z" transform="translate(-273.4 -202.694)" fill="#322015"/>
                  <path id="Path_3768" data-name="Path 3768" d="M295.8,212.3c-.1-.2-.1-.4-.2-.4l-.4-1.2C294.6,210.5,295.5,211.8,295.8,212.3Z" transform="translate(-275.802 -202.694)" fill="#322015"/>
                  <path id="Path_3769" data-name="Path 3769" d="M297.234,213.6V213l-.2.1a7.6,7.6,0,0,1-.4-1.1C296.534,212.3,296.634,212.8,297.234,213.6Z" transform="translate(-278.834 -202.694)" fill="#322015"/>
                  <path id="Path_3770" data-name="Path 3770" d="M297.114,211.5a.1.1,0,0,1-.1.1C297.114,211.8,297.314,211.9,297.114,211.5Z" transform="translate(-279.215 -202.694)" fill="#322015"/>
                  <path id="Path_3771" data-name="Path 3771" d="M297.241,211.8v.1c0-.1,0-.2.1-.2C297.241,211.6,297.141,211.5,297.241,211.8Z" transform="translate(-279.541 -202.694)" fill="#322015"/>
                  <path id="Path_3772" data-name="Path 3772" d="M297.495,213.2c-.1.2-.3.3-.4.5l.3.1C296.995,213.1,297.9,213.9,297.495,213.2Z" transform="translate(-279.695 -202.694)" fill="#322015"/>
                  <path id="Path_3773" data-name="Path 3773" d="M301.4,214.7l-.6-.5c-.4.2.4,1.7-.7,1,.5.2.4.9.9.7A.822.822,0,0,1,301.4,214.7Z" transform="translate(-286.5 -202.694)" fill="#322015"/>
                  <path id="Path_3774" data-name="Path 3774" d="M302.5,215c-.1-.2-.3-.2-.5-.4-.2,0,0,.4.3.6C301.7,214.4,302.9,215.5,302.5,215Z" transform="translate(-289.497 -202.694)" fill="#322015"/>
                  <path id="Path_3775" data-name="Path 3775" d="M302.6,216.4c.1-.1.1-.3-.1-.3-.2.3.5.8.7,1.3C303.8,217.5,303.1,216.5,302.6,216.4Z" transform="translate(-290.904 -202.694)" fill="#322015"/>
                  <path id="Path_3776" data-name="Path 3776" d="M308.923,214.9c.5.4.7.1.5-.1C309.523,214.9,309.223,214.9,308.923,214.9Z" transform="translate(-303.423 -202.694)" fill="#322015"/>
                  <path id="Path_3777" data-name="Path 3777" d="M305.7,218.5h.2l-.7-.7Z" transform="translate(-296.1 -202.694)" fill="#322015"/>
                  <path id="Path_3778" data-name="Path 3778" d="M305.9,220.5l.3.7.2-.4Z" transform="translate(-297.3 -202.694)" fill="#322015"/>
                  <path id="Path_3779" data-name="Path 3779" d="M306.843,220.8l-.2.3.3.1C307.143,221.1,306.743,220.9,306.843,220.8Z" transform="translate(-298.643 -202.694)" fill="#322015"/>
                  <path id="Path_3780" data-name="Path 3780" d="M307.2,221.7c0-.1.1,0,.2,0l-.1-.5Z" transform="translate(-299.6 -202.694)" fill="#322015"/>
                  <path id="Path_3781" data-name="Path 3781" d="M314.918,222.9c-.3-.6-.3-.1-.5-.1C314.618,222.9,315.218,223.5,314.918,222.9Z" transform="translate(-314.418 -202.694)" fill="#322015"/>
                </g>
              </g>
            </g>
          </g>
        </g>
        <path id="Path_3783" data-name="Path 3783" d="M334.286,95.2s.7-17.8-1.6-17.8-11.1,18.2-14.5,23.2-12.2,16.3-19.3,25c-7,8.7-20.7,24.7-40.5,28s-61.8,4.5-78,10.2-31.5,20.3-37.1,35.2c-5.7,14.9-13.1,34.8-28,44.4,0,0,21.3,4.9,37.5-12.4,0,0-1.2,6.9-1.4,8.5-.3,1.6-9.3,14.2-9.9,15.4-.7,1.2-7.7,30.1-7.9,31.5-.3,1.4,2.1,14.1,2.1,14.1h13.2c.7,0-1.8-9.3-7-12.1,0,0,9.4-24,10.4-25.4s16.5-16,17.6-16.8c1-.8,27.5-14,39.4-40.8,0,0,7.6-2.2,25.8,1.6,18.2,3.7,43.6,8.2,48.9,8.2,0,0-2.2,64.7-1.8,66.7s7.8,18.7,7.8,18.7h14.6c1.3,0-1.5-8.5-10.6-15.8,0,0,8.2-39.7,9.4-44.6s10-27.6,10-27.6,21.9-5.1,32.1-26.2,1.6-36.9,4.7-51.4c0,0,22.6-8.7,27.3-11.1,4.7-2.3,15.1-8.5,9.5-19,0,0-22.8,2.5-24.5,2.2s-5.9-6.3-11.1-8.3C345.986,96.5,334.286,95.2,334.286,95.2Z" transform="translate(-115.286 -77.4)" fill="#fff0dd"/>
        <path id="Path_3784" data-name="Path 3784" d="M301.6,300.3c.7,0-1.8-9.3-7-12.1,0,0,9.4-24,10.4-25.4s16.5-16,17.6-16.8c1-.8,27.5-14,39.4-40.8" transform="translate(-268 -77.4)" fill="none" stroke="#1b1c1e" stroke-linecap="round" stroke-linejoin="round" stroke-miterlimit="10" stroke-width="1.26"/>
        <path id="Path_3785" data-name="Path 3785" d="M215.849,215s-2.2,64.7-1.8,66.7,7.8,18.7,7.8,18.7" transform="translate(-47.249 -77.4)" fill="none" stroke="#1b1c1e" stroke-linecap="round" stroke-linejoin="round" stroke-miterlimit="10" stroke-width="1.26"/>
        <path id="Path_3786" data-name="Path 3786" d="M183.3,212.2c-.7,7.7-1.8,18.7-1.8,18.7s-.3,1.6-.6,3.4c19.5,3.5,30.3-16.5,35.6-24.7s14.1-25.2,34.4-23.1c20.3,2.2,35.8,19.9,61.6,14.5,25.8-5.5,35.1-25.3,35.1-25.3.5,3.1-.5,8.5-.5,8.5,27-20.7,20.2-47.7,18.9-53.8s-2-13.8.7-15c2.7-1.3,5.1-1.5,6.4-3.9,1.2-2.3-1-9,2.3-10.8a9.533,9.533,0,0,1,6.8-.7,11.879,11.879,0,0,0-2.5-1.3c-5.2-2.1-16.9-3.4-16.9-3.4s.7-17.8-1.6-17.8c-2.4,0-11.1,18.2-14.5,23.2s-12.2,16.3-19.3,25c-7,8.7-20.7,24.7-40.5,28-19.7,3.3-61.8,4.5-78,10.2s-31.5,20.3-37.1,35.2c-4.8,12.5-10.8,28.6-21.5,39.1C171.3,235.4,180.3,219.1,183.3,212.2Z" transform="translate(-143.9 -77.4)" fill="#5f6c72"/>
        <path id="Path_3787" data-name="Path 3787" d="M205.4,300.3a13.335,13.335,0,0,0-1.8-4.2" transform="translate(-20.4 -77.4)" fill="none" stroke="#1b1c1e" stroke-linecap="round" stroke-linejoin="round" stroke-miterlimit="10" stroke-width="1.26"/>
        <path id="Path_3788" data-name="Path 3788" d="M360.4,300.3a13.335,13.335,0,0,0-1.8-4.2" transform="translate(-330.4 -77.4)" fill="none" stroke="#1b1c1e" stroke-linecap="round" stroke-linejoin="round" stroke-miterlimit="10" stroke-width="1.26"/>
        <line id="Line_3" data-name="Line 3" y1="10.4" x2="0.4" transform="translate(168.6 127.2)" fill="none" stroke="#1b1c1e" stroke-linecap="round" stroke-linejoin="round" stroke-miterlimit="10" stroke-width="1.26"/>
        <path id="Path_3789" data-name="Path 3789" d="M123.055,107.6a3.53,3.53,0,0,1-2.7,3.9,2.462,2.462,0,0,1-1.2.1c-3.2-.2-4.3-4.8-3.9-6.5.1-.6,5.9-1,6.3-1C121.855,104.1,122.755,105.5,123.055,107.6Z" transform="translate(150.344 -77.4)" fill="#1b1c1e" stroke="#1b1c1e" stroke-linecap="round" stroke-linejoin="round" stroke-miterlimit="10" stroke-width="1.533"/>
        <path id="Path_3790" data-name="Path 3790" d="M139.9,117.9s-2.3,2-8.5,3.8-9.3,2.2-10.4,2.7a10.233,10.233,0,0,0-2.5,2.1" transform="translate(130.2 -77.4)" fill="none" stroke="#1b1c1e" stroke-linecap="round" stroke-linejoin="round" stroke-miterlimit="10" stroke-width="1.26"/>
        <path id="Path_3791" data-name="Path 3791" d="M348.8,230.9S350.6,213,351,207" transform="translate(-311.2 -77.4)" fill="none" stroke="#1b1c1e" stroke-linecap="round" stroke-linejoin="round" stroke-miterlimit="10" stroke-width="1.26"/>
        <path id="Path_3792" data-name="Path 3792" d="M291.9,205.2a43.466,43.466,0,0,0,2.8-10.8" transform="translate(-198 -77.4)" fill="none" stroke="#1b1c1e" stroke-linecap="round" stroke-linejoin="round" stroke-miterlimit="10" stroke-width="1.26"/>
        <ellipse id="Ellipse_43" data-name="Ellipse 43" cx="2" cy="1.6" rx="2" ry="1.6" transform="translate(237.551 33.822) rotate(-115.658)" fill="#1b1c1e"/>
        <g id="Group_946" data-name="Group 946" transform="translate(223.442 57.5)">
          <g id="Group_945" data-name="Group 945" transform="translate(0)" opacity="0.88" clip-path="url(#clip-path-3)">
            <g id="Group_944" data-name="Group 944" transform="translate(-7.342 -0.9)">
              <g id="Group_943" data-name="Group 943" transform="translate(0)">
                <g id="Group_942" data-name="Group 942" transform="translate(0)">
                  <path id="Path_3793" data-name="Path 3793" d="M160.3,136.3l.1.1Z" transform="translate(-148.2 -134)" fill="#322015"/>
                  <path id="Path_3794" data-name="Path 3794" d="M164.9,137.5Z" transform="translate(-157.3 -134)" fill="#322015"/>
                  <path id="Path_3795" data-name="Path 3795" d="M165,137.5l-.1-.2C165,137.4,165,137.4,165,137.5Z" transform="translate(-157.4 -134)" fill="#322015"/>
                  <path id="Path_3796" data-name="Path 3796" d="M159.5,137.3c.1,0,.1.1.2.2Z" transform="translate(-146.7 -134)" fill="#322015"/>
                  <path id="Path_3797" data-name="Path 3797" d="M160.056,138c.1.1,0,.1,0,0Z" transform="translate(-147.656 -134)" fill="#322015"/>
                  <path id="Path_3798" data-name="Path 3798" d="M156.244,135Z" transform="translate(-139.944 -134)" fill="#322015"/>
                  <path id="Path_3799" data-name="Path 3799" d="M155.825,135.2h0C155.925,135.3,155.925,135.2,155.825,135.2Z" transform="translate(-139.225 -134)" fill="#322015"/>
                  <path id="Path_3800" data-name="Path 3800" d="M155.925,135.4Z" transform="translate(-139.425 -134)" fill="#322015"/>
                  <path id="Path_3801" data-name="Path 3801" d="M153.4,136.8v0Z" transform="translate(-134.3 -134)" fill="#322015"/>
                  <path id="Path_3802" data-name="Path 3802" d="M156.3,134.8l.1.1A.1.1,0,0,1,156.3,134.8Z" transform="translate(-140.2 -134)" fill="#322015"/>
                  <path id="Path_3803" data-name="Path 3803" d="M160.4,136.2Z" transform="translate(-148.3 -134)" fill="#322015"/>
                  <path id="Path_3804" data-name="Path 3804" d="M159.444,137.2Z" transform="translate(-146.344 -134)" fill="#322015"/>
                  <path id="Path_3805" data-name="Path 3805" d="M166.8,137.7h-.1C166.8,137.6,166.8,137.6,166.8,137.7Z" transform="translate(-161 -134)" fill="#322015"/>
                  <path id="Path_3806" data-name="Path 3806" d="M165.6,135.6c.1.5.2,0,.3.4-.1-.1-.2-.1-.2.1.1.2.2-.1.3.3l-.2-.1a2.034,2.034,0,0,0,.1.5c-.2-.5-.3.3-.5.2h.1l-.1.3h0v-.1c0,.3-.1.5-.3.5-.1-.3-.5,0-.6-.2.1.1.1.1.2,0l-.1-.4c-.1,0,.1.3-.1.2-.1-.5.2,0,.3-.1-.1-.1-.1-.2-.2-.2.2-.1.4-.3.6.2a.6.6,0,0,0-.1-.4c.2.3,0-.3.2-.1-.1-.5-.4-.2-.5-.4-.1.4-.4.1-.7.1.1.3.3.6.2.8-.2.3-.2-.1-.4-.3-.1.2.1.6-.1.6l.2.2c0,.5-.2-.2-.3,0,0-.1,0-.3.1-.3,0-.2-.1-.2-.2-.2h0c-.1-.2-.2-.5-.3-.3.2.3-.1.2-.1.4l.1.1c-.1-.1-.2,0-.3,0v.1c-.1-.1-.2-.4-.3-.3,0,.1.3.5.1.5.1.2.2.2.3.1-.1.1-.1.5.1.5,0,.3-.2-.1-.2.1a.367.367,0,0,0-.1-.3c.1.4-.3.1-.3-.2l.2.2c0-.3-.3-.5-.2-.6,0,.5-.4-.2-.4.3v-.3c-.3.2-.6-.3-.9-.3.1.1.2.6.4.4-.3.2,0,.5,0,.8-.2.2-.2-.5-.3-.6l.2.1c-.3-.6-.5.2-.9-.1,0,.2.1.1.1.1-.1.3-.1,0-.2-.1-.1.1-.3.2-.1.6-.1.1,0-.2-.1-.3v.1l-.2-.4a1.165,1.165,0,0,0-.2.7c-.3,0-.3-.8-.5-.9-.1.2.1.3.1.4h-.2c.1.4.3.2.3.7-.3-.5-.3-.1-.5-.4h0c-.2-.3-.4,0-.5-.1.1.2.2.2.3.2-.1.2-.5.1-.7-.3-.1.1-.2.3-.1.4-.3.1-.2-.6-.5-.4l.1.3c-.2.5-.6-.3-.8.1l-.1-.4c0,.2-.1.3-.1.4l.2.1c-.1.4-.2-.3-.3,0,0-.1.1-.4,0-.5.6.2,1.1-.5,1.7-.2v.2c0-.1.2,0,.1-.2h0c.2.1.2-.4.3-.5.1.3.3-.2.3.3v-.3c.1.2.1.4.2.5a.187.187,0,0,0,0-.3,1.481,1.481,0,0,1,1.3-.2l-.1-.2c.1-.1.4.3.2-.2.2.2.5-.3.6.3,0-.6.4-.3.7-.3,0,.5.3.1.4.3,0-.4-.3-.3-.4-.6.4.5.7-.6,1,.4V137c.1,0,.1-.2.1-.2.1.2,0,.3.1.3.1-.1,0-.3,0-.5.2.2.6.2.7.6,0-.1.1-.4,0-.4.4.2.3-.1.7,0-.1,0-.1-.4-.3-.2,0-.6.5,0,.7-.3l.2.3c.2,0,.1-.3,0-.4.2-.3.4-.1.6-.1a.1.1,0,0,0-.1-.1l.3-.1c0,.1.2.2.2.5C165.8,135.6,165.7,135.5,165.6,135.6Z" transform="translate(-150.4 -134)" fill="#322015"/>
                  <path id="Path_3807" data-name="Path 3807" d="M157,135.8h0Z" transform="translate(-141.6 -134)" fill="#322015"/>
                  <path id="Path_3808" data-name="Path 3808" d="M159.4,137.9v0Z" transform="translate(-146.3 -134)" fill="#322015"/>
                  <path id="Path_3809" data-name="Path 3809" d="M152.87,135.8c.1.6-.2-.1-.3.1a1.056,1.056,0,0,1,.2.5c-.3-.7-.2.2-.5.1,0,.2.2.2.3.5a1.134,1.134,0,0,1-.6-.6c-.3,0-.4.2-.6.2.2.1.1.4.3.7-.3-.4-.8-.9-1.2-1.4.1.4.1.5.2.9-.3.4-.2-.4-.4-.2l.1-.1c-.2-.1-.3-.5-.4-.8h.4c-.1-.3-.3-.2-.4-.3-.2-.3.1-.3,0-.6.1.2.2.1.3.2v-.2c.1-.2.3.2.4.1v-.1c.1.2.2.4.3.4h-.1c.2.4.6.5.4,1l.3-.2c-.1-.4-.3-1-.5-1l-.1-.2c.1-.3.5.2.5.6.4,1,.5-.1.9.3a.623.623,0,0,0-.3-.5c-.1,0-.1,0-.1.2-.4-.1-.1-.9-.5-.7-.2.2.3.4.1.5l-.4-.7a4.331,4.331,0,0,1,.5.1,1.148,1.148,0,0,0,1.3-.2c1.1-.1,2.3-.3,3.4-.4.4,0,.5,0,.8.7,0,.2-.3.1-.2.4-.1-.3-.2-.4-.4-.3,0,.3.2.1.2.2h0a.215.215,0,0,0,.2.2c-.1.5-.5.4-.8-.1-.1.3.2.4.3.6a3.805,3.805,0,0,1-1.5.5c-.1-.5-.1-.3-.3-.6v.2c0-.1-.1-.4,0-.5-.3.4-.5-.6-.8-.7l.2.4a.9.9,0,0,1-.5-.1c-.2.5.3,0,.3.6l-.1-.1a2.994,2.994,0,0,0,.4.8c-.4-.3-.4.2-.8,0a.6.6,0,0,0,.5.4c-.1,0-.3-.1-.3.1l-.1-.3c-.2,0,.1.3.1.6C153.17,137.1,153.37,135.9,152.87,135.8Z" transform="translate(-134.57 -134)" fill="#322015"/>
                  <path id="Path_3810" data-name="Path 3810" d="M158.6,137h0Z" transform="translate(-144.8 -134)" fill="#322015"/>
                  <path id="Path_3811" data-name="Path 3811" d="M157.6,137.4v0Z" transform="translate(-142.7 -134)" fill="#322015"/>
                  <path id="Path_3812" data-name="Path 3812" d="M157.5,137.9c0-.2-.1-.2-.1-.3C157.4,137.7,157.5,137.6,157.5,137.9Z" transform="translate(-142.4 -134)" fill="#322015"/>
                  <path id="Path_3813" data-name="Path 3813" d="M172.4,139.8c0-.1-.1-.2-.1-.3l.2.1Z" transform="translate(-172.3 -134)" fill="#322015"/>
                  <path id="Path_3814" data-name="Path 3814" d="M171.7,139.4l.2-.1.1.5C171.8,139.8,171.9,139.5,171.7,139.4Z" transform="translate(-171.2 -134)" fill="#322015"/>
                  <path id="Path_3815" data-name="Path 3815" d="M171.4,139.2v0Z" transform="translate(-170.3 -134)" fill="#322015"/>
                  <path id="Path_3816" data-name="Path 3816" d="M171.4,139.4l.1.4-.2-.3.1-.1c-.1-.1,0-.1,0-.2v.2Z" transform="translate(-170.3 -134)" fill="#322015"/>
                  <path id="Path_3817" data-name="Path 3817" d="M171.275,139.4v.1C171.175,139.5,171.175,139.4,171.275,139.4Z" transform="translate(-169.975 -134)" fill="#322015"/>
                  <path id="Path_3818" data-name="Path 3818" d="M171.1,138.8a4.331,4.331,0,0,1,.1.5c-.2.1-.2-.4-.3-.2.2.3-.1.2-.2.4.1-.3.1-.6.3-.7v.2C171.1,139,171,138.9,171.1,138.8Z" transform="translate(-169.4 -134)" fill="#322015"/>
                  <path id="Path_3819" data-name="Path 3819" d="M170.617,139.3l-.2-.3c0,.2-.2.2-.2.5-.1,0-.1-.2-.2-.3-.1.2-.1.3-.2.1.3-.2.2-.3.5-.4,0-.1,0-.1-.1,0l.2-.2C170.617,139,170.817,139,170.617,139.3Z" transform="translate(-168.017 -134)" fill="#322015"/>
                  <path id="Path_3820" data-name="Path 3820" d="M169.739,139c-.2,0-.3-.3-.2-.5l.3.2S169.639,138.7,169.739,139Z" transform="translate(-166.839 -134)" fill="#322015"/>
                  <path id="Path_3821" data-name="Path 3821" d="M169.2,139c0-.2.1-.6.2-.2C169.3,138.7,169.4,139.2,169.2,139Z" transform="translate(-166.1 -134)" fill="#322015"/>
                  <path id="Path_3822" data-name="Path 3822" d="M169,138.6l-.3.2c0,.4.2.1.3.3-.2.1-.2,0-.4-.3-.1,0-.2-.2-.3-.3C168.7,138.9,168.6,137.8,169,138.6Z" transform="translate(-164.8 -134)" fill="#322015"/>
                  <path id="Path_3823" data-name="Path 3823" d="M168.8,139.1v-.2l.1.1Z" transform="translate(-165.2 -134)" fill="#322015"/>
                  <path id="Path_3824" data-name="Path 3824" d="M167.5,138c.1-.5.4.2.5,0a.1.1,0,0,0-.1-.1h.2v-.1c0,.3.2.4.3.6-.1.3-.1-.4-.2,0,.1.1.1.3.2.4a.764.764,0,0,1-.2-.5c-.1,0-.1.2-.1.3-.1-.2-.2-.6-.4-.5-.1.3.1.4-.1.3,0-.5-.2.1-.3-.2a1.072,1.072,0,0,0-.2.6,1.207,1.207,0,0,0-.3-.8l.3.3v-.5c.2.4.3.3.4.2Z" transform="translate(-162.7 -134)" fill="#322015"/>
                  <path id="Path_3825" data-name="Path 3825" d="M166.8,138.9Z" transform="translate(-161.1 -134)" fill="#322015"/>
                  <path id="Path_3826" data-name="Path 3826" d="M168,139l.1.1-.1.2Z" transform="translate(-163.6 -134)" fill="#322015"/>
                  <path id="Path_3827" data-name="Path 3827" d="M166.644,139.2s-.1-.1,0-.1v.1Z" transform="translate(-160.744 -134)" fill="#322015"/>
                  <path id="Path_3828" data-name="Path 3828" d="M166.4,138.9l.1-.3v.2Z" transform="translate(-160.4 -134)" fill="#322015"/>
                  <path id="Path_3829" data-name="Path 3829" d="M163.1,138c-.1.2-.1-.1-.2-.3C163,137.6,162.9,138,163.1,138Z" transform="translate(-153.5 -134)" fill="#322015"/>
                  <path id="Path_3830" data-name="Path 3830" d="M161,138c-.1.2-.3,0-.4,0C160.7,137.8,160.8,137.9,161,138Z" transform="translate(-149.1 -134)" fill="#322015"/>
                  <path id="Path_3831" data-name="Path 3831" d="M159.7,138.8c-.1-.1-.1-.1,0-.2l-.2-.5C159.6,137.9,159.7,138.6,159.7,138.8Z" transform="translate(-146.7 -134)" fill="#322015"/>
                  <path id="Path_3832" data-name="Path 3832" d="M158.7,138.7l-.2-.2h.1c-.1-.2-.1-.3-.2-.5A.914.914,0,0,1,158.7,138.7Z" transform="translate(-144.6 -134)" fill="#322015"/>
                  <path id="Path_3833" data-name="Path 3833" d="M158.825,137.9h0C158.925,138,158.925,138.1,158.825,137.9Z" transform="translate(-145.225 -134)" fill="#322015"/>
                  <path id="Path_3834" data-name="Path 3834" d="M158.756,137.9c0,.1.1.1,0,0Z" transform="translate(-145.056 -134)" fill="#322015"/>
                  <path id="Path_3835" data-name="Path 3835" d="M158,138.4h.3l-.1.1C158.1,138.2,158.1,138.7,158,138.4Z" transform="translate(-143.8 -134)" fill="#322015"/>
                  <path id="Path_3836" data-name="Path 3836" d="M156.011,137.8v-.3c.2-.1.6.5.6,0,0,.2.2.3,0,.5C156.411,137.6,156.111,137.6,156.011,137.8Z" transform="translate(-140.211 -134)" fill="#322015"/>
                  <path id="Path_3837" data-name="Path 3837" d="M155.944,137.1c-.1-.1,0-.2,0-.3.1-.1.2.1.2.2C155.944,136.7,156.044,137.4,155.944,137.1Z" transform="translate(-139.544 -134)" fill="#322015"/>
                  <path id="Path_3838" data-name="Path 3838" d="M155.1,137c-.1,0-.1,0-.1-.1.2,0,.2.4.3.5C155.2,137.6,155,137.2,155.1,137Z" transform="translate(-137.8 -134)" fill="#322015"/>
                  <path id="Path_3839" data-name="Path 3839" d="M154.6,134.4c0,.3-.1.3-.2.2A.215.215,0,0,0,154.6,134.4Z" transform="translate(-136.5 -134)" fill="#322015"/>
                  <path id="Path_3840" data-name="Path 3840" d="M154.1,136.6v.1l-.2-.4Z" transform="translate(-135.5 -134)" fill="#322015"/>
                  <path id="Path_3841" data-name="Path 3841" d="M152.8,136.6l.1.3h-.2Z" transform="translate(-133.1 -134)" fill="#322015"/>
                  <path id="Path_3842" data-name="Path 3842" d="M152.5,136.5h.2v.1C152.6,136.7,152.6,136.5,152.5,136.5Z" transform="translate(-132.7 -134)" fill="#322015"/>
                  <path id="Path_3843" data-name="Path 3843" d="M152.4,136.5h0l-.2-.1Z" transform="translate(-132.1 -134)" fill="#322015"/>
                  <path id="Path_3844" data-name="Path 3844" d="M149.687,134.2c-.1-.3.1-.1.1-.2C149.887,134.1,149.787,134.5,149.687,134.2Z" transform="translate(-126.987 -134)" fill="#322015"/>
                </g>
              </g>
            </g>
          </g>
        </g>
        <line id="Line_4" data-name="Line 4" y1="5" x2="2.1" transform="translate(197.9 130)" fill="none" stroke="#1b1c1e" stroke-linecap="round" stroke-linejoin="round" stroke-miterlimit="10" stroke-width="1.26"/>
      </g>
    </g>
  </g>
</svg>
