<svg xmlns="http://www.w3.org/2000/svg" xmlns:xlink="http://www.w3.org/1999/xlink" width="99.144" height="161.457" viewBox="0 0 99.144 161.457">
  <defs>
    <clipPath id="clip-path">
      <path id="Path_3619" data-name="Path 3619" d="M266.241,146.8c-24.524,4.274-8.744-1.841-8.744-1.841a18.035,18.035,0,0,0,6.575-3.156S264.992,143.9,266.241,146.8Z" transform="translate(-252.5 -141.8)"/>
    </clipPath>
    <clipPath id="clip-path-2">
      <path id="Path_3672" data-name="Path 3672" d="M287.6,213.763l-6.18,4.208c-2.5-1.709-7.035-3.419-12.952-.066a10.436,10.436,0,0,0-3.09,2.827l-4.274-5.654c.855-2.433,3.945-4.076,8.942-7.232,6.246-3.879,7.1-11.046,7.1-11.046S282.863,205.281,287.6,213.763Z" transform="translate(-261.1 -196.8)"/>
    </clipPath>
  </defs>
  <g id="Illustration" transform="translate(287.389 225.944) rotate(180)">
    <g id="Group_931" data-name="Group 931" transform="translate(188.245 64.487)">
      <path id="Path_3539" data-name="Path 3539" d="M188.939,304.669s-3.879,1.709,6.706,2.235,66.6.789,72.388,0,16.963-.329,2.1-2.235-30.178-.789-45.169-1.907S191.174,302.7,188.939,304.669Z" transform="translate(-188.245 -145.945)" fill="#f8e17c"/>
      <g id="Group_930" data-name="Group 930" transform="translate(4.925)">
        <path id="Path_3540" data-name="Path 3540" d="M307.057,212.975s5.917-2.7,6.9-16.5-5.063-24.918-5.654-42.407,9.27-27.351,16.9-21.7-3.813,16.7-1.709,39.514c2.1,22.749,2.7,45.76-15.385,51.678A12.876,12.876,0,0,1,307.057,212.975Z" transform="translate(-233.64 -87.191)" fill="#513f3b"/>
        <path id="Path_3541" data-name="Path 3541" d="M221.691,300.44H197.5c-1.381,0-3.09-10.388,9.007-10.585s19.4,0,19.4,0Z" transform="translate(-196.007 -141.65)" fill="#513f3b"/>
        <path id="Path_3542" data-name="Path 3542" d="M202.841,303.774a4.659,4.659,0,0,1,1.183-4.274" transform="translate(-198.13 -144.984)" fill="none" stroke="#1b1c1e" stroke-miterlimit="10" stroke-width="1"/>
        <path id="Path_3543" data-name="Path 3543" d="M209.5,304.459a5.007,5.007,0,0,1,.92-2.959" transform="translate(-200.45 -145.669)" fill="none" stroke="#1b1c1e" stroke-miterlimit="10" stroke-width="1"/>
        <path id="Path_3544" data-name="Path 3544" d="M213.333,75.278s-8.021-11.835-13.215-10.717-5.917,25.51-1.381,27.022C203.207,93.161,213.333,75.278,213.333,75.278Z" transform="translate(-195.735 -64.487)" fill="#513f3b"/>
        <path id="Path_3545" data-name="Path 3545" d="M258.3,78.456s10.585-7.627,17.029-7.167c6.509.394-.132,19.593-4.931,24.524S258.3,78.456,258.3,78.456Z" transform="translate(-217.165 -66.81)" fill="#513f3b"/>
        <path id="Path_3546" data-name="Path 3546" d="M208.051,120.951a23.253,23.253,0,0,1-9.862-16.042C196.809,94.06,201.74,76.9,225.409,76.9s28.14,19.79,26.431,29.981c-1.578,9.665-6.443,12.689-6.443,12.689s5.26,11.9,7.89,18.87a35.266,35.266,0,0,1,2.235,17.357,243.5,243.5,0,0,1,12.821,21.434c4.734,9.336,8.679,32.742,4.405,48.588a2.388,2.388,0,0,1-2.3,1.775H208.183c-5.523,0-11.966-9.073-6.9-45.037,0,0-2.63-6.18-.329-19S208.051,120.951,208.051,120.951Z" transform="translate(-196.503 -68.739)" fill="#ffe6bd"/>
        <path id="Path_3547" data-name="Path 3547" d="M278.443,299.732H244.255c-3.353-8.744,6.838-12.032,12.032-12.032H269.5s4.931.2,7.035,3.616A12.823,12.823,0,0,1,278.443,299.732Z" transform="translate(-212.127 -140.942)" fill="#513f3b"/>
        <path id="Path_3548" data-name="Path 3548" d="M216.1,229.527a27.7,27.7,0,0,1-6.246,3.287,4.506,4.506,0,0,1-4.865-1.183,17.019,17.019,0,0,1-2.761-4.339s-1.709-4.011-1.183-12.229c0,0,.2-5.391,7.692-7.035,5.589-1.249,8.613,1.446,8.613,1.446-.131,1.052-.329,2.1-.526,3.287-.657,3.945.132,10.783.526,13.939A3.049,3.049,0,0,1,216.1,229.527Z" transform="translate(-197.52 -113.54)" fill="#513f3b"/>
        <path id="Path_3549" data-name="Path 3549" d="M213.3,143.9a8.4,8.4,0,0,0,1.381.723" transform="translate(-201.752 -91.688)" fill="none" stroke="#1b1c1e" stroke-miterlimit="10" stroke-width="1"/>
        <path id="Path_3550" data-name="Path 3550" d="M202.9,225.029a17.019,17.019,0,0,0,2.761,4.339,4.481,4.481,0,0,0,4.865,1.118,27.7,27.7,0,0,0,6.246-3.287,2.817,2.817,0,0,0,1.183-2.827c-.395-3.156-1.118-9.994-.526-13.939.855-5.26,1.381-9.533,1.381-9.533" transform="translate(-198.189 -111.211)" fill="none" stroke="#1b1c1e" stroke-miterlimit="10" stroke-width="1"/>
        <path id="Path_3551" data-name="Path 3551" d="M213.459,242.62a8.667,8.667,0,0,1-2.959-5.72" transform="translate(-200.793 -123.542)" fill="none" stroke="#1b1c1e" stroke-miterlimit="10" stroke-width="1"/>
        <path id="Path_3552" data-name="Path 3552" d="M220.17,239.963A7.99,7.99,0,0,1,218,234.9" transform="translate(-203.361 -122.857)" fill="none" stroke="#1b1c1e" stroke-miterlimit="10" stroke-width="1"/>
        <path id="Path_3553" data-name="Path 3553" d="M259.56,210.351c-4.6,2.827-6.969,4.471-6.706,7.627.329,3.682-2.5,4.011-3.748,4.339a25.731,25.731,0,0,1-8.021.46c-1.183-.132-3.485-2.3-3.485-7.167,0-4.471,3.616-12.1,10.585-15.977,0,0,5.72-1.118,9.533,3.287C260.217,205.88,259.56,210.351,259.56,210.351Z" transform="translate(-210.075 -110.734)" fill="#513f3b"/>
        <path id="Path_3554" data-name="Path 3554" d="M269.059,196.9a16.5,16.5,0,0,1-7.1,11.046c-6.246,3.945-9.533,5.523-9.2,9.2s-2.5,4.011-3.748,4.339a25.731,25.731,0,0,1-8.021.46c-1.183-.131-3.485-2.3-3.485-7.167,0-4.471,3.616-12.1,10.585-15.977" transform="translate(-210.041 -109.841)" fill="none" stroke="#1b1c1e" stroke-miterlimit="10" stroke-width="1"/>
        <path id="Path_3555" data-name="Path 3555" d="M247.42,232.054s-3.222-.723-3.024-5.654" transform="translate(-212.4 -119.946)" fill="none" stroke="#1b1c1e" stroke-miterlimit="10" stroke-width="1"/>
        <path id="Path_3556" data-name="Path 3556" d="M254.129,231.528s-2.1-1.446-1.841-5.128" transform="translate(-215.098 -119.946)" fill="none" stroke="#1b1c1e" stroke-miterlimit="10" stroke-width="1"/>
        <path id="Path_3557" data-name="Path 3557" d="M283.528,229.846s-5.917-7.3-15.188-2.038c-8.547,4.865-10.651,27.285-3.353,38.66" transform="translate(-217.935 -119.775)" fill="none" stroke="#1b1c1e" stroke-miterlimit="10" stroke-width="1"/>
        <path id="Path_3558" data-name="Path 3558" d="M244.354,299.732C241,290.987,251.192,287.7,256.386,287.7H269.6" transform="translate(-212.161 -140.942)" fill="none" stroke="#1b1c1e" stroke-miterlimit="10" stroke-width="1"/>
        <path id="Path_3559" data-name="Path 3559" d="M251.419,303.774s-1.644-2.564,0-4.274" transform="translate(-214.558 -144.984)" fill="none" stroke="#1b1c1e" stroke-miterlimit="10" stroke-width="1"/>
        <path id="Path_3560" data-name="Path 3560" d="M257.465,303.979s-.395-2.893.723-3.879" transform="translate(-216.856 -145.189)" fill="none" stroke="#1b1c1e" stroke-miterlimit="10" stroke-width="1"/>
        <path id="Path_3561" data-name="Path 3561" d="M228.654,122.264s-11.7-2.564-16.9-9.731-2.235-17.423-.986-19.133c1.249-1.644,2.564-7.627,19.593-6.838,13.347.657,18.212,7.824,19,12.624.723,4.339-.394,12.426-5.326,16.371A34.783,34.783,0,0,1,228.654,122.264Z" transform="translate(-200.208 -72.024)" fill="#513f3b"/>
        <g id="Group_917" data-name="Group 917" transform="translate(13.718 23.212)">
          <path id="Path_3562" data-name="Path 3562" d="M225.279,103.939a.9.9,0,0,0,0-.986c-.657-.986-2.235-3.287-4.339-3.156a5.235,5.235,0,0,0-4.339,3.682c0,1.118,1.709,3.616,4.274,3.879C222.846,107.49,224.621,104.991,225.279,103.939Z" transform="translate(-216.6 -99.792)" fill="#9bbedc"/>
          <ellipse id="Ellipse_41" data-name="Ellipse 41" cx="2.104" cy="2.827" rx="2.104" ry="2.827" transform="translate(2.17 0.794)" fill="#1b1c1e"/>
        </g>
        <g id="Group_918" data-name="Group 918" transform="translate(19.888 27.61)">
          <path id="Path_3563" data-name="Path 3563" d="M232.767,110.294s-3.485-.263-5.457,1.775-1.644,5.391.329,6.641c1.775,1.183,2.7-1.644,5.128-1.775s2.17-1.907,2.3-3.682C235.134,111.543,232.767,110.294,232.767,110.294Z" transform="translate(-225.984 -107.783)" fill="none" stroke="#1b1c1e" stroke-miterlimit="10" stroke-width="1"/>
          <path id="Path_3564" data-name="Path 3564" d="M239.5,115.658a1.818,1.818,0,0,0,1.183,1.775c1.315.657,2.433.46,3.813,2.038,1.381,1.512,4.076-.263,4.076-3.156,0-3.287-2.17-5.589-6.115-5.72s-2.63,1.315-2.63,1.315Z" transform="translate(-230.612 -107.887)" fill="none" stroke="#1b1c1e" stroke-miterlimit="10" stroke-width="1"/>
          <path id="Path_3565" data-name="Path 3565" d="M231.7,122.8a6.714,6.714,0,0,0,4.405,2.564c2.564.263,4.865-1.315,5.26-2.1" transform="translate(-227.942 -112.071)" fill="none" stroke="#1b1c1e" stroke-miterlimit="10" stroke-width="1"/>
          <path id="Path_3566" data-name="Path 3566" d="M238.073,112.016s-2.827-1.775-3.222-3.287c-.395-1.446.394-2.367,3.682-2.235,2.7.131,3.879,1.183,2.827,2.893A10.285,10.285,0,0,1,238.073,112.016Z" transform="translate(-228.99 -106.481)" fill="#1b1c1e" stroke="#1b1c1e" stroke-miterlimit="10" stroke-width="1"/>
        </g>
        <g id="Group_923" data-name="Group 923" transform="translate(37.322 50.832)">
          <g id="Group_922" data-name="Group 922" opacity="0.88" clip-path="url(#clip-path)">
            <g id="Group_921" data-name="Group 921" transform="translate(2.616 -9.665)">
              <g id="Group_920" data-name="Group 920">
                <g id="Group_919" data-name="Group 919">
                  <path id="Path_3567" data-name="Path 3567" d="M274.4,139.5l.2.2Z" transform="translate(-262.618 -131.347)" fill="#443730"/>
                  <path id="Path_3568" data-name="Path 3568" d="M268.366,143.766h0l-.066-.066Z" transform="translate(-260.528 -132.786)" fill="#443730"/>
                  <path id="Path_3569" data-name="Path 3569" d="M268.331,143.429l-.132-.329C268.266,143.232,268.266,143.363,268.331,143.429Z" transform="translate(-260.494 -132.58)" fill="#443730"/>
                  <path id="Path_3570" data-name="Path 3570" d="M277,142c.066.066.2.132.329.263Z" transform="translate(-263.508 -132.204)" fill="#443730"/>
                  <path id="Path_3571" data-name="Path 3571" d="M277.5,144.2a.23.23,0,0,0,.066.131A.23.23,0,0,1,277.5,144.2Z" transform="translate(-263.68 -132.957)" fill="#443730"/>
                  <path id="Path_3572" data-name="Path 3572" d="M278.431,134.366c-.066,0-.066-.066-.132-.066C278.366,134.3,278.366,134.3,278.431,134.366Z" transform="translate(-263.954 -129.566)" fill="#443730"/>
                  <path id="Path_3573" data-name="Path 3573" d="M279.5,134.574h.132C279.632,134.64,279.5,134.574,279.5,134.574Z" transform="translate(-264.365 -129.643)" fill="#443730"/>
                  <path id="Path_3574" data-name="Path 3574" d="M279.8,135.2h0Z" transform="translate(-264.467 -129.874)" fill="#443730"/>
                  <path id="Path_3575" data-name="Path 3575" d="M286.8,136.5l.263.2C287,136.632,286.866,136.566,286.8,136.5Z" transform="translate(-266.865 -130.32)" fill="#443730"/>
                  <path id="Path_3576" data-name="Path 3576" d="M278,134a.908.908,0,0,0,.263.2C278.132,134.132,278.066,134.132,278,134Z" transform="translate(-263.851 -129.463)" fill="#443730"/>
                  <path id="Path_3577" data-name="Path 3577" d="M274.3,139.3c.066.066.066.066.066.132C274.366,139.366,274.3,139.366,274.3,139.3Z" transform="translate(-262.583 -131.279)" fill="#443730"/>
                  <path id="Path_3578" data-name="Path 3578" d="M277.3,141.6Z" transform="translate(-263.611 -132.067)" fill="#443730"/>
                  <path id="Path_3579" data-name="Path 3579" d="M265.632,144.3a.23.23,0,0,1-.132-.066C265.5,144.041,265.566,144.106,265.632,144.3Z" transform="translate(-259.569 -132.929)" fill="#443730"/>
                  <path id="Path_3580" data-name="Path 3580" d="M273.855,136.229c.658.789.132-.066.789.657-.2-.066-.394-.2-.066.263.46.395.131-.2.723.46l-.329-.132c.2.395.789.789.657.789-.855-.789,0,.657-.263.592l.132.066.2.592.066.066-.132-.131c.329.526.46.92.2.92-.46-.46-.592.2-1.052-.2.132.066.2.066.2-.132l-.526-.592c-.131.131.46.592,0,.329-.657-.855.2-.131.2-.329a.959.959,0,0,0-.526-.329c.2-.2.066-.592.92.131a2.387,2.387,0,0,0-.526-.592c.526.394-.329-.526.2-.2-.657-.723-.592-.2-1.052-.526.329.723-.329.329-.592.329a15.194,15.194,0,0,1,1.183,1.381c.132.526-.46-.2-.789-.46,0,.329.723.986.526,1.183l.395.263c.46.92-.395-.263-.329,0-.132-.263-.263-.46-.132-.526-.2-.329-.394-.394-.46-.394v-.066c-.329-.394-.657-.789-.657-.526.46.46.2.46.329.723l.132.066c-.2-.066-.263.066-.395,0l.066.131c-.2-.131-.657-.789-.723-.592.2.263.789.855.592.855.263.394.46.329.46.132,0,.2.329.855.526.855.263.526-.263-.132-.2.131a2,2,0,0,0-.329-.46c.46.657-.263.263-.526-.263l.395.263c-.329-.526-.723-.789-.855-1.118.46.92-.592-.2-.263.592l-.2-.46c-.132.46-.92-.395-1.315-.46.263.2.789,1.183.789.723-.132.329.46.986.657,1.512,0,.526-.592-.855-.855-1.118a.4.4,0,0,0,.263.066c-.789-.986-.46.526-1.118,0,.131.329.131.132.263.263.2.657-.2-.066-.395-.263-.066.132-.132.526.329,1.183-.066.263-.2-.46-.394-.657l.066.2-.526-.723a3.956,3.956,0,0,0,.263,1.512c-.394,0-.855-1.644-1.183-1.775a2.072,2.072,0,0,0,.394.855h-.263c.395.789.395.329.789,1.315-.592-.92-.395-.2-.855-.723v-.066c-.394-.657-.394-.066-.592-.131a.777.777,0,0,0,.526.46c0,.394-.526.2-.986-.592a.98.98,0,0,0,.132.92c-.263.263-.526-1.249-.723-.855l.2.657c0,1.052-.855-.723-.855.263l-.263-.855c.066.394-.066.592,0,.92l.2.263c.066.723-.329-.657-.329-.132-.066-.263-.066-.855-.132-1.118.329.2.592-.066.855-.263s.46-.394.92-.132a.977.977,0,0,0,.066.395c0-.2.2-.066,0-.46l-.066-.066c.2.131,0-.92.066-.92.263.526.2-.329.526.592l-.131-.657c.2.329.329.789.46.92.066-.132-.066-.46-.263-.657a.985.985,0,0,1,1.183-.526l-.329-.394c0-.263.723.592.066-.46.395.329.329-.526.92.592-.46-1.118.132-.723.526-.723.526.92.329.131.657.526-.394-.723-.657-.592-.92-1.052.92.92.132-1.183,1.446.526,0-.066-.066-.132-.132-.2.066-.066-.066-.394-.132-.46.263.263.263.526.394.526.066-.131-.329-.592-.46-.855a3.566,3.566,0,0,1,1.381.92,1.958,1.958,0,0,0-.46-.723c.658.329.2-.263.723-.131-.132.066-.592-.657-.526-.329-.657-1.052.526-.131.329-.789l.592.526c.2,0-.263-.592-.526-.723-.132-.526.329-.263.46-.395l-.131-.131.2-.2a3.522,3.522,0,0,1,.789.723C273.987,136.1,273.79,135.9,273.855,136.229Z" transform="translate(-259.706 -130.114)" fill="#443730"/>
                  <path id="Path_3581" data-name="Path 3581" d="M278.7,136.6l.066.066h0Z" transform="translate(-264.091 -130.354)" fill="#443730"/>
                  <path id="Path_3582" data-name="Path 3582" d="M278.431,143.329c-.066-.2-.132-.263-.132-.329C278.366,143.066,278.366,143.2,278.431,143.329Z" transform="translate(-263.954 -132.546)" fill="#443730"/>
                  <path id="Path_3583" data-name="Path 3583" d="M281.345,132.384c.855.789-.263,0-.132.329.2,0,.723.46.986.723-1.249-.855.066.329-.329.394.395.329.526.263.986.592a2.843,2.843,0,0,1-1.381-.592c-.2.2-.132.592-.395.592.395.066.657.592,1.315.92-.92-.526-2.1-.986-3.156-1.644a13.364,13.364,0,0,0,1.315,1.381c.2.723-.657-.526-.723-.132v-.2a6.64,6.64,0,0,1-1.381-1.183c.132-.066.263-.066.329-.131-.46-.46-.526-.263-.723-.329-.592-.526-.263-.526-.657-.92.395.329.395.132.592.2l-.2-.263c-.132-.395.526.2.592.066-.066-.066-.132-.132-.132-.2.329.263.658.526.855.526h-.066c.657.46,1.315.592,1.775,1.381l.066-.46c-.723-.592-1.775-1.446-1.972-1.381l-.263-.263c-.263-.46.789.2,1.315.789,1.709,1.315.46-.394,1.315,0a5.186,5.186,0,0,0-1.052-.657c-.132,0-.132.066.2.394-.46.066-1.381-1.315-1.446-.855.132.329.855.46.723.723l-1.315-.986a2.191,2.191,0,0,1,.657,0c.657.066.92-.132.986-.395a.894.894,0,0,0,0-.46,19.858,19.858,0,0,0,2.3-2.433c.395-.2.329-.329,1.907.263.263.2,0,.329.526.526-.526-.263-.92-.263-.986-.066.526.329.329,0,.46.066v.066c.263.132.46.2.526.132.657.657.263.986-.789.526.395.46.855.394,1.315.526.066.855-.329,1.183-.658,1.841a4.625,4.625,0,0,0-1.249-.657l.263.263c-.132-.131-.789-.46-.855-.723.46.789-1.381-.46-1.907-.526l.46.329c-.2.132-.263.132-.592.132.592.855.329-.132,1.315.723l-.263-.066a13.807,13.807,0,0,0,1.578.92c-.92-.263,0,.592-.789.46a2.233,2.233,0,0,0,1.183.329c-.066.131-.526.066-.066.394l-.592-.46c-.2.132.592.395.92.789C283.449,134.159,281.937,132.318,281.345,132.384Z" transform="translate(-263.645 -127.322)" fill="#443730"/>
                  <path id="Path_3584" data-name="Path 3584" d="M278.3,140.666c0-.066.066-.066.132-.066A.229.229,0,0,1,278.3,140.666Z" transform="translate(-263.954 -131.724)" fill="#443730"/>
                  <path id="Path_3585" data-name="Path 3585" d="M280.9,141.3l.2.2Q281,141.5,280.9,141.3Z" transform="translate(-264.844 -131.964)" fill="#443730"/>
                  <path id="Path_3586" data-name="Path 3586" d="M281.792,142.126a2.388,2.388,0,0,0-.592-.526C281.4,141.731,281.529,141.666,281.792,142.126Z" transform="translate(-264.947 -132.067)" fill="#443730"/>
                  <path id="Path_3587" data-name="Path 3587" d="M256.625,150.757c0-.2-.2-.46-.132-.657l.2.263Z" transform="translate(-256.48 -134.978)" fill="#443730"/>
                  <path id="Path_3588" data-name="Path 3588" d="M257.3,149.729l.2-.329.132,1.052C257.431,150.452,257.563,149.729,257.3,149.729Z" transform="translate(-256.761 -134.738)" fill="#443730"/>
                  <path id="Path_3589" data-name="Path 3589" d="M258.166,148.863l-.066-.263A.5.5,0,0,1,258.166,148.863Z" transform="translate(-257.035 -134.464)" fill="#443730"/>
                  <path id="Path_3590" data-name="Path 3590" d="M258.1,149.395l.066.723-.263-.526.132-.131a2.332,2.332,0,0,1,.066-.46l.132.526C258.163,149.46,258.1,149.329,258.1,149.395Z" transform="translate(-256.966 -134.601)" fill="#443730"/>
                  <path id="Path_3591" data-name="Path 3591" d="M258.574,149.7v.2A.123.123,0,0,1,258.574,149.7Z" transform="translate(-257.18 -134.841)" fill="#443730"/>
                  <path id="Path_3592" data-name="Path 3592" d="M258.995,147.6a2.724,2.724,0,0,0,.132.986c-.2.263-.263-.789-.395-.46.263.592-.066.46-.132.855a2.568,2.568,0,0,1,.329-1.381l.066.46A.978.978,0,0,1,258.995,147.6Z" transform="translate(-257.206 -134.122)" fill="#443730"/>
                  <path id="Path_3593" data-name="Path 3593" d="M260.489,148.481l-.2-.657c0,.329-.263.329-.2,1.052a3.055,3.055,0,0,1-.2-.592c-.066.394-.066.657-.2.131.329-.526.2-.657.526-.855,0-.132-.066-.132-.066-.066l.2-.394C260.357,147.889,260.686,147.955,260.489,148.481Z" transform="translate(-257.583 -133.95)" fill="#443730"/>
                  <path id="Path_3594" data-name="Path 3594" d="M261.154,147.818c-.2,0-.329-.657-.263-1.118l.395.526C261.154,147.16,261.023,147.094,261.154,147.818Z" transform="translate(-257.985 -133.813)" fill="#443730"/>
                  <path id="Path_3595" data-name="Path 3595" d="M261.7,147.907c0-.394.066-1.183.263-.46C261.7,147.315,261.963,148.367,261.7,147.907Z" transform="translate(-258.268 -133.968)" fill="#443730"/>
                  <path id="Path_3596" data-name="Path 3596" d="M262.989,146.693l-.263.526c.066.92.2.263.395.657-.263.2-.2-.066-.526-.592-.066.066-.263-.395-.394-.657C262.726,147.285,262.4,145.116,262.989,146.693Z" transform="translate(-258.439 -133.61)" fill="#443730"/>
                  <path id="Path_3597" data-name="Path 3597" d="M262.531,148.395,262.4,148l.2.263Z" transform="translate(-258.507 -134.259)" fill="#443730"/>
                  <path id="Path_3598" data-name="Path 3598" d="M263.755,145.16c-.066-1.118.46.526.592,0-.066-.066-.066-.131-.132-.263l.2.066-.066-.263a4.914,4.914,0,0,0,.592,1.315c0,.723-.263-.789-.263,0a7.977,7.977,0,0,1,.329.92,4.534,4.534,0,0,1-.46-.986c-.131-.066,0,.329,0,.526-.2-.329-.46-1.249-.592-.986,0,.592.263.855,0,.657-.066-1.052-.2.2-.395-.394a2.524,2.524,0,0,0-.066,1.249,3.729,3.729,0,0,0-.592-1.644l.394.592-.066-.92c.329.394.46.329.526.131Z" transform="translate(-258.679 -133.128)" fill="#443730"/>
                  <path id="Path_3599" data-name="Path 3599" d="M266.1,148.1c.066.066.066.132.132.132C266.232,148.3,266.166,148.232,266.1,148.1Z" transform="translate(-259.775 -134.293)" fill="#443730"/>
                  <path id="Path_3600" data-name="Path 3600" d="M263.9,148.6l.132.2v.263Z" transform="translate(-259.021 -134.464)" fill="#443730"/>
                  <path id="Path_3601" data-name="Path 3601" d="M266.552,148.829c-.066.066-.132-.263-.066-.329l.2.394Z" transform="translate(-259.898 -134.43)" fill="#443730"/>
                  <path id="Path_3602" data-name="Path 3602" d="M266.666,147.792l-.066-.592.2.46Z" transform="translate(-259.946 -133.985)" fill="#443730"/>
                  <path id="Path_3603" data-name="Path 3603" d="M272.06,144.84c0,.329-.263-.263-.46-.657C271.731,143.985,271.863,144.708,272.06,144.84Z" transform="translate(-261.659 -132.939)" fill="#443730"/>
                  <path id="Path_3604" data-name="Path 3604" d="M276.155,144.214c.066.46-.329,0-.46.066C275.629,143.951,275.892,144.017,276.155,144.214Z" transform="translate(-263.058 -132.906)" fill="#443730"/>
                  <path id="Path_3605" data-name="Path 3605" d="M279.252,145.442c-.132-.132-.263-.2-.263-.329l-.789-.855C278.2,143.864,278.989,145.048,279.252,145.442Z" transform="translate(-263.919 -132.95)" fill="#443730"/>
                  <path id="Path_3606" data-name="Path 3606" d="M280.983,144.486l-.46-.2.066-.066a7.88,7.88,0,0,0-.789-.723A2.1,2.1,0,0,1,280.983,144.486Z" transform="translate(-264.467 -132.717)" fill="#443730"/>
                  <path id="Path_3607" data-name="Path 3607" d="M279.4,143.4h.132C279.6,143.531,279.663,143.663,279.4,143.4Z" transform="translate(-264.33 -132.683)" fill="#443730"/>
                  <path id="Path_3608" data-name="Path 3608" d="M279.643,143.346c.066.066.066.066.132.066-.066,0-.132-.066-.2-.066C279.512,143.28,279.512,143.148,279.643,143.346Z" transform="translate(-264.376 -132.629)" fill="#443730"/>
                  <path id="Path_3609" data-name="Path 3609" d="M281.3,144.132l.394-.132v.263C281.234,143.737,281.826,144.723,281.3,144.132Z" transform="translate(-264.981 -132.889)" fill="#443730"/>
                  <path id="Path_3610" data-name="Path 3610" d="M282.76,141.089l-.46-.526c.066-.263,1.315.592.657-.263.2.394.657.394.592.789C283.089,140.694,282.76,140.892,282.76,141.089Z" transform="translate(-265.324 -131.621)" fill="#443730"/>
                  <path id="Path_3611" data-name="Path 3611" d="M282.729,139.272c-.2-.132-.2-.263-.329-.395,0-.131.263.066.46.263C282.137,138.549,283.189,139.6,282.729,139.272Z" transform="translate(-265.358 -131.12)" fill="#443730"/>
                  <path id="Path_3612" data-name="Path 3612" d="M283.963,138.322c-.066.066-.2.066-.263-.131.2-.132.723.46,1.118.723C285.015,139.308,284.16,138.65,283.963,138.322Z" transform="translate(-265.803 -130.892)" fill="#443730"/>
                  <path id="Path_3613" data-name="Path 3613" d="M279.7,131.7c.46.394.263.46.132.329C279.963,132.029,279.831,131.831,279.7,131.7Z" transform="translate(-264.433 -128.676)" fill="#443730"/>
                  <path id="Path_3614" data-name="Path 3614" d="M285.157,136.194l.066.132-.723-.526Z" transform="translate(-266.077 -130.08)" fill="#443730"/>
                  <path id="Path_3615" data-name="Path 3615" d="M287.2,135.4l.592.2-.2.132Z" transform="translate(-267.002 -129.943)" fill="#443730"/>
                  <path id="Path_3616" data-name="Path 3616" d="M287.3,134.932l.132-.132.132.2C287.694,135.129,287.366,134.866,287.3,134.932Z" transform="translate(-267.036 -129.737)" fill="#443730"/>
                  <path id="Path_3617" data-name="Path 3617" d="M287.829,134.3c-.066,0,0,.066.066.131l-.394-.066Z" transform="translate(-267.105 -129.566)" fill="#443730"/>
                  <path id="Path_3618" data-name="Path 3618" d="M285.353,127.363c-.526-.263-.132-.2-.263-.263C285.221,127.166,285.879,127.56,285.353,127.363Z" transform="translate(-266.272 -127.1)" fill="#443730"/>
                </g>
              </g>
            </g>
          </g>
        </g>
        <g id="Group_928" data-name="Group 928" transform="translate(42.976 86.993)">
          <g id="Group_927" data-name="Group 927" opacity="0.88" clip-path="url(#clip-path-2)">
            <g id="Group_926" data-name="Group 926" transform="translate(0.442 -0.675)">
              <g id="Group_925" data-name="Group 925">
                <g id="Group_924" data-name="Group 924">
                  <path id="Path_3620" data-name="Path 3620" d="M279.2,210.7c.066,0,.066,0,.132.066A.2.2,0,0,1,279.2,210.7Z" transform="translate(-267.742 -200.886)" fill="#443730"/>
                  <path id="Path_3621" data-name="Path 3621" d="M273.4,215.3Z" transform="translate(-265.755 -202.461)" fill="#443730"/>
                  <path id="Path_3622" data-name="Path 3622" d="M273.331,215.132,273.2,215C273.331,215.066,273.331,215.132,273.331,215.132Z" transform="translate(-265.687 -202.359)" fill="#443730"/>
                  <path id="Path_3623" data-name="Path 3623" d="M280.8,211.3h0Z" transform="translate(-268.29 -201.091)" fill="#443730"/>
                  <path id="Path_3624" data-name="Path 3624" d="M280.9,212.5v0Z" transform="translate(-268.324 -201.502)" fill="#443730"/>
                  <path id="Path_3625" data-name="Path 3625" d="M282.774,205.174Z" transform="translate(-268.949 -198.976)" fill="#443730"/>
                  <path id="Path_3626" data-name="Path 3626" d="M283.3,204.866a.064.064,0,0,1,.066-.066l-.066.066C283.431,204.8,283.366,204.866,283.3,204.866Z" transform="translate(-269.146 -198.865)" fill="#443730"/>
                  <path id="Path_3627" data-name="Path 3627" d="M283.5,205.2Z" transform="translate(-269.215 -199.002)" fill="#443730"/>
                  <path id="Path_3628" data-name="Path 3628" d="M287.4,203l.132.066C287.466,203.066,287.4,203.066,287.4,203Z" transform="translate(-270.551 -198.248)" fill="#443730"/>
                  <path id="Path_3629" data-name="Path 3629" d="M282.5,205.1h.132C282.566,205.1,282.5,205.166,282.5,205.1Z" transform="translate(-268.872 -198.968)" fill="#443730"/>
                  <path id="Path_3630" data-name="Path 3630" d="M279.1,210.6Z" transform="translate(-267.708 -200.851)" fill="#443730"/>
                  <path id="Path_3631" data-name="Path 3631" d="M281.1,210.9Z" transform="translate(-268.393 -200.954)" fill="#443730"/>
                  <path id="Path_3632" data-name="Path 3632" d="M270.632,216.185H270.5A.091.091,0,0,1,270.632,216.185Z" transform="translate(-264.762 -202.754)" fill="#443730"/>
                  <path id="Path_3633" data-name="Path 3633" d="M278.227,206.927c.329.263.132-.132.46.131-.132,0-.2.066-.066.2.263.066.066-.2.394,0l-.2.066c.132.2.395.263.329.263-.46-.2-.066.46-.2.526h.066l.066.329h0a.064.064,0,0,1-.066-.066c.132.2.2.46.066.592-.263-.132-.46.394-.658.263.132,0,.132-.066.132-.2l-.263-.2c-.132.132.263.2,0,.2-.329-.329.132-.2.2-.329a.3.3,0,0,0-.329,0c.132-.2.132-.46.592-.263a.352.352,0,0,0-.263-.2c.329.066-.132-.263.132-.2-.395-.2-.395.132-.657.066.132.394-.263.394-.46.526.263.2.526.263.657.46,0,.329-.263.066-.526.066,0,.2.394.395.263.592h.263c.263.46-.263,0-.263.131-.066-.131-.132-.2-.066-.263a.232.232,0,0,0-.263-.066v-.066c-.2-.132-.395-.263-.395-.066.263.131.066.263.132.329h.066c-.132,0-.2.132-.329.132l.066.066c-.132,0-.395-.263-.46-.066.132.066.46.263.329.329.132.131.263.066.329-.132-.066.132.132.46.263.329.132.2-.2,0-.2.2l-.2-.2c.263.263-.2.263-.395.066h.263c-.2-.2-.46-.2-.526-.395.263.395-.46.132-.263.46l-.132-.2c-.132.329-.657.066-.986.2.2.066.46.394.526.2-.2.263.2.46.263.657-.066.263-.394-.263-.526-.329h.2c-.526-.329-.46.46-.92.394.066.132.132,0,.2.066.066.329-.132.066-.263,0a.425.425,0,0,0,.066.592c-.066.2-.132-.2-.263-.263v.066a.656.656,0,0,1-.329-.263.906.906,0,0,0,0,.723c-.329.132-.526-.657-.789-.657,0,.2.132.2.263.329l-.2.066c.263.329.329.066.526.46-.394-.329-.263,0-.657-.132v-.066c-.263-.2-.395.066-.526.132.132.131.263.066.395.066-.066.2-.526.263-.789,0-.066.132-.2.329,0,.394-.263.2-.394-.46-.592-.263l.132.263c-.132.526-.723-.131-.855.329l-.132-.329c0,.2-.066.263-.066.46l.2.066c0,.329-.263-.263-.329.066-.066-.131,0-.394-.066-.526.657,0,1.052-.723,1.709-.657a.242.242,0,0,0,.066.2c0-.132.2-.066.066-.263h0c.2,0,.132-.46.2-.526.2.2.263-.263.395.2l-.066-.263a4.025,4.025,0,0,1,.263.394.178.178,0,0,0-.132-.263,2.324,2.324,0,0,1,1.183-.657l-.2-.132c0-.131.526.066.132-.329.263.066.395-.46.723,0-.2-.526.263-.46.526-.592.263.394.263-.066.46.066-.2-.329-.394-.132-.592-.329.592.2.329-.855,1.052-.263,0-.066,0-.066-.066-.066.066-.066,0-.2,0-.263.132.066.132.263.263.2.066-.132-.2-.263-.2-.329.329,0,.592-.2.92.066-.066-.132-.132-.329-.263-.329.46-.066.132-.263.526-.395-.066.066-.329-.2-.329,0-.329-.46.395-.329.329-.723l.329.131c.132-.066-.132-.329-.263-.263,0-.329.2-.329.329-.526,0-.066-.066-.066-.066,0l.132-.263a.81.81,0,0,1,.46.132C278.358,206.73,278.227,206.73,278.227,206.927Z" transform="translate(-264.796 -199.545)" fill="#443730"/>
                  <path id="Path_3634" data-name="Path 3634" d="M282.7,206.8Z" transform="translate(-268.941 -199.55)" fill="#443730"/>
                  <path id="Path_3635" data-name="Path 3635" d="M281.666,211.632a.2.2,0,0,1-.066-.132C281.666,211.5,281.666,211.566,281.666,211.632Z" transform="translate(-268.564 -201.16)" fill="#443730"/>
                  <path id="Path_3636" data-name="Path 3636" d="M284.267,200.8c.46.263-.132.131-.066.329.132-.066.395.066.526.131-.657-.131.066.263-.2.46.2.066.263,0,.526.066-.2.066-.394.329-.789.2-.132.263-.132.526-.263.657.263-.131.329.132.723.132-.46,0-1.183.2-1.775.2a2.715,2.715,0,0,0,.723.46c.066.46-.394-.131-.46.2v-.2c-.2.066-.526-.131-.789-.263l.263-.263c-.263-.131-.329.066-.46.066-.329-.066-.066-.263-.329-.394.2.066.263-.066.395-.132l-.132-.066c-.066-.2.329-.131.394-.263l-.066-.066a1.481,1.481,0,0,0,.46.066l-.066.066c.395.066.723-.131.986.263l.066-.394c-.394-.132-.92-.329-1.118-.2l-.132-.066c-.132-.263.46-.263.723,0,.92.263.263-.526.723-.592-.2-.132-.394,0-.592,0-.066.066-.066.131.132.2-.263.263-.723-.395-.789,0,0,.2.46,0,.395.263l-.723-.132c.066-.131.263-.2.395-.329a1.443,1.443,0,0,0,.592-.789.694.694,0,0,0,0-.395,19.141,19.141,0,0,0,1.052-3.287c.132-.329.132-.46.855-.526.132.066.066.329.329.263-.263,0-.395.132-.395.329.263.066.132-.132.2-.132v.066c.132,0,.2,0,.263-.066.329.263.2.723-.329.789.2.2.394-.066.657-.132a5.462,5.462,0,0,1-.2,1.775c-.46-.131-.329,0-.592,0l.132.132c-.066-.066-.394-.066-.46-.2.263.46-.723.263-.986.394l.263.066c-.132.2-.132.263-.329.329.329.46.132-.263.657,0l-.132.066a3.168,3.168,0,0,0,.789,0c-.46.2,0,.526-.395.723.263.066.526-.2.592-.263,0,.132-.263.263-.066.395l-.329-.066c-.132.2.329.066.46.2C285.45,201.263,284.661,200.539,284.267,200.8Z" transform="translate(-268.667 -195.919)" fill="#443730"/>
                  <path id="Path_3637" data-name="Path 3637" d="M281.9,209.831c0-.066.066-.066.132-.131Z" transform="translate(-268.667 -200.543)" fill="#443730"/>
                  <path id="Path_3638" data-name="Path 3638" d="M283.6,209.3c.066,0,.066.066.132.066C283.666,209.3,283.666,209.3,283.6,209.3Z" transform="translate(-269.249 -200.406)" fill="#443730"/>
                  <path id="Path_3639" data-name="Path 3639" d="M284.129,209.426c-.132-.132-.132-.066-.329-.132C283.931,209.361,284,209.163,284.129,209.426Z" transform="translate(-269.318 -200.401)" fill="#443730"/>
                  <path id="Path_3640" data-name="Path 3640" d="M261.922,220.463c-.066-.066-.2-.2-.132-.263l.2.066Z" transform="translate(-261.773 -204.14)" fill="#443730"/>
                  <path id="Path_3641" data-name="Path 3641" d="M262.6,219.931l.2-.132.2.46C262.732,220.194,262.8,219.866,262.6,219.931Z" transform="translate(-262.056 -204.003)" fill="#443730"/>
                  <path id="Path_3642" data-name="Path 3642" d="M263.366,219.432l-.066-.132C263.3,219.366,263.366,219.366,263.366,219.432Z" transform="translate(-262.296 -203.831)" fill="#443730"/>
                  <path id="Path_3643" data-name="Path 3643" d="M263.331,219.731l.132.329-.263-.2.066-.066a.288.288,0,0,1,.066-.2l.132.2C263.4,219.731,263.331,219.666,263.331,219.731Z" transform="translate(-262.262 -203.934)" fill="#443730"/>
                  <path id="Path_3644" data-name="Path 3644" d="M263.7,219.8v0Z" transform="translate(-262.433 -204.003)" fill="#443730"/>
                  <path id="Path_3645" data-name="Path 3645" d="M264.094,218.7a.934.934,0,0,0,.132.394c-.2.132-.263-.329-.395-.131.263.2-.066.2-.132.394a.692.692,0,0,1,.263-.657l.066.2C264.094,218.963,264.029,218.831,264.094,218.7Z" transform="translate(-262.433 -203.626)" fill="#443730"/>
                  <path id="Path_3646" data-name="Path 3646" d="M265.489,218.957l-.2-.263c0,.132-.263.2-.2.46-.066,0-.132-.2-.2-.263-.066.2-.066.263-.2.066.329-.263.2-.329.526-.46,0-.066-.066-.066-.066,0l.2-.2C265.423,218.694,265.686,218.694,265.489,218.957Z" transform="translate(-262.775 -203.489)" fill="#443730"/>
                  <path id="Path_3647" data-name="Path 3647" d="M266.156,218.66a.4.4,0,0,1-.263-.46l.395.2C266.222,218.4,266.09,218.4,266.156,218.66Z" transform="translate(-263.18 -203.455)" fill="#443730"/>
                  <path id="Path_3648" data-name="Path 3648" d="M266.7,218.612c0-.2.066-.526.263-.263C266.766,218.349,266.9,218.809,266.7,218.612Z" transform="translate(-263.46 -203.472)" fill="#443730"/>
                  <path id="Path_3649" data-name="Path 3649" d="M267.923,217.8l-.263.263c.066.395.2.066.329.263-.263.132-.2,0-.46-.2-.066.066-.263-.132-.329-.2C267.66,218.124,267.463,217.2,267.923,217.8Z" transform="translate(-263.632 -203.247)" fill="#443730"/>
                  <path id="Path_3650" data-name="Path 3650" d="M267.466,218.7l-.066-.2.2.132Z" transform="translate(-263.7 -203.557)" fill="#443730"/>
                  <path id="Path_3651" data-name="Path 3651" d="M268.957,216.829c.066-.526.46.2.592-.066a.2.2,0,0,0-.066-.131h.2V216.5c.066.263.263.329.46.46-.066.329-.2-.329-.263.066.066.132.2.263.263.395a.967.967,0,0,1-.329-.395c-.132,0-.066.132,0,.263-.2-.132-.329-.526-.46-.395-.066.263.2.329-.066.329,0-.46-.2.132-.395-.131a.631.631,0,0,0-.131.592,1.061,1.061,0,0,0-.46-.657l.329.2v-.394c.066.2.2.132.329,0Z" transform="translate(-264.008 -202.872)" fill="#443730"/>
                  <path id="Path_3652" data-name="Path 3652" d="M270.9,218l.066.066Z" transform="translate(-264.899 -203.386)" fill="#443730"/>
                  <path id="Path_3653" data-name="Path 3653" d="M268.8,218.6l.066.066v.066Z" transform="translate(-264.18 -203.592)" fill="#443730"/>
                  <path id="Path_3654" data-name="Path 3654" d="M271.166,218.232c-.066,0-.066-.066-.066-.132l.066.132Z" transform="translate(-264.968 -203.42)" fill="#443730"/>
                  <path id="Path_3655" data-name="Path 3655" d="M271.3,217.663l.066-.263.066.2Z" transform="translate(-265.036 -203.181)" fill="#443730"/>
                  <path id="Path_3656" data-name="Path 3656" d="M276.529,214.768c0,.2-.2-.066-.329-.2C276.332,214.374,276.332,214.768,276.529,214.768Z" transform="translate(-266.714 -202.193)" fill="#443730"/>
                  <path id="Path_3657" data-name="Path 3657" d="M279.894,213c0,.263-.263.132-.394.2C279.5,213,279.7,213,279.894,213Z" transform="translate(-267.845 -201.673)" fill="#443730"/>
                  <path id="Path_3658" data-name="Path 3658" d="M281.992,212.653c-.066-.066-.132-.066-.132-.132l-.46-.263C281.466,212,281.86,212.456,281.992,212.653Z" transform="translate(-268.495 -201.392)" fill="#443730"/>
                  <path id="Path_3659" data-name="Path 3659" d="M283.357,211.378l-.263.066.066-.066c-.2-.066-.263-.132-.46-.2A.574.574,0,0,1,283.357,211.378Z" transform="translate(-268.941 -201.038)" fill="#443730"/>
                  <path id="Path_3660" data-name="Path 3660" d="M282.4,211.166a.064.064,0,0,0,.066-.066C282.531,211.231,282.531,211.3,282.4,211.166Z" transform="translate(-268.838 -201.023)" fill="#443730"/>
                  <path id="Path_3661" data-name="Path 3661" d="M282.574,211.1Z" transform="translate(-268.881 -201.023)" fill="#443730"/>
                  <path id="Path_3662" data-name="Path 3662" d="M283.6,210.863l.263-.263v.2C283.6,210.666,283.863,211.06,283.6,210.863Z" transform="translate(-269.249 -200.851)" fill="#443730"/>
                  <path id="Path_3663" data-name="Path 3663" d="M284.863,208.157l-.263-.2c.066-.2.789-.132.46-.46.132.2.395,0,.329.263A.427.427,0,0,0,284.863,208.157Z" transform="translate(-269.592 -199.79)" fill="#443730"/>
                  <path id="Path_3664" data-name="Path 3664" d="M285,207c-.066,0-.132-.066-.2-.132,0-.066.2-.066.263,0C284.669,206.674,285.194,207.068,285,207Z" transform="translate(-269.66 -199.555)" fill="#443730"/>
                  <path id="Path_3665" data-name="Path 3665" d="M285.731,205.676c-.066.066-.132.132-.132,0,.132-.132.395.066.592.066C286.323,205.939,285.863,205.874,285.731,205.676Z" transform="translate(-269.934 -199.15)" fill="#443730"/>
                  <path id="Path_3666" data-name="Path 3666" d="M283.6,202.4c.263.132.132.2.066.2C283.732,202.6,283.666,202.466,283.6,202.4Z" transform="translate(-269.249 -198.043)" fill="#443730"/>
                  <path id="Path_3667" data-name="Path 3667" d="M286.529,203.5v.066l-.329-.066Z" transform="translate(-270.14 -198.42)" fill="#443730"/>
                  <path id="Path_3668" data-name="Path 3668" d="M287.6,201.966l.263-.066-.066.2Z" transform="translate(-270.619 -197.871)" fill="#443730"/>
                  <path id="Path_3669" data-name="Path 3669" d="M287.6,201.5l.066-.2.066.066C287.8,201.563,287.6,201.431,287.6,201.5Z" transform="translate(-270.619 -197.666)" fill="#443730"/>
                  <path id="Path_3670" data-name="Path 3670" d="M287.831,200.8a.064.064,0,0,0,.066.066l-.2.132Z" transform="translate(-270.653 -197.495)" fill="#443730"/>
                  <path id="Path_3671" data-name="Path 3671" d="M286.226,195.922c-.263,0-.066-.132-.132-.132C286.161,195.725,286.489,195.856,286.226,195.922Z" transform="translate(-270.1 -195.773)" fill="#443730"/>
                </g>
              </g>
            </g>
          </g>
        </g>
        <g id="Group_929" data-name="Group 929" transform="translate(35.92 23.906)">
          <path id="Path_3673" data-name="Path 3673" d="M250.455,104.564a.9.9,0,0,1,.132-.986c.723-.92,2.564-3.024,4.668-2.7a5.407,5.407,0,0,1,3.945,4.076,4.893,4.893,0,0,1-4.668,3.353C252.427,108.377,250.981,105.682,250.455,104.564Z" transform="translate(-250.369 -100.847)" fill="#9bbedc"/>
          <ellipse id="Ellipse_42" data-name="Ellipse 42" cx="2.827" cy="2.104" rx="2.827" ry="2.104" transform="translate(2.062 6.248) rotate(-83.858)" fill="#1b1c1e"/>
        </g>
      </g>
    </g>
  </g>
</svg>
